<mxfile host="app.diagrams.net" modified="2022-05-18T09:23:21.660Z" agent="5.0 (Macintosh; Intel Mac OS X 10_15_7) AppleWebKit/605.1.15 (KHTML, like Gecko) Version/15.3 Safari/605.1.15" etag="jojLfqWYBi7oTdhVhK07" version="18.0.7" type="github">
  <diagram id="BIAN5V0Anx_q-Htp3Yhk" name="logistique">
    <mxGraphModel dx="1613" dy="545" grid="1" gridSize="10" guides="1" tooltips="1" connect="1" arrows="1" fold="1" page="1" pageScale="1" pageWidth="827" pageHeight="1169" math="0" shadow="0">
      <root>
        <mxCell id="0" />
        <mxCell id="1" parent="0" />
        <mxCell id="8dMVnXHlY2LH4FyuQO4U-24" value="" style="ellipse;whiteSpace=wrap;html=1;aspect=fixed;fontFamily=Times New Roman;fontSize=14;fontColor=#B5739D;fillColor=#D5E8D4;strokeColor=none;" vertex="1" parent="1">
          <mxGeometry x="595" y="120" width="90" height="90" as="geometry" />
        </mxCell>
        <mxCell id="8dMVnXHlY2LH4FyuQO4U-23" value="" style="ellipse;whiteSpace=wrap;html=1;aspect=fixed;fontFamily=Times New Roman;fontSize=14;fontColor=#B5739D;fillColor=#E6D0DE;strokeColor=none;" vertex="1" parent="1">
          <mxGeometry x="305" y="120" width="90" height="90" as="geometry" />
        </mxCell>
        <mxCell id="8dMVnXHlY2LH4FyuQO4U-2" style="edgeStyle=orthogonalEdgeStyle;rounded=0;orthogonalLoop=1;jettySize=auto;html=1;exitX=0;exitY=0.5;exitDx=0;exitDy=0;fontFamily=Garamond;fontSize=25;fontColor=#6666FF;entryX=0.5;entryY=0;entryDx=0;entryDy=0;" edge="1" parent="1" source="8dMVnXHlY2LH4FyuQO4U-1" target="8dMVnXHlY2LH4FyuQO4U-16">
          <mxGeometry relative="1" as="geometry">
            <mxPoint x="90" y="110" as="targetPoint" />
          </mxGeometry>
        </mxCell>
        <mxCell id="8dMVnXHlY2LH4FyuQO4U-8" style="edgeStyle=orthogonalEdgeStyle;rounded=0;orthogonalLoop=1;jettySize=auto;html=1;fontFamily=Garamond;fontSize=25;fontColor=#6666FF;entryX=0.5;entryY=0;entryDx=0;entryDy=0;" edge="1" parent="1" source="8dMVnXHlY2LH4FyuQO4U-1" target="8dMVnXHlY2LH4FyuQO4U-20">
          <mxGeometry relative="1" as="geometry">
            <mxPoint x="350" y="160" as="targetPoint" />
          </mxGeometry>
        </mxCell>
        <mxCell id="8dMVnXHlY2LH4FyuQO4U-22" style="edgeStyle=orthogonalEdgeStyle;rounded=0;orthogonalLoop=1;jettySize=auto;html=1;exitX=1;exitY=0.5;exitDx=0;exitDy=0;fontFamily=Times New Roman;fontSize=14;fontColor=#B5739D;entryX=0.5;entryY=0;entryDx=0;entryDy=0;" edge="1" parent="1" source="8dMVnXHlY2LH4FyuQO4U-1" target="8dMVnXHlY2LH4FyuQO4U-21">
          <mxGeometry relative="1" as="geometry" />
        </mxCell>
        <mxCell id="8dMVnXHlY2LH4FyuQO4U-1" value="&lt;font style=&quot;font-size: 25px;&quot; color=&quot;#6666ff&quot; face=&quot;Garamond&quot;&gt;Logistique&amp;nbsp;&lt;/font&gt;" style="text;html=1;strokeColor=none;fillColor=none;align=center;verticalAlign=middle;whiteSpace=wrap;rounded=0;" vertex="1" parent="1">
          <mxGeometry x="190" y="30" width="320" height="50" as="geometry" />
        </mxCell>
        <mxCell id="8dMVnXHlY2LH4FyuQO4U-5" value="&lt;font color=&quot;#67ab9f&quot; style=&quot;font-size: 14px;&quot;&gt;transporteurs&amp;nbsp;&lt;/font&gt;" style="text;html=1;strokeColor=none;fillColor=none;align=center;verticalAlign=middle;whiteSpace=wrap;rounded=0;fontFamily=Garamond;fontSize=25;fontColor=#6666FF;" vertex="1" parent="1">
          <mxGeometry x="610" y="170" width="60" height="40" as="geometry" />
        </mxCell>
        <mxCell id="8dMVnXHlY2LH4FyuQO4U-7" value="&lt;font color=&quot;#b5739d&quot; face=&quot;Times New Roman&quot; style=&quot;font-size: 14px;&quot;&gt;stock&lt;/font&gt;" style="text;html=1;strokeColor=none;fillColor=none;align=center;verticalAlign=middle;whiteSpace=wrap;rounded=0;fontFamily=Garamond;fontSize=25;fontColor=#6666FF;" vertex="1" parent="1">
          <mxGeometry x="260" y="170" width="180" height="40" as="geometry" />
        </mxCell>
        <mxCell id="8dMVnXHlY2LH4FyuQO4U-10" value="indicateur de performance " style="swimlane;fontStyle=0;childLayout=stackLayout;horizontal=1;startSize=30;horizontalStack=0;resizeParent=1;resizeParentMax=0;resizeLast=0;collapsible=1;marginBottom=0;fontFamily=Garamond;fontSize=15;fontColor=#000000;" vertex="1" parent="1">
          <mxGeometry x="-20" y="240" width="220" height="120" as="geometry">
            <mxRectangle x="20" y="220" width="70" height="30" as="alternateBounds" />
          </mxGeometry>
        </mxCell>
        <mxCell id="8dMVnXHlY2LH4FyuQO4U-11" value="suivie des commandes " style="text;strokeColor=none;fillColor=none;align=left;verticalAlign=middle;spacingLeft=4;spacingRight=4;overflow=hidden;points=[[0,0.5],[1,0.5]];portConstraint=eastwest;rotatable=0;fontFamily=Garamond;fontSize=13;fontColor=#7EA6E0;" vertex="1" parent="8dMVnXHlY2LH4FyuQO4U-10">
          <mxGeometry y="30" width="220" height="30" as="geometry" />
        </mxCell>
        <mxCell id="8dMVnXHlY2LH4FyuQO4U-12" value="visibilité sur les commandes" style="text;strokeColor=none;fillColor=none;align=left;verticalAlign=middle;spacingLeft=4;spacingRight=4;overflow=hidden;points=[[0,0.5],[1,0.5]];portConstraint=eastwest;rotatable=0;fontFamily=Garamond;fontSize=13;fontColor=#7EA6E0;" vertex="1" parent="8dMVnXHlY2LH4FyuQO4U-10">
          <mxGeometry y="60" width="220" height="30" as="geometry" />
        </mxCell>
        <mxCell id="8dMVnXHlY2LH4FyuQO4U-13" value="Délai de livraison " style="text;strokeColor=none;fillColor=none;align=left;verticalAlign=middle;spacingLeft=4;spacingRight=4;overflow=hidden;points=[[0,0.5],[1,0.5]];portConstraint=eastwest;rotatable=0;fontFamily=Garamond;fontSize=13;fontColor=#7EA6E0;" vertex="1" parent="8dMVnXHlY2LH4FyuQO4U-10">
          <mxGeometry y="90" width="220" height="30" as="geometry" />
        </mxCell>
        <mxCell id="8dMVnXHlY2LH4FyuQO4U-18" style="edgeStyle=orthogonalEdgeStyle;rounded=0;orthogonalLoop=1;jettySize=auto;html=1;exitX=0.5;exitY=1;exitDx=0;exitDy=0;entryX=0.5;entryY=0;entryDx=0;entryDy=0;fontFamily=Garamond;fontSize=15;fontColor=#B5739D;" edge="1" parent="1" source="8dMVnXHlY2LH4FyuQO4U-16" target="8dMVnXHlY2LH4FyuQO4U-10">
          <mxGeometry relative="1" as="geometry" />
        </mxCell>
        <mxCell id="8dMVnXHlY2LH4FyuQO4U-16" value="" style="shape=image;imageAspect=0;aspect=fixed;verticalLabelPosition=bottom;verticalAlign=top;fontFamily=Garamond;fontSize=15;fontColor=#B5739D;image=data:image/png,iVBORw0KGgoAAAANSUhEUgAAAXkAAAF5CAYAAAB6A1o9AAAgAElEQVR4nOydCXwU5fnHn9krm821SchBEhJykHALcioqCIqCqMiNtba2tbYetbWtR+vZetF6/7UetWqtcoMgCAKKgDeC3BBCyJ2Q+772nP/nnd3ZnWxmd2f2nN19vh/X3Sy7s++8885vnnne53leChAkfPDleKZxXCDhAIo8ImVCaXziRQGRJCjySDARO/6kNF7FijpeBJCggCKPBAIh48zdZzwZq2K+44kIu/uOkG2i+CN+BUUe8TWeirWr7/njAiAUb4Tc2b/54uKAIIJAkUe8Raw4e/Oeq2148zkQIaxiRd2b98S2DUEG4TeRr2nHcRmOZGkpMZa443vu/ha6HWfvefIZFk9dK56+5+5vZ9sm5xaeXGFOltZ30qyI9M5EXCNC1L352+l3Z86eK//DA4+lpw3NSImNjUtTKBQpcoViiEwmS5FRsgSZXJ4AAFqKohIoioqiKCoOAKIAQMNsiKISnFwQaJqmO6yvewFAR9N0F03Tepqm2wGg3WwydZhpc4fZbG42GY1NRqOxqbu7q6HhQl3Tqr//teHbr/aZnIg15fA3u0/cz1Ju/p0P5t8djwmKPuIKtOSRQTgRdjEiLvj10Iws6vV312Vk5+TmR2s0+VFR6lyKonJkcnmWTCYbRlHUUIkaI0aaputNJlM1bTZXm8ymaoNef76vt/d8dVVF2a9vXVLXUF9HOwi3N68dv8/3Nwp+mOBLSx5FHhFqrTsTdSHvM6/fW7stefyESeNi4+PHKBXKsXKFYpxMJhvFWt1hRq/ZbC42GY0ndHrdqb6enpPHjhw6/vMV17dad5N2eHb2npD3+b7DgKIfmqDII17jgbDzvXb63qcHfszLzsmdqlZHj5PJ5ePlcvkYq1Ue0dA0fcFkMp0yGg0n9Drd8Zrqyh/mXjahzNonjiLv7gIg5LUNFPzQAUUe8QgvhN3Ve9Sdv38g6pe/+d2U+ATtZUqlaopcLp9KUdQQPErCoGm62WQy/WAw6A+2tjR//e/XXvzh7ddf0rkQfU/F3wYKvrRBkUdEIcDHLkjM2efb7rhHdfcfHpym1SbNUiiVl8vl8skAEI1HxWf0G43GwwaD/kBba8v+l//55HcfvveWXoDoixF/BhR7aYIij7jF18L++bcnCofl5F6tUkXNUSgUlwNALB6FwEDTdI/JZPqyv79vb11N1e7Z08eWWH+YRsEPT1DkEafwiLtQVwz3mVpxyy+UDzzy1GUJ2sR5SpVqHkVRBdjr0sBsNpfp9bodXR0dO5575rFveKx8McLv+BrFXgKgyCMD8MBq5xX2+x58XP2LO+65KiYmdqFCqbyOoigt9rS0IbH+RoNhR2dnx0evvvDM5//+14t9IgUfrXsJgiKPMAi02l0KO/Gv//HBx6+OjY1bJlco5lMUhW6YEIWm6W6jwfBpZ2fH+qcevX/P+tXvOU7eeiz4KPaBBUU+wvFC3NkEJNn2vd9flpQ0ZIVCqbyJoqjESO/TcIOm6TajwbC1qalhzfVzpn/FSczyxq2DYh8gUOQjFBHizivw2z//Prto9Nhb1Oron1AUlRfp/RkpmM3m8r6+3g9Pnzj2wU3XXlZl3W0+0QeH9xzft4Fi719Q5CMMF+Lu1mpfsHCpctVLby6IiY27XaFQzAIAWaT3ZwRjNhqN+zo72v/zlz/e+cn2LRv0Hlj3KPYBAEU+QvBC3Kmtu7/JGjt+4s9VUVG/wExTxBGSeavT9f/3+NHD7y669vJq6z/Tbix8vmcGFHvfgiIf5ogU9wGvfzhdPS0lNf0ehUJxI1YZRQRgNOj12xoaLrw6fdzw71wIPYp9APGlyOOtu4Qg4u4g8JSLh4z9twULl6pOV7Ytr2wxHhiakbVPoVAsRoFHBKJQqlQ3ZQ3L+byq1XTgRFnz8iuvnqeyji8ZZ/zJ3IxHBp4xjAQZtOQlgAeWO/P3Q489o7ntjntujY7W3EtRVG6k9BfiX8xmc1Vvb8/Lb736wvsvPPt4jxOrHi17P4LumjDBU3F//rV34m9YtPxOtTr6LoqiUiK9HxH/QAqn9fb2vP7xprWv/fl3t3c6EXoUez+AIh/ieCruL7/xfsL8GxffpVZH34Ox7UigICtl9fb2vPrJ1o2v3XfnbR0o9v4HRT6E4fG5c1/zivuql96MW7T8lrvV6uh7sdQAEiysYv/a5nUfvPLQfb/tEuDG4U2qQqF3D4p8CCLQeh8g9LfdcU/UQ489c3t0tOZ+iqJSI70PEWlA03RLd1fn8y88+8SbnFo5Yvz2DCj2zkGRDyFEiLvt9fgJk+Rrt362NC4+4W8URWVHeh8i0sRsNtd0dXY8ddO1l39QUnzK5MJ9g2IvEhT5EMGJa8aVBU/9WFw3c0hq2iqZTHZRpPcfEhqYzeZjDfV1D04ZPewAj9AL8tej0A8ERV7iuLHeecV9z9fHCkYUjX5KoVDcELEdh4Q0JKnqzOkTf50/a/J5AWKPVr0LMBlKwohIZmIeJNa9rKH/8VFjxh9EgUdCGaVKdf34CZMOldR1P/7w3/8Zx5NQJSiZCgeBb0FL3kd4Yr2fqmhdFJ+gfZaiqGEht8MI4gLir29taf7rhBFpG9GqFw9a8hJDoPXOWjWyHfsO5VY0GzYnaBM/RIFHwhGZTJY1JCX1vxVN+i0fffpVHnf8C7DwGdCq9w0o8l7gpNYMOBu8pOzvuQs995FbWoVCMS+kdhZBPEChVF49ZfqMH87Wdv3x8llXqQS6bQYIPYq9d6C7xkMERM4MeHxzrGx81rCcN2Uy2YSQ2EEE8TFms/n4ubOnfzvnknFHXbhwMAIH3TXBRaz1ThKaSut7H8vOyf0KBR6JZGQy2fiiUWP3l9R1P7Zw6c1qgZUt0ar3ErTkRSDaej96fmxW9vD3ZDLZGMnuFIIEAbPZfKak+NQvr7p0/DG06geDlnwQEGO9k4Wyi2s6f5c9PO9LFHgEGYxMJhs1cvS4L85Utd+bPCRF7olVj90qDBR5N4hwzzARA5t27M/49nj5ttjYuFUAoJbcDiGIdIiKi094+nBx3cfvrd2WKSD6BlDoxYPuGheIdc+cLG9ZkKBNfIOiqGTJ7ASChAA0Tbc2NzXePbEw/WPizYl09w26awKAGPfMg48+HVvW0P+qNjFpAwo8goiHoqiklNS01efr+16978HHhWTLAlr1wkBLngcxAv/1kdIxw3JyV8tkskJJNB5BQhyz2XzuzKnjP7nm8omn3EzKhq1FjwXK/IST0gRORf50ZdvN8Qna/wMATcjtLIJIGJqme5obG+6eWDR0g1XEnblwwHGBknAQenTX+AEXpQkc/6Z+9dvfR5c36l6LT9D+BwUeQXwPRVExKWnp75670PPsJZfNUgmYjLX9jfH0A0FL3r17hvtatmXX15kTJ09bI5fLpwShqQgScRgNhq8+/WTLrb/5+bIGjtVudmHNh7xVj+4aHyLG/37oTM0laekZqymKSg+JnUOQMIGm6bqqirJbZkwsOOgm+iYshB7dNT5CjMCfqe74RfrQzJ0o8AgSeCiKysjJzd95srzlVxh5I46IFXmhi3uMGjNeUVrf+0xcXPxrJHkjiE1GkEgnSpuY9NK5Cz2rxk+YpBS4KAlDJAt9RIq8E4EHh8Eh+/uqV+J37j+8Vq2O/n2QmoogiAPR0Zq7tu7+Zs0DjzwVx802dzEhyxCpQh9xPnmhAr9h+xfp0y69YgsuqI0g0sRoNJ7Y99mni3++4vo6jp/e0V8Pjs+h4KPHiVcP4Qi8swgaxhrY+92pUSOKRn1EUVSO5HYCQRAbZJnBE0cPL7pu9tTTDgJvtn4mJCdkUeRFImaC9fuTlTMyMoeR8gSJktkBBEGcQtN0e1VF2coZEwu+dJM4FTJCj9E1IhAj8EfPNczPzMrehgKPIKEDRVHanNz8jw4X117PvSPHyBsLYS3yYgT++PmmxUNSUteQeZ0gNRdBEM9Rp6VnfHD8fNMtAhYLh0gS+rAVeRECLztT1X5LUvKQ/wKAKkjNRRDEe+RJyUNeP1XRehdH4CNe6MNS5EUJfHXHr+PiE94iAyRIzUUQxHdQCdrEZ89Ud/wZhd5C2Im8GIE/d6Hnvri4+Bf9OQGNIEjgiYuLf7S4pvNhFPowE3mRAv9IdLTmSRR4BAlPYmPjHiiu6Xwi0oU+XH3yLgW+tL73sehozUNBbiOCIH4mNjbuPk+EPpwIG5F3kejkaMH/Ra2OfiCITUUQJIBYhf6vYoQ+nKz5sBB5EQL/x+hozcNBbCqCIEEgNjbuwTPVHfdHotD7bScClfEqVODPVHfcYZ1kRcIUcqDlMgCFzP4sIw9q4MM2SKyvSc4jO1rNtMPDDGA0A5g4z2GxiGiE0tHe9sCY4Un/clHrZlBmbDCyYrGsgRWB5YJlpyvbVliX6sNJ1jCBiLVKDqDkPBQBui8lYm8w2R96k+XCgIQEdHNT428mjEhbLUDog1b+AEVehMAfK21ckDwk5UMAUPq1QYhfIaIepbA8WHGXEqzY64yWB4q+pDHV1VbfMnVM9napCn3Ei7yLcsFcP5vs2+PlU4dlD9+Bi22HJsQyj1YCqJUWYQ8liOD3GwD6DBbLH5EcuqqKsiWXTsjf50ToHatYMgRK6CO6QJmbevC293bsO1SQNSxnIwp8aEGEPS4KIDUWIC0OIF4degJPIG0mbSf7QPaF7FOg3EmIIKKG5eR+uP3z78e5WHAEHN4LycnYUB52fGLPHKxNO/YPGzt+4naKooYEsX2IQMiB0ygBhsTYhV1q7hhvUHIEn+wj2VecHAo+FEXFj584eeN7a7dlORQ0kzmKeyjP54WUyAuJpLnvwcdjp0y/bKNMJssOYlMRAZAImAQ1QHo8QKLG4m8Pd8g+kn0l+0z2XY7WfVCRyWQZs666dhPRjXANrQwZn7wAgZddctksxZote9YqFIrrfPrjiE8hlm1slMXfHukWLTlLiN++W2eZvEWCg16n23n9VdNvPnXiqMHNZCwEIrQy4iZeBUTSMFff0vreJ9Xq6Pt89sOIT2HcFlGWiVRkMGSithPFPmj09HS/VpQZ95BV3IXE0ftN6CNq4lVgqCR1qqL1NhR4aUImHJM0lglIFHjnkL4hfUT6CidpA09MTOxdx0obb3Oz4EjITcRKeii5iKTh/i377kTF9ARtImazSgwS2078zqlxFtcMIgzSV6TPSN/JIt2fFWCSh6T8c+93p6Y4egmcaE9IECr2glNrfsP2LzIzs7I/xFWdpEWMyhJNQnzvqFPiIX1G+o70YQyO7ECiKigc+b/nX3sn1c0kLITKRKxkRV5IJM2ym3+unjL9stUURQ0NYlMRDsTNkBIDoI1GK9QXkD4kfUn6FF04gYFE3Cxedsv7I0ePUwpdK1bKQi/JiVehE61lDf2vqKKifuWTBiNeQxJ+4tRoufsLckZ19QN06cJz/6RGMCdiw3riVehE68nylpUo8NKAsd5jLQk/KPD+g/Qt6WPS12jV+5+YmNg7D52pWRzqE7FSHiqOnWWz4r/4/vSoBG3iq0FqF8JBY40ICcXSA6EK6WvS5xr01fsbKi0947WP93w72s1ELEh5IlZSIi8wozUmf0TRGoqiooPY1IiHHIzEaEv2ZniucS9tSJ8z/R+N/e9PKIrSTJg09X/3/PEvcW6seZCqf14yPnmBfnjZ+fq+16PU6lt93mBEMCQVP1kTXvVlQhmSPNXSa1nQBPEP/f19awrSNb/h+OfN/vTPh3sylFO/14my5qUo8MGFdRWgwEsHpRxdZv5GrY5e+WNx3XI3fnlJxs9LQuR53DRcGCv+4z3fDtcmJr0SnBYiYE3SGRKLoZFShBwTcmww6cx/pKSlP//hpk/zeKpVOiIpt03QRZ6nIwaFSk6ZPkMxfuLkt0lp0CA1M+IhiTkk3R71XbqQY0OOETlWiO+hKCpuxhWz3xo5epzCcYEiZ5a8FIReSu4ap7c/H2z69PcKheJSCbQxIiHp9eSBhAZ4vPyHQqmcunnngfsEhFRKxh4Kqsi7cNPYOuqL709fFBMT+3AQmoeAJdsSLcPQgxwzLcaf+YX4BO39nx74cYKT+HkuknDbBE3k3bhpmMeChUtV+SOK/o11aYIDCc/DuimhCzl2iSj0/kA1cvS4N66+9voooZZ8MIU+aCGUDlY8b7jk2dquB2JiYh/1VxsR52hR4MOGHj1Ae1+k94Lv6erseHpUtnaV0LBKMSGVIR9CKcRNs+vLI4UxMbH3B6F5EQ/x56LAhw/kWKKP3vfExSf8cdPOAyMF+OOD6rYJuMgLcdOkpKbJikaNfY2Epwa6fZEOKTKGPvjwgxzTODyuviZq0uTpr2RmZSuk7LYJ5sSrsw6R7f+h+FcYTRN4SB2aeLyshi3k2Gowjt6nKJTKaTv3H/4FZxLWXemDgBNQkRfipln90e7MuPiEvwWnOyIXki2J0Rjhj1aDmbG+JjEp+fG3P9icKVW3jeQs+UtmzHwRk54CC1OLJgYLXUUC5BCTYy3HUsU+g6Ko2NlXz39eaDniQBOwQ+0mmoZ5HCmpX6hUqa4LVmdEImyWJJYqiBzIscbsZd+iioqa9/3JyoVCa88H0poPiMi72SFmx+++76HY5CEpqwLRHsQOcdHg7Xvkge453zM0I+vJn/3qTg1PqQNeAiX0AYmTFxITX1LX/ahGE/OAv9qDDIZMwpF68Ejk0tYL0GvAAeArujo7nh+Vrf2bt7HzIRUnL2Sy9aNPv8rVaGLu9XdbEDvEJ4uWHELGAC4l6Dvi4hPu/nDzrhFOXDZcAua2CfTh5fVRTbh4ytMYEx9YknBFJwSsK0zh3Zwvibpkxsy/8bhsgjYJ61eRd2LFD9jZb46VzVCqVDf4sx3IQEhSDPrhERYyFjBRyneooqLm7zt45nIXQs8SEGs+kJY8dweZ18lDUuQZmcOeDWAbIh5yax6H90yIA2RMoNvGdwzPzX8yMytb7mQSNqDWvN8Oq5CQyb3fnVqmUCgu9lcbkMEwCz9jvyAOUIAVK32JQqm8aOueb1a4CaUMSEhl0HzyC5feHJWYlIwVJgMIKVSlUkTM7iIiIWMDC9P5jtS0oQ/NnXdDdLB98v76Mbchk6cr234bn6B9zk+/jzhAEmDS4jDpCXGNmQZo6LI8I97T0tz0l4sKUv8FACYxIZWhWmrYJvT3Pfh4bFx8ApYRDiBkYg0FHnEHGSM4Ces7EpOS77vz3vvjBIRU+g1//JAzK962wvnZ2q77Y2JiHwvUTkY6ZEItNU56vvjSDh3squmAEy190K43QrJaAROSNXDjcC2kRmO5xGBBTMnGLgCjOTL339d0tLc9M2Z4Eru4iIljyfNZ9Iw170tLPlAibxP4J559Kf4Xd/zuDEVRiX74bYQHEhMvFc1s6jPCprI2WFvaCoebegEojl+AGTk0yCkK7hidAo9cnAGxSoz1DAZ9BoDW3sjbb39A03T7i6v+dtELzz7e7uC24RN6yYu8Wyv+THXHA3Fx8TjhGiCIRqbGBrcNfUYz7KjqhDUlrfB5bRcYicOXR9wdXxcmqGHbvELIwCLoQaGxG8BgisAd9wMd7W1Pjxme9A+h1jzn2Wt8bSa5teKnXXrFfymKwmCtAEHC4hRBMIaJjn91oRtW/dgAdx6ogfXnWuF8p44zoUcx/8Wr5DB3WALMyYpn3DU13XowWT/TojPC1/VdcMuIIYx1HwqYaRoONLbD86cr4D+lNZAbq4FMTWgmJsgpi0WPeE9UlHqcyWR85/tvvtRZN8YVcb9Oc/vyzBFixd8fFxePvvgAEQwr/mybDtaUtMH60jao7tbb/8E20mhQyCmYOyweVhQkwvycBIiS24dhfa8B7vyyEvbUdNqs+menDYO7xqQGdkdEcrazB9ZV1MOGigao77Ofx/nxGvhu3nRJt90VaM37jva21ifH5iY/F2hr3t8ibxP42+64J/Zvz758gqKoNB/+JuICUpMkEJ4O4mffcK4d1pW0wY9NfQ6J2/ZxOilNAzePSITF+VrGancGcefM23EOvmvoZraVFaOEk8vGSs6ab9YZYFNlI6yvqIdjrV2WN60XJntLafj0qskwKTk018EhFSrb0DfvE8xmc8uf7v7l2PWr3+sVIPQgNZF3a8WfLG/5tTYx6UUf/R7iBlJlMj3Of73E+NnLuxir/fPqbjCazTxVOQBy4lSwolALKwoToSCBPzaPWO/HWvpgRnosxCotUb2Hmnrgyo/P2rb10TUFcFVm8IVSZzbDpzUtsK6iAT6vawWj9Ty07K59XoHinJ+/KMiAVZOKgtNgH1DfBWDCSBuf0NzUeP+EEWlvBdKa92f+o034L591lTI+QXuPH38LcSDWD5mLxJ/+dV0PrDnbBlvOd0CX3nrmU9b/kTwOCiAhSg6L8hPg5qJEmJYew2tJ9BrNsK2iA9aca4UvaruYbY9NioavFxUxsdqTU2JgdGI0nG7rY4b5mtLWoIk8OcsONnXC2vIG+KiyGTqNBs4+UcwnaApAq1LCTdkpsGx4GuyqbYGXiyuZf91S3QRPTiwEZYgmKpCx1NEvgYaEAUnJQ+4aP2HSu8ePHtZzjGGa8+xzfDHq3Ga3Hjl7YWlKWvp7kXpgAw3xaqT7OLv1YH0v3LarGqq6+PzsxP9PwdycOFhZqIVrh8cP8LOzECHfV9sF6861wZbyDkboLdC2be1cUACXDbVMJLx0vAEe+aGO+XeNQgZlN4+HGGXg8vcquvthbVkjrC9vhIoeVuUGWusKioKrMpJgRW4qzM1MhiiZpX3ERz9jxw+Mu4rs2geXj4NrMoYErO2+hBw3Ys3zL2+BiKWmuvKX08cN3+RgzTvNgvVW/P1lyQ8Q+8TkIXf56XcQHqIVvs9uffXHZqju1NvNDeuLKekaWDlSC4sLtJCk5g/jOdXab5mMPdcOF3oMPOGT9ruAtaVtNpFfmp8Ejx6sA5qimAvCx5XtsLIgya+HvENvhI8qWxhx/765c8C/UWxbgYaJSXGwPDcVFuekQHLU4ImPovgYGJ8YB8fbuhgrn0zIhqrIk7FExhSuIOUb0tMzfgsAm51kwPr8UuqtyFM8zwMs+6+PlE5VKBRTvPwdRAQaP7hqcuJVtptKcmD/NDkVfjJSC/laZ352I6wvaYO1JW1wosVqBduGMWUT+mmpMZColsOnVZ2M0G8ua4fnL81i7gQyY5RwRUYc7K/rYr5MEqj8IfIGMw2f17XD2rIm2FnbBjqTydpcinNBoiBNrYSb81MZcS+Md7/SxtLhaYzIk37bWdcCnQYjxCtDs0IcKVyGIu8bFErl5F1fHplyzeUTDzqIPO0g9j5x5fhyxDlOuzGPoRlZ6IsPIKSEQZQfdGT5SC28/GOTbchdMlQzSOB7DWbYVt4Ja4rb4IvabmtMPD1o2OYlqGDFiERYWZgIw+NVUN6pt4g8UNClM8GOyg64KU/LfIWIukXkLa4eMkmb7qOQoaMtPYywb6hogeZ+g32ylLL62ZngILvQzx6aCI9cNFzw9hfnpMJjR88zsfM6MgdR0wQ/yR3qk7YHGlKhkowtLHXgG/JHFN0JAD9YXdq0g9CDL330vnBw8oo7eby3dluGKirqeh/8BiIQf1jxhLFD1DA22ZrUQwOsLW5nXppoGj6v6oY7PquB3HfOwK/2VDPRNmabGFDM54kr5/axybD3pgI4tnIkPDQ5jRF4Qm68Cqamxtg+v/Zcm+13bxieAGqZxQ1ELhrrz7eBN9T16uHFkxdg6tYTMPOTk/D6mQZo7jMybaStQ5ecFFcO1cJbMwrhD2OzgCZCT1OwrboF+kWEmaSqVTAzPcl2iuysafH2MAQVf42tSEStjl7w6turM53MZfLEqXmONzYfn7hzX1PTZlxxi58jeBAH/Fmjhljzp76qZ7wt2893wl+/ugAbStqhvsfIvGfD+lolo2B+bjwTQkkmZV1FlxCr/mBDD/N6T3UXtPYbIUmtgDiVHBYMT4CNRNwpGtaVtsLvxolLjOohdxhVbbDmfDPsu9BptdHB4pDhuGOGx6rgtsI0WJ43BIZGWxStqlsHL5ysYb5Bool21LTCohzhvvVb89Jh74VWxvWTqQnt8o5kbHVilI2vUFx51bU/A4CneQTe0W0D3lj23lwlHEVdxnmWDc8rUBw4dPa4TCbL8Xn3ILz4O8O1rtsAo/9TbJt45VYoAM6E7CVDY5jJ2EUFCUw4pRBa+01Q8L9TjH+c8MLlmXD7aIuY7qrqhCW7yqy/RcPBxaNgVKLrUgFkM/svdMLa8y2wpaINek3mAbHr3MlfVujnD0uENVcWDtrWtbtPwneNlknYuZmJsP7KUaL6bWdNM1zo18NPctMhSh7aa+xhBqzvMJvN9fNnTR5/8vgRnUOteb7YefBU5D0dcXxhk9y/YfVHu2ehwAcWF0mkPiEjVgkzh1mvItwaYzQw/vmHp6fByVuLYPfiPLhtTJJggScQdw4pdcCytqTd9np2VhwMYXeOpmD1uVan2ylu74dHD9XCqHXH4YZPz8Hq0lZLqKbNHQOglstgUU4ybJxTCP+cmsO4Y8iu7K5ph1adcdA2V+Sm2Ib43rp2xn8vhnlZQ5iEqFAXeAjAGIskZDJZ+lv/2zTPhbuG72/R+HLUDbhhT0/P+HmkH8RAE4gT8Ffjk23izvjZxyXD3mX5cOSnhfDAlFRLFI6HLB+RCKzfh7huyjosNWCIm2dJvr0y9YbStkErF22rbIcrthbDlE2n4cXjDVDHhoLY4j0BLk2NhVcuHQ6lyyfAe7PyYW6WFpblJTNuJfK75C5ic8Vgv/nCnGRQUZZzzUjTsKmy2Q89GxqgyPuW9PSM2/zli2fxRuQHWe/s69f+syZFFRV1nW+aiAiB6FQg1m+9viAe9q4sgM0Lh0PJ7aPg+SszYHK6+3BCIcwfHs9UpWSFnjsBS4qZMe/TALU9BqbCJUtzvxFu/bwCjjT3Wd6hrWGaQEFefBT8dWIGnFwyDnbNH1sMk5QAACAASURBVAk/L0yx/IaVxCgFXJ2ptf5FwZrzdpEnVTDfKq6Hmz4rBp3Zvt2tlc7vJFzxz5OVsHTfCfimscMn/RUMVH7IwYhkVFFRV7z69upsN5Y8eCP6nsiCs6uNrYGzr553M2l/RB+9AOOPsElnXJzmn0rRJDaelEN470wrI6brzrXDXyanM/82KVXD1L4hq0mReHpSDuGKDIvriBQuI2GKrNUeHyWDpXmJcPOIZE7UjnNW5A+BT6rbGRX/oakb3j7byLhldtW0M5Y7GwZKM9OnNMR6ULv5h+ZOePZEJfP6dHsPHL9xWsiUT3aEjDUsQewzZDNnz10BAP9wMgEL3oZW+iqE0vZISh4ii4mN+5l/+gNxRiBF3p9YXDaWHyjr0MPBBnsJRBJbb4GCreUdTJE0YKxxOczKsFdjmzQkBl6akS1I4AnXZmkhXmm/g7jvuwrYXtUOBppzXtHAfOa2wnR45ZI80T1AkqBo6/br+/RwoKHd7XekSriMNakQn6BdGRcXz2qxq3BKj/Bm4pV3gmDr7m+my2SywSEKiF9RhckqeTMyYiA7TmUTepIxy7KCcwFgwhkr7WUHluUn2USaJE1dEJGeydxBDLdm0nJjQWkK5EAxF4H/ziyE0qWT4MVpuZAeLf4mtShBwzzYSd715Q2ityEVwmWsSQW5XD5886dfzvDXBKxYkefb+ID30jMyl0utE8Md4iMNl6VQyWBaOsLqI6cBNp1vt4VVkrLF09Nj7BcAjs9+Ya6WKWIGrIiWikua+llhiv0emKZgQnIsrJqaDSXLLoZ1s4tgYU6S19ExK3LTbNvfVkOifkIzFpGMNfTL+5ZhOblLnFjuQbPkHRvANG7ONdep1Orohd42ChFHuFlWJDGKpbXPBHuquuz/xrpsaIDPqruYSVcCqU55XU6C9d8sdW7EQFw8H11dBH+fPAwOLhwLBxaMht+OSreHbvqAJcNTLPVwmBIQJvgkhDNg0Zr3LTExsddfctkstQtL3mPEiLy72Hhq1UtvzqEoKlmCfRjWhIsVz1KUGAUTh2h4XTaL8rWgoizDlqwgtfm83bdt99kDnGzph5OtfaJ+l9Srv3dsOozU+mdimWS8zkhLsJ0668ob/fI7gSDcxlywoSgq8flX/zPbHy4bX1jyth9NTExeKrneiwDC8YRbXqi1TXjuqOiETr3FtaGNkjMlEljf+WrOBWBOVhykcCxvrjtHKiwfnmqty07Bvvo2aOzXS66NQkCR9z0paelLXIi7x/giTp55vXDJSrUqKmqeRPorogjHE4745S1+Xwp0RppZiYrlZtadQ1NwuLHXElZpDaVcmp9oSwRfz5M0FWyuzx7C+PaJ0JtpCjZVNEmrgQJBkfc9anX01fOuX+TosmHxWOyFirxbV83Df//nlRRF+XFVUcTZgVGEfrb8IFI1CsYyt0AxSw6yzM2Ot5dMYOLp7f/GhGBahyVZoORAXZe7nwooJAxzflYy0z4i9OvKQ1PkyZjDuVffQlFU7F+fWOXKZQOeuGy8teRtj8TE5BsC1BcIhzAoh+KUFUVam1X+dV0vVHdbwiKZkMe8BJvPfs3ZdltkzMUpGii0LRhOSdNlw9TCAaZ9x1q74WxHr5tvSBMPcsIQN6SmD73eiVHt8TXVE4kY9IMz51yjwjIGwSEcrXiWBXnxoLGu6Uqs3vWcomVkkXDLPwBUdumZNWhZVhYm2S4A3KQpqUAWH7EvGUjB2hCdgOVZxhfxkuhozbUTJ09TuQinFN3rYqNreMsYPPP8vy4hs8N4gANPOFvyJO59YV6C7W+y4hTLtHRr0hRYhH4NZwJ2WYE9zr7bYIbtFQPXag02pODaDdn2mvQbK5olN3cghHAee8GCoqiEf77y7+kiXDZuEXKYnCVA2W4pUtLSrwm53gwTwtmSJyxnXTYAcLZNB8eaLGGRZPCtKNTaPreptB30VqUk4j9jqLWkAVnFqsSzgmK+hqwqRRYJX/5FMbx/rsG24lRNjy4ki5aF+9gLFplZ2XNFuGzcir2n7hruayoqSo0iHyRkYX6izcyKgfQYxQD/O8uKQntp4nadCXZX2idZV4ywlznYW9sNTX2D68QHAtLsbxu74HfflcGIDYfhtgMlsKumDYzW/bEsg0vBhhCMsgn3sRcsNDGxjjXmufjNXeM0qmbTzgO5WKsmeIS7X5SERS4vtLtfNpa0M+vKEkZoo2BSarStBDE3aeqmvARbnXiSNLWhNLAFwcq6+uGZYzVw0eajcO2np+G/JY3QaTDZFi7h1rknLz+qaAGdiPVjpQCWNvAPcrk8938bdhQKiWoU0gB3Iu/u9oAqGjnm6iD1BRIhJ9qyQnthsoZeI3xRba8lv7zQXplyZ3kndOgsSVMkxJLUp2egKVgfgCibDr0J3jnbBFfvPA0TNh+HZ47WQUWXztY+dh8mJsfBP6fmwufXjrOdTuQCQNaPDSVQ5P3H2IsunuXCH++IyyPhaYEy2w9rNDFzgt4jEUwknGjjU9QwJlltL3PAcdksGZEACmtddr0ZYDMnaWo5p8zB4cY+ONeuA19DiqftrG6Hn+47D3lrj8Dvv62A75kFye2nCvG9Z8Wo4L5xmXDoxgnwxfyxcHtROkwaEgvThsTZFjhZXx5aK06hyPuP+PiEK11kvorqeTETr4NuFUjopFKluizI/RHRhOi6E6IhMfPMoKMBtp3vhB6DxbWREq2AOWTdWZ4LACl/kMippMWNwPGWw809cP931TBi3XFY9lkpbClvA1J5geuOiVHI4ScFQ2D7NSPhxKKJ8NjEYTAifuAC5MvyUmyf31PbDi260FmNA0Xef6iiomZMnDxN6SLKRrDgi814HcATz7w0BbNckUCwlIi8Vcj7DGb4+Lw9LJLrs/+mrgequiz1YIhPflGBPaGKrDTlTaQiWXbw+WP1MHnTaZj18Vl4/XQjtDATuvbTg5xQczIT4D9X5EHZ8onw+ow8uCI93qkgkgXFlTJ7wTUSfYMgFEXFrHrpzSnWjnAm5F775F2FTjKP9IzMKyL+aASZSDGmMmOVcEWW3WJfxylzQJKmYpX2obyOY81zyxZXderh2ws9on6X3DF8eK4VFuwohVFrTsLjhy7A2fb+AROn3DVlo2Qy+N+sfFialwzRAmIMyRqzczMTbXcA686HjssGDXn/kpE57ApfhFJ6UmrY9rc6So2umiATKe4awvKRdot9X1U31PdYwiKJmN6Yby9zsJaTGTs1XQO58faVnNYKcNmQcPvPa7rg9i8qIe+Dk/CbfVWwv67LGu4ItlMhVa2Ee8amwUfXjLBY6jRAn4mGrRXi3ELLc4cw3yVC/0NzNxOZEwpE0tgLBtHRmqm+CKUUEl3DG7pz7YKbVHKFYoqb7yOIz7ixIAGirX4PszWckoWpcwMWoS1p0zETreyA5a4bSyZmdSZ+p82Ztn54+LsLMPLD07BwRxlT96aXLYlgjbknIZ1L8hJh0zUFULJyLDw9NYupQz8rI8H2++vKxIn8NVlaSFAprEJPvh9aE7CIf1BFRU3Oyc1XeBtK6aklTz3wyFMXUxTln9UVEMHQIZgO7ylxKhnMz49nfPNkMK7llDm4IjMWMmKs9WBInZsBSVNsbXoKOvpNsIuzNmxjnxFeO94Ml208B1PXn4WXjzUy1Sst2MMeLdslSwvS8My0TJibFc8IPstyssas9RTZV9sJdaLWmJXBwpxk2++tC5Eom0gae8GA+OVfev2/Y0SEUvLiTOSd3RrYfigtfeglodZp4UiknWcrRtoLk51o7IczLRbXBjHwlxXaSyBsKGlnJjIJ+doomJyqsW6BgvfPtDErSi35pByK3j8DD35TB8ea+xwW8QbIT4iCRyYPhW8XF4HaWqjFbKZ414+9MUcLGuYz1jVmz4ubQF2Rz9ayoaC8sx8ONkmrRDIfqPH+J2d43jTrjwgJpeQVfk8Tkym1OhpdNUjAmZ0TO2D1p3XFHIt9pCXMkqgPKWOwl5M0tZJTA2dXZRf8bFcV7KrqslwIOGqVqFLAr0Ynw96FI+Do8pFw/8VpMDYpGhbk2AulreMRebLG7IIcrc1nv+68uMSmS1LjICuGUyIZXTYIuXtNSJjqQtQF4S66xqn/R6FUTsWDEHwi7ZaZVHBcVJhgCaekLSLPVnAkCVNjk9U2oefGzC8mSVMyrvvF/pps87rh8bD6mhw4d+toePHyLJiSphnwu8z6sdbyCcdb+hj/vfVnmOSne7+qhl3VVjcQbVljll2xSgiUdQKWtt5NbK5oZRKtpEwoVs4MNVSqqGlu/PBu/fIeWfIfbt6VI5PJUsO9g0OBSDzRlo+yWMxkVNd1GeCbWntYJBOBY/23T853QrfeMnGarFbAVdmxlg9Z+2xSagw8f3kmlP5sNKy9djhcn5vALEjCx+ysOBiiVtguDv93ohGe+bEeJqw7A1dtK4F3ipstJRWsIk15kCy00uqyIULfpjPC7trA1tsRC4q8/5HL5RmvvPm/LDG1ahzhE3m38fGjx4yfLN1uiSwi8USblK6BgsQom5ivPcOpJV9kd9mQxUI+5pQ5WFlkj7Ihz+/NHQa/HpsMSWr3SxwRa39pPlvamIL/FbfC04froaxTN9CXT1anSo6B/87Ohbz4KN5tOWNEghomJltKJBOhl3qUDYp8YJg8fQbXayI6Xt6TevJUdEzMeAn2RUQSqSfaco7/feu5Dui3hjoOjVHCrGF2i52bGDVveBwToWNLqCoRZylzQzEdI28yNSq476J0OLRkFOxfWAQ35Xq2hs6KPPtiIqQmTqfe5NF2AgGKfGBISNBe5E28vNAqlAN+QKVUjZFul0QWIVad1mcs47hsunRm2Flmj0ZhLgBWASJJU2xIJEmaWlhgj2fn1qYXwqRUDYxOshdK05DaNCOSYdv8fDi9cgw8MWUoFGnVXu3ikrwkkIMlSofE8xPfvFQxR+jYCzRqdfQo60+68ss7xVUIpdN6CQqlcnRI9lYYIrHlSwNGToIKpmZobEK/juOyYZKmFDJG6JlwRm6ZA47L5jxJmmoQt4j2hmtzmYib/8zOhvJbx8Abs4bBrMw4nxXrSlErYXZGvC1KZ72EXTaROvYCjVKlGiVA0J1qtlh3DfWXJ1bFy2SyLEn3SgQRqZY8YeVou8vm84pua7EwSzjjdXmWWvIUPTDMckZGDGTFKnlXmhICWVrwkSnpsKwgkVmD1h/YYuZpgK/ru6G62/clkn1BJI+9QCKTyYbe++eHk5wIvWh3jdurxLXXLUR/vISIZGvqxkItEBc7GZhGEw0fnbVPsq4YZXfZnGrqh1PN9qSp5ZzJ2Y0lHZILVbwuWwsapWUymLkTKZOmy8ZJdQjED8y/YTHrIudLinJkwPtiV4aitIlJ6I+XEJFsTSWq5XB1bhyTLEDRNKw7Y7fKr8yOhRSNwib0XGueXRycDG5i/e+t6ubbfNAgdwgLsy2VKUnz14rMng0URunOCYcdKSlpY1y4bDyuXcPr5I/WaNAfLyHoCLfmV4xOtAn54boexs9OIIlPi6115sm/b+AkTY1KVjOrTbFCv6bY/0sDimVZfrKthHFxRx8caxE3d+BvyJhDQz5wRMfEsLorevLVWZy809sApUKJlrzEMESwRXV1Xjyznisr9Bs41jwbgUMeF7oN8GWN3WLn1sDZUdYJXXppXSlnDY2HoRq24BoFayRmzUfymAsG6ii1x5OvomeO5ArFKAEfQwJIJJ9wKjkFC4ssYZGMxX6mzWZhXpwWDYWJ1oQkUuaAcwFYUqgFNgWq30jDVk7SlBRgCq7lJdvO2Q1lrWCSUA0LFPnAolAqi2JiYmWe1LERU0+eevXfH6ZRFBUbIv0SMUT6CbeM47KpaNPDD3V21wY7AUsG8DZO0lR6jIJJmmK/x82alQrLWZcNUNDYZ4C9dZ2SaVukj7lAQ1GU5tGnnk93+FnR9eTdOvPHXnRxXqh0SiQh4aTIgDAtKwayE1S2omXrT9kFe8ko+2IiPXozbOeuDWt12ZDvfVnTA7Xd0lpEe1xSNFMBkxX6taXScdlE+pgLBuMuujhXRDkD29+iFg3RJiblhkyPRBBkQjGSLSuKFXOrxb61uB301vi+7HgVzMjU2EIm13NcNtcXxNtj3YmrR2TMfCBgrHlr+7ZXdTBrzgYbMtawpEHgSU5J5RrZXrtreGdwo6KiCkKnSyKLSLeslo1JtAxUGqCt3wSfccocLB2VaAmzBIAvKrqhqdeeNHV9fry9ls0Z6Yn8svwkoKynY6/BDB9X8ruVSI2b3gCFWUX6WAsWMTGxwwWUHR4EXzKU88galWpY2PRYmKEzRvb+FyRFwcXp0YzJS4R+I8fHTiZmyQQtEXqT2QybOUlTpGwxe3E43dIPJ5qktYh2hkYJM4fG2U7LtZzFSIiok0SphbtLIHvNjzBi3VE41ur/UMtIH2vBQqlSZXN+WnCEjajoGoVckRkqHRJp4IkHsNg2AUvDrnOdlvrupIpflByuzYu3++xP2y8As7JjIU1jWWnKUgJBehOwKwqSbDHz++q6YGtFG/zmywrIW3sMfrm/DD6v7QQTTUGnwQQvn7jg9/bgWAsOCrkiw/rDoiolCUmGsr2WyeUo8hKF+Ej1EX7yLRqtBQVFMWKtJ7Xki+0W+7JR9knWI/W9UNpqSZoii3Ev5iwNuLG4XVKhioQbhydy1pgFuGVvOXx4roWZSLadptaLwLaqDujy4wQNGWPojw8OCqUy00XdGo9XhrKZ/gnaREomk2W4+TwSRPojXOSHaBRwJVPmwDJoN5yyuzauyouDxChLZDxjsXOs+RWj7LVs6ruNsL+qh2/zAael3whvnGqCBTvOMbH8NqzRNmBt87RUexVMEiLqzG/vCyJ9jAUTuVyelp2T67jCjagQSscvDuCxp18gy/2pQrmTwh08AQGWcCZgv6vugZpOPfM+kzTFqTO/8Uy7LWlqfKolaYqNp19fHLwJWFJDfkt5OyzfXQ4FH56CP39TC4ebrH522n4+58ZFwUMTM+D40rHw2XVFMGtogu3f1vgx1BLHWFBR/uq3v08RsyoUcETenY+HKho5JiV0+yYyIHfpkV7je15hPMQpLcOamYA9xSlMNtrusqnq0MP3nLVhV3Di6UnSVG8AQxVti4F/WQP5/zsFP91TATsqOsDI+kWsywvGq+RwW9EQ2LOgCI4tHQN/mTiUEXum/flJNgv/wIUuqOvV+7ydZGxhElRwGTlmXBqnAW51G8RMvCZoE1HkQ4A+aeXzBBy1QgbzCxNsk6wbT9pdNpMzNTA8QWVx5zgkTZEwS5nVF9+rN8OO8/7PLq3o1MMzhxpgwtpiuGpLKbxzusU6WWw11GhLobVrs+Ph/dm5UPaTcfDKZcNgelrMgLObzCFEK6x38cxCKRSsP+/78sSRPrakQFLykCRrMwRPvip43uONwdRoYtJ4PotIDGLAxYlbPzrsWDouEdafaCWp4HCuWQdH63thQrolIWrpaC08900jiaaErcUd8OycTMaVkxWvhEuzYuDrmh6SQw5rT7fDkpFan3cNiWffVNoBa0ra4NsLPZxTlQKbL4kGuDhVAytGJMLSAi0MUfOdpgAnWvtgzbkWWH++DRqIAlMUq/LwQ5Pv5xX8cHOAiEQTE5vOM+HKPmjOsw3+0cODUqVCSz4EILfUJAJCJfjIhh8zcuJgaKwS6rstwrfxZBsj8oSlYxLh+a8bmPc7+02wp6wTrhthKXBGauAwIk/TsK+yCxp7jZCq8b4jyaIke6u74cPiNthR0Qk6sggAe5rS9lM2Q6OCFYVaWFmYCCMT+deKre81wPrSNlhT2gonW/ssbw7YFgUkJeDGHM8WEncGGVOR7gqUAtHq6CROM1zFytuEXuHwD06/pFAofDtqEL/Ro49skSeRJovHJMJr3zcyi4lsOdUGT8zJYMIl8xKj4OKhGvjxQi/j6l5/ss0m8jcWJsADn9WCzkyD2UzDpjPt8NtJQzxux5HGPlh7th3Wn2uHZuvShJYzzJKYRZ40ShnclJcAK4oS4YqMWN61YknS0/aKDlhb2gaf13TaQxgdxL1QGwUrC5KYuPqsGN/GSPSgFS8JlCqVUB22Cb1gKZDJ5Qkh2zMRBtGTBBp8trh0KLJ4XBL867tGZpS39Bhhf1kXTM+Ohd2lnYyAg3UCdse5Dhj+0klIi1XCRenRkBajhKpOvSUE80ybaJGv6zbAurPtsLq4DYrbOGuzcgRZJgOYlRUHK4u0cENuAiP0jpAmfn2hGz4saYOtZe3QzTWjbduiIDlaDkvyEmHliCSYlKLxy5EibenDqBpJIFcotELCJrk4E/lBQfZyFPmQgRiJxH8aG8G++VGpahiVEg1nmvqY/nj0s1po6jFCh87MGr42T0mPzgRlejOcJwlSlNUEogCO1fdBSasOCpNcdyQpGvZxaQesLW6HfdXdtjB2ihvSTgOMTlYzwr6sSAsZMUrebZ1r18HqkjZYV9IG1Yy7ieNetd4FqCiAecMTYOWIRJg7LB6Ufr6ak7EksfywiEUmkzlOFDlq9aAj5cqSH1j/gJKhuyaE6I5wkScsGZcIT37ex4zksmYdG4nITMgy3hLWa8I808z7zLyldQ6UPL9/rAWevHJwDiCxbvdXdTNlELaWdg4sDsaZAkuNVsDSIi2sHKmFi1KiedtJkp7IZOzqs21wuLHXvg0Ae2MAYGpqDPykKBEW5WlBG+WYE+M/utFVIxkUckW8k7bwCjwIcNfYaxLLZLhYSAhB5vZ6DcTnG7l9ILemsVI0ZddKCmBShgZm5sVBQbIakjRy6Og3QUW7Hr6s7IYDVV1g5nz+9cPNEKOSw0MzLMFlxS39TOQNKVl8occw0Gq3ni3RMgrm5cfDzaMSYXZ2LBMG6QhJetpV2cW4dXZXdTGTs7ZUXbBfJHLiVMxE7MpCLeQlBP6qTcZQJC8WLzVkMlkMT5OcCjyI8MlTQFF8G0ckTLcuckV+68k2+NvuWqtbxlJmeN5ILTx0ZQbkJ/OL5e+mpzIZss9/0wAfHm8Ds1Xon/u2gal1U9aug2ONlogWmrKoMXs3QH5gRkYMU9XyphEJEO/E0j5Y38sI+6ZzHdDOrdnLmZAl311UkMCI+yVDY4Q7X/1Aty7gP4m4gKKoOI5PXtDQ4IuJl3Ge2Ye8otlwUKFQFOIBCC2SNQDqCBP68y39MP/NYui11ntRKWXwzwXDYNG4JLffZdlX0QW3f1zF1Ka3lYkZ9ExBnlYFK8YkwrKRWshJ4I9oqezUM/76NcVtUNahH1B6hn0m1v6c7Fi4uSgR5ufGg1oe/FnzfgNAi/8rFyMiMJlMZTnJiunkJedh5jxosD8zD+HRNTKZf6buEb/SqYsskSdW9R8/qoQ+g5nRT7lcBu8tz4PL8+JEbWfW8DjYsiIPrl9dBl160wA/PSl0dtNILVMmYUoG/2nRqTPBR+c6YF1xO3xd12O/l2ZdO1brf8KQaFgxUgvLCrWQEi2tuNdOtOKliONtqFtrQCG0/gFZSDaceipSILVGSDJkdIQI/Z6z7XC0uges3hR4aM5Q0QLPMiY1Gv61YBj8dHO5za+/qEgLr84fBlE8ljapNfNFZTesPt0GO8s7mcqRtsle9k6ABsiIUzKiTnz2I91E7gQLMmawTo30kMlkYgczJcZ0iOD0mtCms99izUdC2Pw73zTaVocaNVQDv5rOX42D1GL/7FwH1HYZIFmjgDn58TAkZvAQv7YgHq4vTIBtJR2M0H9d3T0o/+A4SXo61QYbz3ZYlhak7KGTrPVPYuFvyI+HFaMSYeYw/qQnqUBbxwwSHqBwRwAkuq9HF/4hlQ1dBvihsssWRXPXZem8YrrtVBvc/0k141KxCDIFKgUF988aCndOTx30+Xunp8H2sx1AUzQ0dRvhYE0P5CVFwcbT7bD2dBsUN/fbLHY2AJ8tIzMzJ5YRdrJoeAxP0pMUIWMFSxhIFtGDSIzIR3jUdWjTRSJtVOGdBXuwvAtosyXenVSjvHrk4Py9faWdcPfmCibOnRViclUwGAGe/LyOccP8csrAMk0kE7YoWQ1nW/qZSJ3fbK+Ghh4D2HSQY7GTMgpFQ9SMv55E2pAaOqEE6Zcu9MVLFoqiYt0t3O2Iu4xXu31CUSjyIQw5ecktuJY/HycsOHOh17bG64TMGIhSDDZ6ntxdw1wILMJMwYhUNZS16MBAW+LpV+27ACsnJA8qNXDpsBgoae5nvtfQpWciayhOrlJyjAIWkwnUMYkwIS10O5mMEVzeL+Tg6rXbjFdBawYioQkpMkXi5sO1eFlzt8EWuZLLEwtf266Hc439toH98qIcuGlcEhy/0AsL/nMWTEAzJQ4O1/TA5bkD57fY8Eiuxa5UUHBtQQKsGJfIROP4u7yAvyGVJrEQWcjCFXinVSiRCKCtDyA1Ljyv4P16s80fr+ax4jv6jYw409bFvmfmWzLExw/VMKsutetMloJmvYOrcSnk1IAQyoevHAo3jtQ6TXoKNWjr2EBCBsGnsGAnPk3TON8eBpAJta4wPZJxajljxhMh7+Apm5iRoGLmJChrta1/fl4HNe16eGn/Baa0AbvGa452cFITibu3bBsgPykKfnpRctgIPIGMCZxsDU/EWPLkRo5/JQMkpOiyJkipwkejGDITVDZ3TWnD4FRNbbQCrixIgL0lHYztuuZwM6w+3Gxxv1j96wVJargoY3AFj7NWNw8pZJbtJLM1VCHVFXCyNTSgabpbbENDI6YL8TltveFXPnZcVozNGj9T1wstPYMXJX38umGQqFFY14C1WObsI1oug+dvzBkUgUTWUP2qosu27fEhPLHqCBkDbVi6IJQQfb8lRuRx2YAwgtyat4eZD3ZKbhwzqcz4zmmAdQebBn1mWGIUfPybUXD1SC1YbmQs7p1pObGw+ReFMClrsBW/+2wHtJDa7taLwex8Z9VeQ492dNOEPYLdNTRN91IUJbzCS++xgAAAIABJREFUEyJ5SBnZKL0lfj4cUCtlMG9sEmw90kLKpsJ7XzXAyqmpkOiQyZqlVcFbN+dDt84EFzoNTKZropO1XEmpghcO1FsndGkYm6aBkSnh4bUki4Hg4tyhhdls7hLbYMGWvNlsxpu6MIRY8/owqlHyyyuGWsqpksnXXgM8tqXCqVsqNkoOI1LUTgWe8NKBeiiut9zyEKG/85LBGbGhCDnm4XYnFwnQZrPoy7IYdw1OzYQhRP9ae8MnAaZoqAZWTrMIMRHlXSdb4ZlPqjyaf1j7YzO8sv+CrRbOlGExcP3o0F8gjRxrcswx5ykkYWPjBB8+R5Gnnbwm/pqeyOvPyICs/NPSEz4n/R/nDWN872AV+v9+XQ/3ri7lDavkQ2+k4dk9tfDAx1W2Sdl4lQxeuGHwpGyoYVnYHFd7ClVMJpOz6Bqn2u3Mkqcdnz3xBSGhA3P7HiYOuVi1HN74eSEkkSgajkU/97kT8Nb+C9Dawy/2JNt145EWmPvqKXjzq3pbPD3JZH1jWS7kSrQssBjIMQ4n91ykQQPdydnlQTrN1x2UQ90DvpWhSBCCrLS+999qdfTSSO/kcCcuCiA+TLIhyhr74NfvlEBtmw64qzmRwmQjMzSQnxoNWo0C2vtMUN2mg6M1PWC0ruzNlgomF4zXl+fDZR7WpJcSpC4NxsOHNl1dnetHDUu422FVKJOLlaGER9cYjcZOAR9DQn0Q6SyVKsOhLHFeajRsvncMrNpeBZsPNdtqzpCRf6a2F07X9drEnLYu2WS5FlhqI0zPjYNVC3Nsrp9QhqzVigIf+piMxnaxOyFY5M0mU0dkdWfk0tFvEfpwCK2Mj1bAU0vzYMX0VHj3y3rYfaoNjCaaqQ1P2VJdLT4dmrZY+VOHx8EvZ6TBnJFaCeyB95AwyQ4sShIWGAyGVrH7obCZLc5hjB1PNo6ELmyxqnCJoR83LBZeuLkAOvuM8ENZFxyr6YGGTj109ZtAJqNgaIIKRmVo4NL8eEgPo7IFROCx8Fj4oNP1tzjsjLt4CeELeff39zVHcN9GJEQcyAiKCaNSLcSynzMmkXmEO6RsMMbChxd9vb1tYneIL7qG98rQ29PTGNndG5kQkehGX27IQY4ZCnz40dvT7U7kB+m30GQour2tdXAhECQiIP5cXNg5dCDHCn3w4UljY30LJ3JGUGqLO5G3beTUiaNoyUcwJDIDsySlDZu9jFE04cv5c2f5LHmXp6VjjDxfrDwTJx8XF684U91BcrzDq5g2IgpS5TFZE94LgocipFRBS69lCT8kPKFp2jhtbE5OXW213kmcvGOMPPNwl/Fqe93V1UmbTKY6HD+RDRGRxm7MmpQS5FgwxwQFPqwxm831dbXVjmee81I0VsQUKKNNRmNtpHc0Yql70tyNZWqlADkG5FhgLZrwx2gw1Ir1x4ODyLv6IvO+0YQij1hgF35mwizRUR9wmBWd+uxhrkj4YzAaHD0prvTa9m9i1nglV5IaHEsIF2JJEjdBoib81oyVKsQ9Q5bswxWdIgtdf79H+usqTt7xtoDu7e0pjfSORgZDxKap2xK6h1al/6Ct4ZGkr1HgI4+e7q5yPl3m+XsAohbybm5qrIj0jkacQ0L3GrtwAtAfMBPeXRgeGck0NtSXebL7rMi7rX9A/nfsxx/KI72jEdcwVn2PJdsyXFabCiakD0lfkj5F6z2yOfrjwUqHDhCk29xoZ75YeceHvLrNXElRVOgX10b8DomlJ/XpY6JcV8BDBkMzi5hYLHe8WCI0TfcOS5TlceLjuTXkzQ715Ae4cIRkvA4YYiajsSTiexwRBBEnkl5P3Ax9BuwzoZC+In1G+g4FHgFL0Iuz+VC34ZSuRJ43yF5v0J/FXkfEQNwMJN2eJOz0o9g7hfQN6aNWjJxBHNDpdaxx7Sz5yanQiwqhJBvq7+s7q9HE4DFARGMwWVLvlXKLG0etRDcOWC134pYxYBYx4oTe7u6z7tZydYajyLNf5jv3mH9rb2s9m5Q8BI8F4jFEzIi1KpcBxKosC5NEWi0c4oYhOQbdesxWRdzT2Fjv6CYXlAgFLtw1TmMwD//w7Uk8JogvIOJG/M71XZbkHl0EhF6SfST7Wm/1uaPAI0I4evjgaU9i5IEnugacVKKUcSpSyqtaTWdlMhma84jPUcgAopWWhzJMMmjJnQtxyZAH+toRsZjN5rbsJPloh8gax+gaxwqUwD5z3TWOa73yrf3KbMBoMJxQRUVdiUcL8TVEBLusoYOs4BPffaiVTCClB/pR2BEfoNfrTvGFRjrg+J7g2jW8G+3v7zuJIo/4G67gE599lMLyIIIvNSufWOtE2Ik7hjww9BHxFX29vSecbEpQNUox0TW2W4D2ttYj8QlaPIhIwCCiybo8wJpoxYo9+1CIKtLhOeTiQ0SdfRBxR1FH/EVLc9MxN/53l6OPT+TdRtgcP3r4SPbwPDyoSNAgotpvtDxYKMoi9HLKErlDXstklgsC9wHsxJP1NSnbyw56st0BD7NF1MkEqYm2vMbSykggOfjtlz86/JzgyBrgEXJ3k69y9rmq1XRGJpOl4tFGEATxD2azuSk7ST6eZ8LVJGTSFcQs5O3wN23Q63/A44ogCOI/+vv7jvJY6KLuJR1FXshtALvm62E8tgiCIP6jq7OD66rhi5EHF8Y4g5CpKr4rCF1bXfktHlsEQRD/UVF+/ltvJl3BTcary/VeH77/niM0Tffh8UUQBPE9NE33r3riL0esG3ZXt8apZgv1yQ+6khw59L1Br9MdwmOLIAjie3S6/iMHv/tKzyPwgsoZsIh11wz4gd7enq/x2CIIgviero4OR1cNn7XukbvGWcrsoB+priz/Eo8tgiCI7ykrO/elk8gaMeUNnJbzdlwKkG85QHnRqLFRn31zvISiqHg8xgiCIL6BpunuOZeMG1NSfKrfzZJ/7ix9tytDuSxrefbMSUN/f983eFwRBEF8R19f77clxaf0QnTYXQ0bT6t92H6gs6P9Czy2CIIgvqO1pXm/2AlWZ7hbNMTx70E/eOTwwc/x2CIIgviOg998+YUTgRecBMXiatE1QX558qhoNnyrUChG4DFGEATxDqPBUDo8RXU5p0aNx/54EBgn79Yf1NfbswePK4IgiPd0dnaw3hGv/fEg0ifvNF6+vKx0Bx5bBEEQ7ykrLfnMF/HxLO7WyHfnsmFKD+fk5qu+PFxSLJPJEvEYIwiCeIbZbO646tLx4x1CJx1LCwt21YAIS95lHZvK8vPGvr7enXhcEQRBPKenu2uXQ+gkuNNfd4gpa8DnB7I1pK6mehseWwRBEM+pqizf4cLv7izaxiVi4+SdhfHQjz147wGapjvx+CIIgojHbDZ3//VPd+1zpbOc14IRuzKU43u2q8uBL/boent7PsVjiyAIIp6e7q7PDn3/jc76RWf+dkH1ariI8cm7DeWpqarYjMcWQRBEPJUVZZtduGZEh06yeFLWgNeSJ48//PbnB8xmcyseXwRBEOEQ3fzdr3+63/oFV5EzoksbeFJPHpxdVY4fPazv6en+GI8tgiCIcLo6O7a7KEgGLix3n0688l1RBon9+ZLijXhsEQRBhHP65LGPnFjwzqx5nyVDOX7OVR0bJjkqJiZWcaqi9VuFUpkf7sf4+1P1Hn0vMyUWslJjXX6mprEbapu64XS5xfs1OjdJ0PdYTle0QlePfsB7o4YnQXyMyuvvidlvIb/puL1pY9LdbrezRw9nKgZ6BuNiVDB6eJLtb7YPuQjpQ9Iett8J5POZqbEDti0E8vukjeSZhRxHd33C126hcLcdSmPAEU/7LhQxGgwVo7K1M/r6ek1uatU4JkGBELFXeNEnvFebnp5uc1tb69qU1LS/htWR4OGOVXs9+t69yybAbQtG8/7bu9tPw6Z9pQMGNxciNIuvLGAernh53dFBJ+KbD8x2K6BCvid2v0lbyT47Ozkdt+eqf1iIADh+j7SRtJVlz8EqeHn9UUHbJheNTV+UwrufnGZe80HE/uqp2bB4VoHLCwXpv3e2n3YphGQ708ek8x5HvnYLhXusQmkMsHjbd6FIS0vTur6+XmdZrKImWfkQm/EqaNZ3946t66xXIkQgxHpa8KePmZPbmcCD9XN/f/cg3Pzop8zrUICIJ9k3oe0lfUCELlAQUf/Nqr3M7zoTeLBal+QiTPaFHAO+40T2lQigO0uX7B/ZBtkW+U64I2QMRGjfmbdsXLNBYFQN8Py7WzxdNMTxBwY08IHf31Gn6+/3zMyNQMhAJaLtStwdIScLEaZQEXpWSIXuIzmJA7VvnvQjn7iw4iMG0h+hcgy9xdUYiNS+6+3tOfD3h/9UZ9VOPmuexWNr3huRBxdXHbqqsvx/Xm47IiBWi9jBzSJWOIMNaa/QfSWfffKdgy4ta19ALHNPhIK4ChxdNp4ex9uuc+2aCiecjYFI7buy0pIP3LhnvHLVgEifPG2dcOX+IOWscT9bdt3uL388VyuXyzO9aWCocfT9mwW3mAz4P7/61aD3id+SDF7ie2SFhAgRsR4dLUj2pOH6ooMB334TAXX0LZOLGrkoCZlAZl1T/7z7Mr/tEZ9byNFvT9pLPsedK3EUF/Lvjhckso9v3D97wL6Sz313qt52HPkuFnwImacINp6OAX/3nVQxmUwXfn3rkj2ujGU3rnFB+MKS52uYuaqy3Nje1vpByB6BAEAGq+PgJgL/xgOzmROaO4DJhOsjt01lHo58zxn4UoLsg7OJRaGQzxKh8Bd8VryjmJLjQN7b/twNTP8TwXUUF767Kb4JWnLhJtsg2yKvybbCGSFjIFL7rqWpcU1VRZmBq5suBN5jPC1Q5uo9WwO3blzzAU3TBm8aGM6QSA5HyMB1FarHRik4sjuAE5ViyErx3tIK9ESsq4k/0v9CLervXGyHCBi5Qwm3cEA+PBkDEdB3xk3rP/hQQBSNRwlQXDy15F3dStgejz54b31vb89HHv5GWOPsFlVIWBjfZ4gw+dt/HUycRbP4AxLhQX7P2wsLOSYkAoTciYTKvIlUCPe+6+7u2vnUo/dfEBg26VUYpTdx8iwuhb741Il3J029ZJkPfickcOVaIJYHK9B8A5fcggqBbIfELDtanORvodsIFK4sMjGQC9j9r37FuLJ8acGR/uITc+78B/kMubvizpE4Mm1sOsD6we+T40zuRMiDjbNntyUGMh/gqi9JopBU3RfuxoC/+06KHD747b95XDTgy/h4Fk9EnuZkwDq+HvS4ce6lh8obdYeVKtUkKXe6r3CVxDKNk8DBN/DF3NZO5xH5YFo8fC4Oso987ws5SYlgOfYl8Z+T9/jmJTyFuF7cWezk39kEJdJ28h1HlxorPq62xcbZA3vXNku464d8V+oWradjwN99JzX0Ot2PP1l0zWG+uUwX4ZN8rwXhbcYrN9qGL9KGNJqqrqp4M6+g8K2QPCIBJJQjBYRmQLqyhrmQE5iIuuOJT6xrcjEklqsvIAJD/LvEPSPE3cUKPrnQOLrN2IuPEDcPa6WSz/r67iRYeDMGIqnvysvO/dtB0M08ljzfa4/wNrqGi9MJ2EXzLv/YZDKV+/C3Qh4+oePWS3FHZ2/g/O+jRNZscQY5GcVY4eSzfJPQ5AQX01fuIKJDIjaEpN2zkIuCo4VKvksuGEJKB7CQCxlfGK3U8PcYCOe+40Lq1Ny28sYdzjwfnI967aZh8dSSFxMzTzc3NRob6utey8gc9pyvGi5VXPlFuQLC55qpEVGU6vuTg2+BudYtn1gJsVT5bq19YSkRsX74F1NFbYt8lnyHJHw5tt3T2i6ufovcPbDuG/YuwpWLhNRY4RMk8h55sPH1fHckXL63ujRciRu5a5jrws0Vx9OvoTgG/NF3UqKutvpNTtikq3o14KtQSl9MvLK4nID9w29/vnbNlj1/lslkaT78Tckh1E/IN9lEBrMQa9JZOjfX2iInlOPJQb7jyh/OJ2i+ciERkRJbxRE47hRPi8F5AukjNg7bWRIaCKjEyMbXg1VcmZj/T/ijRcidiSuhIkaBWCEL5THgy76TCiaTqemB39+xXkBEjU8mXFl8XbsGnDX46wN7dS1NjeiXt0IGu+PJw1ZCdAdfCjg5cbkXBz6fNV/y1YB/3zf4t4WePOQ2m33wiYi74l+uIG3wZ+SIq4goNglNyO+7svzZyKrVT1wbsLmXUBoDUus7f9DYcOE/X+77rE9k2CRw/vYIX/jk+cSe9/HMEw+9YzabW4LWyxKDr+4GORFcCT2fL5iwxGESkJyYjncE5ARz5uYg2+QTO6GWF3ubTR5EFPl+my/5SyjOMie9hfQ16RNSIM5VvwuZ6CXbcVdJlPRLpg8SxIQQSmNAan3na8xmc9sTf7nvPQFuGp/75n3truELpzRb3zevX/1e90OPP/tGJNSaFwIRLSIsjq4XIuQkg3Uut3ZNeavTOvNEAPmsLXIRcTyhye+RbZCLAnsSfufk5BaanOUIW3vH8bfJb7irxe4KYk2fKW/1aeVBVnTINk+/e9AWJsm902LEiad/uCLG9iu7n+TBhgZyLxDkOHqy2AyZrxHyPcdFUUJhDPi776RAQ33dv7dv2dDJE1EjJGzSK7wVee4ErLtwSos1//iDbz/36n/ulMlkiSF1lPzEP+6+DG5+7NNBt7HfO4kvdoScDM4q8TEXEZ4Lg9Bte+Mi4U5gcvGmmBoRDmf95QlccWFhXWabBGyP65Lgs1CZC4fAC5K73AFn8wKOOBYyC4Ux4O++CzZms7n9qUfvf1fkZCvwPHuEL0MouTi9DSHWfEtz02uSPioBhKm252GsLxF4V99lRdGTbZMT1NuT597lgwWCCIs35QLYuiW+wJt6P6RPWQFkqyp6Cl/BM18h9TEg5b7zFQ31dW9t2bimI5CTrVx86ZN3dVUacGvylz/e+bbZbG7wwW+HBUSs2cp6QiGDe/XfrnV78rIXAqF+VTaO2RcTndOcLNHmzSQs+HAilliTnoiE48WVtIccC08EMRAlhKU8BqTed95iMpmaH7rvt2/zuLAdrXpwoaFe4UufvCO0M7fNzm2bey7U1byYmZX9bCA6OhRgk0GIZbPbmlXJV8BMyBqjjpCTm5xI5HafbJvvNt3TbbuDnIiO+0IsN9IWb05Q8l3ip/a2xLJjbDzJP3DmJnC1vi4b6smN73ZWNI4ca6Y8wnWjAxdpI+ExIPW+84bamqqXP/t0e7cbVw34y4oHzkSpL7dFcR4ysD+Th5x9Hj32IvXO/Ye/ksvlw33YhrCCDPIzVsHxdRwwOaFqrclXoZJIEkiI0HRZRYYkGnkS4w8OxxCsuQxSScOX+hiQct8JwWgwVF83e+oVp04c7bcKvMn6MHP+djUB6xPh97fIOwq9nPv85eGSxbn5I97wYRsQBEEkQUnx6d/Nnj5mo4OgOz47s/BBiiIPYq35mJhY+cnylp1KlepiH7cDQRAkaOh1umOjcxIX9Pf3GV0IvN+tePBjdA0Xp5mwPT3d5iM/HnzMn/4oBEGQQHPo4Dd/7+/vMwnMbPUrvrbkQaw1T55L6rrf0WhiFuBIRBAk1CGrPo3Miv+VGzeNUyu+pp2ms7S+k+ZAWPLAcwUbsIM7P978BE3T/QFqC4IgiF+gaVq3cc37fxcRMul3/GHJg0hrnnl99FzDn4akpN6PQw9BkFClsf7CyxePzPiHm2gal1Y8eQ5FSx5cWPPM4947fvqqyWQK3JL8CIIgPsRkMtX+4a7bXnUi4M4iaPyOP8saAM9OOXXb7N+7u//8ueJHcdAhCBKKnD1z8m/7P9/Vy2OpO4ue4bXifY2/3DXgIm6e67IZNBF77kLP+9HRmmtwlCMIEir09HR/XpQZ9zM3E61mJxb9IJEPCXcNp8HurPkBV7yNa95/iKbpHn+1C0EQxJcQvfrwvbceFmDBOw2l9JcVD/605GvaaXI14lrzwDMBSzlOwJLnQ2dqfpM+NPNv/mobgiCIr6irrX5y6pjs111Y8CYn4g/ORD5kJl4drHngvHY2IcG8Xjh3xtsGvf6IP9uGIAjiLXqd7sSS+TPfdmHBu5pw9bsVDwGOrgE37hpbB9VUVxr37d31B5qmDQFuH4IgiCBomjbu2rH1vqrKcoMIgQ9oZA34213D4uC2ETwJa42d/7O/2oggCOIpjfUXXrp4ZMZzvpps5RKqcfIgdhJ25cKrXzHo9acC3EYEQRCXGPT64p8unf+yN5OtgSIgIu/G5+TMN28+c+q4bv/e3XfTNO39gp4IgiA+gLiRd+/8+N5TJ47qXVjsjiUMBuFvXzxLQNw1LC7cNi5LHhwurr0zLT3jMX+1FUEQRCh1tdXPTB2T/ZqLSBpXpQsETbaGsruGizuXja2Trp5x0Zu6/v5vgthWBEEQ6O/v++H6OdPfcOKmceeqCQoBFXknIZXgRuzp1pZm4+b1H/zObDZ34jBDECQYmM3mrjX/fft3DfV1RgHWOp+wByRk0pGAumtgoMsGxLptvvj+9A0jikb9219tRhAEcUbx6RN3X3Xp+C3euGlAoMiHtLuGZwcFu22unDZ6W2dH+weBbjOCIJFNR3vbWqvAe+WmCbQVD8HyyXvotmEe99152yNGg+FsEJqNIEgEYtDrz9/z61sec9QiqbtpWII58criVti5V81PP9nSu2vH1tuxiBmCIP6Gpum+T7ZuvH3v7h3dLqx4MYIfcALuk+fipIAZn29+kI9+/w/Fi/JHFL0exL5DECTMOXvm5L1zLhm3yY0P3pkvHjy14sMlhFKo28axA5nHzCkjP2pva303CM1GECQCaGtt+YAj8Hw+eD4LnktQ3TQsUnDXsLiauHC8NWL+/unS+Y/q+vsPSaP5CIKEC/39fUeWXT/7USduGSGTrUF307AEXeTdRNs4SxNmOvnIoe/1b732wi9NJtOFIDUfQZAww2QyNbz16gu/JmVVBEbROLXmg23FQ7B98lzcVKp06Z9fs2XPlMtmztlMUZTKX/uDIEj4Q+rSfLFn59Jbl113SIQfnteK90bgw8Yn7wR3t0CD3DcrF159qKKs9H4J7guCICFEWWnJXzkCL9Y9Iyk3DYtkRF5gkpSzjjdfPqlwbUtz06tBaj6CICFOU0P9v2ZOGbnGVcCHu/rwLFJw07BIypLnibZxZ8UPOADTxw1/ure3Z2cQdwFBkBCkp6d7zzUzL/6HK0NSQCy8JKJpHJGiu4bFmWU/aAKWffT19Zru+sXKu/Q6Ha4PiyCIIPQ63anbb1l0V2P9BYMTkRdSJ15ybhoWyYm8w1VQaEil7Wq759NtPa88/9RPjQZDRRB3A0GQEIDoxIv/+NutB77Y0+vCehdcn0ZqVjxI1ZIX4J/n63DbwXjpH39v3rJpzc1ms7klSLuAIIjEMZlMravff/vW/3v+6QYnwi5Ed2xIUeBBSiGUfLgoe+Cq9IEtvHLNlj2TL5s5ZwNFUdG+3DcEQUIbUpNm7+4dK362fMFhB2HnC5PkK1ngVz98uIdQ2nBS9sCd68b2NwmtPHn8CClmZgjibiAIIiGIHvz4w3e/4RF4Ida8oxZJHkmLvAN8Hcx3dR1w0ObNnPRZaUnx761XaARBIhvTyeNH7r5x7qV7BYZH8k20St4Pz0XyIu/FRKztgF05bfTm6qqKh4O4GwiCBB9zSfGpP82bOWmHgDj4kJ1odSQkLHkRE7F8B4rxsV0yPve9C3U1TwRpFxAECS40yWadPX3sRi988CEx0epIyLhrBCRKOYuft/09ZfSwNxrq654N4m4gCBIEqirLn7pictEHInzwzgTeLxOt/iSUfPJCM2Jd+ugnjcx8uamh/vkg7gaCIAGk/kLtC5delPemQLeMq8nWkBN4CDWRd4BP6N352JjHxKKhzzU11K+SzJ4gCOIX6i/Uvjx5VNaL7jTBhZuGJaSEnUvIiTzPRCz3tZCJWFboX6qtqXo8lA8egiDOqautfm7yqKznRAo8n/UeUhOtjoSkJe8k4sbxb7diP21szpuV5ecfxPBKBAkvaqorn546JvtlL8QdwkHgIZTdNQJDK926b2ZMLHjfGkdvDOLuIAjiG8yV5ecfmT5u+OseumdCNlTSGf/f3pkAR1GlAfjNmYOcHCGBBEQMSUQCGGBFdENINhgjoMWxKIeyCmytoCwoi5YWeG0pYLjVBBSPgAgoxuUSQuSSogJBjpCQGMHcIUKOSSZz9szWpJI46fTxuqeTme7+v6qpfu91T0+/7p4vf/553S3mnLxgop84LmZ/Qf6VxXBlLACIF7vdbi0qzP/3hNH3fQ6C/xNRSx5xe9gIo+iTHxl1+MqlC8857mnhpq4AAMATu91uvJyXuyhx/IjvBBB8B2IXPJKC5BH3oZW0B/6JxL/k/Hw6Z5bNZqtzY3cAAOCA426SJ7OPPj0l6aHjAglelEMl6ZCE5JGAop89Lenigb27plktljI3dgcAAAwsZvPNL3d89OS8mY/TPZdV1oJHUpI8ElD0L/9zfsnGde9MNZtMV9zYHQAAGDAYWnLfWLn0yTf/89ItEDw9Hn0/eT443YMe0dyHHud+9K2v5JSpfpu3Z2708/NPdUtnAACgRNfYkDV7WtKKq5fzjDjXxeAKHnmI5IW8n7zkJI+EEb2i7cEjCh8fX9W5Kzdf6xfSf4mbugMAgBO3a6q2TBh133qj0UCQJE7QCF9UgkdyemgIX2iuisVN3RDOU8fDwUcPC/3vb78WLbPb7Sbx7AUAkBZ2u91cfKNgRVz0wHUkwXf53opZ8EIjSckj7qJnfcWPjd57OufYdIIgatzUJQCQLQRB3P7p+JFZkx4avhf3O0sSvSwFj6QsecRN9FiynzP9sbxN695NMRmNF9zUJQCQHUajIW/DB29NmT8rNY8mWucid1kJHkk1J0+GQ46eLk/fqf5A7Givr78//lZw7z7Pur93ACBd7t7548t5M1Levno5z8TygypOekY0gocfXnniJHuy6BFJ8AqpX/p7AAALeUlEQVQ6wTu3n8wtnD40Mup9hULRy+M6CwAixmaztfxaVPBa4vgRBxiETtVO/r0NiTGChx9eeUIaR8+UsmFK3xDt/y5OHBfz7XffZKZazOYi0e0MAPBQLGZzyb6vv5hCcYsCgiVVQyX7LpG8wwNST9E4I6tIvh2K9A1VCgc7qk/4W4rv1u271gQGBc91X68AQPw01NftWTR/xppzZ37SuxC9kyN30eXfIV0jADzH0jPm6rPPXU0dFj18vVKpDPDozgOAh2Gz2XTXr11+PSU+7geWXDtV7l1yI2ggXSMALg6xpPq3kUh6OPbgzowtyUaj4bwodwoAuAGj0ZC74+ONKSnxcVkU497p6jBEEhPZRvLtcBx5gxXRBwX3Vh07e3lx2IDwlQqFQuu+3gGA5+K4uKmivDRt8qOjP9E1NhA8InjJDpGESF5AMCJ6phOOHHG0RvgN9XXWccMHfXwoa3+KxWy+LuodBADdgNlkKsza//XU8bFDPtI1NlgZ/kumiuCpvpcQwdMg+0i+HYaIHmHm6Smj+8ioGO2erOwlIf3DXlYoFBr39A4APAPH09eqqyq2zZvx+NaiwnwTy6g2qrw7VRSPpCZ4+OG1G8EcecP2o2yX8ief741OTpmapvXyGinKHQMALmI2ma4d/uHbV5csnFNAI2+6Ms6Pq5KK3kHy3QyPPD2V4Lu0DRo8RPvN/3IWhEcMfgUuoALkguPCpory0g0zUyd+VllRZuYgdbbcu2TTM5CT72Y45umdT0qqO+F1lMtKb5nGxw7JyNiWlqDXNx+T3I4DABJ6fXN2xra0pIdH3pteWVFmYvp+UHx/6L5rkH/nAETyDHDM0+OmcDrajpzKS465f8Rbao0mwmM6DQACYLVaq65f/WVN6qRxRxmuKGdqw4ncJSt4iOR7CNLlz0z/MpKvuqMbgdMpakmJj/txzvTHEmprqj90PG1e8jsUkDyO87imunLTrCcSElInjTuCGbHTRes4QyUhgmcBJI8B5oVTdBdqkE9o5yFixM+nc1oejB6Qlr71w4lNTbqDzicvAIiJpibdj9s/2pA4Jib8w9zzZ1tovgNU3wfci5wQWe4geHYgXcMBnukbtiGXnaaZ+4/EPfxowmqtl9eDHrsjAMAJo9Hwy7nTP703f1ZqLkUUjjuVdXqGDIyucSMk0SOG2xYz3eyMcert7aM8fPLCtHuHDlup1mgGSXJHAqLHarGUFxcVrJuS9NAPJqOR4CF4tnHvXeSOZJKeAcl7AAJE9azCHz5ilDb9i33PRAwe8rJKpQqR9A4FRANBELXlpbe2PT/nqV1FhflmGmlzFbvso3dnQPIeAs+oHlf0HeX4xMm+6zZv/0do2MDFSqWyt+R3LOCR2Gy2+uqqiu0rX1q481TOMT2DvJnEjntRk+yid2dA8h6GC1E9m/A7tSWnTPV7d/3WZ0PDBi5SKpV9ZLODAbdCEER9TXXl9tWrln1+9OCBZoZRZXwjd4jeSYDkPRAXono6qdNK3yH7t9dunhc2IHwhpHGA7oIgiD+qKst3vPHqkq9O/HgIV+5cBI8geqcGJO/BYEb1iEX0bFF9a3nkg2O9Nqd/NXPwPfcuVms0Q2S5wwHBsZjNpaW/30xfunDOvmtXLpkw5M1F8Aiid3ZA8h6Oi1E9bnTfUQ8MClbtycpOiYyKed7b22esbHc84BJGo+Fi8Y2CnbOnJR1uu787naz5RO0QvXMAJC8SMKJ6JKDsW1+f7v5+5PgJ8S/4BwQ+Abc2Btiw2+3WJl3jobOnTny6aP6MKyyyFkLuVFOQOwmQvIhgieqRk6ARpuhx6oplK98MmfPcoqf7hYQ+o1arB8r9OACdsVqt1bW3q3dn7kzfs3n9e7cZ5MwUxfPNuUP0zgJIXoS4S/YhoWHqnbuzJt0XFTO3Vy+/eISQSu7HQsYQen3z6RvXr+16Ye5TOX/U3raC3D0TkLyIoUnhIBrJI0zZM7V3tC1ftSb073MXTA8JCZ2p0WqHyv1YyAWL2fxbTU3V/m8yP/t249p3qKJ2nPQM27KIoYycyyB3dkDyIgczqkckWZPrTLJnm6f4at/hMbGjxzwVFNw7VaVSwZh7iUEQRF1jQ/2hSxfOH3hu9pQ8jJw5W3TONlKGNe+OQPDYgOQlgoCyb5c6YonyyfNRxKB7NFt37P5rZFTMND//gCSlUhkg9+MiVmw2W3OTrjH716LCrOUvLjh9s6TYQiNkW1ud7QdTnKgd5N4NgOQlhsCy5xTRO7+i7x+h/WBj+iNDI6NSAgKDJiuVymC5HxtPx3GrAV1jQ3ZJ8Y0jb65ceqZtXDvCjNxxIniQuxsAyUsUHrJHuALn+urXP1S9JSNzTFTMA0lBQcGTNFptpNyPj6dgMZtLGhrqT9wouJbzypLnL1ZWlFnaNo2L2Lm+EMi95wDJSxyBZE/Vxhbt070HvbN2y+CJiZMT+ob0f7RXL7/xSqXSX+7Hqaew2WxNen3z+Tu1t8/kHD98avWqZb8zRNfkdhupDTcFw/SDKtW0FZC7MIDkZQJH2SMXRY/z3ta28IjBmg82ZYyMjIqZEBgUPMbHxzcOpC8cDqkbDC2XGhvqLxbmXz33+op/Xa6sKCMPd0QcRM0nFcMmdZB7NwKSlxkuyB4JIH62daCAwCDVu2u3DBsVN25M334hY319e8XBw07wsVosZXp986W6u3cuXsw9d2H1qmXFusYGcgQupNzZ1oFA7u4FJC9TGGSPGASPOEobdx7delunS1e83u/xqdPHhoYOiPX18xvu7e0zXKVS9ZX7MXQMbTQaDfn6pqbrNTVV144ePHBh8/r3almkyiWlwlXodJ+HSEIHufcgIHmZw0H25KkrkT7bslTlTm3LV60Je2RiYvSAgRGRfn7+w7x9fIZptV5DpZjqcQxnNJtNJUaDoVinayypqa4sOnvyxI2099fUtC3CFj27EsGzLcv0uQjk7n5A8kArLsgesQiZLVrHqdN9Vpdtmbtgce/4Scnh4YPuCQ8MCh7k5+cf4eXtHa7VaMPVGk2EQqHw9rQjbrfbjY5nnJot5gqT0Vih1zdX1NfdrSgvvVV25mR2eebO9Pr2RWmmiIPgXa0zfRbVFIHc3QtIHugEheyRwMKnWgY3msf5bLrtbGXRi8v7PhA7uu+A8Ii+wb379PPx8e3j5e0drFZrAjQaTYBKrQ5w/DegUqp8FAqFr+Pum0qVyt/pAjCNUqn0bV+fzWZrcYxE7KgSRJPdbrfY7fYWwkYYCIJoJqxWndVqbbRaLTqT0Viv1zfXNdTX3amurKjNv/rLnYxtaXfb3k8+0ZmiYbaUDE4Z948B1TJMU6q+gNzdBEgeoAUzukc8hc+ljLMupu0gl3HqdMtxge7EpZM5VR0nQsaJsrmWmdZFtx1d+gJidz+ikDzgdnCje8QifMQga6Z5fNbF1oZbFxJX5E7VxiZhIZZn2xaqftC1ASIHJC8PuKZzqNq4TLm+B3ceuczUhjOvHSa5scmQTwTPNuWyLO7n4fQFkCAgefnhSoRP1cZ3irt+chmnTrccE0KmaZCAwue6LqYyXR8ACQOSly84YuRS5puC4ft5dHU6qJbDlR1XsdOV+aR2cJZnKjP1A5ABIHkAYQqfXHcl+udTpttOV1M17biSsiHXu0P8TGW6bWRqB2QCSB6gAkemrvwBYCpz/Sycdj4Ikb4h110p43wWXRsgY0DyABt8onyu9e6SulCRPNN8vpIXoo677YCMAckDXOEiXD7ydqUNd7vI8M3Nu9LmSlQOUgewAckDrsI1Jy6ExLmct0JKnm1ZIf8I4M4DAEZA8oDQ8E2huCL1nrwYist8vpE4SB0QDJA80BPgnGdCLcNnvXykivMeoZYBAN6A5AF3wvX886TzlaucQeaAWwDJA56MmM5PkDjgkYDkASnRE+PkAUA8IIT+D9Nh77phgRgIAAAAAElFTkSuQmCC;" vertex="1" parent="1">
          <mxGeometry x="40" y="120" width="100" height="100" as="geometry" />
        </mxCell>
        <mxCell id="8dMVnXHlY2LH4FyuQO4U-19" value="" style="shape=image;imageAspect=0;aspect=fixed;verticalLabelPosition=bottom;verticalAlign=top;fontFamily=Garamond;fontSize=15;fontColor=#B5739D;image=data:image/png,iVBORw0KGgoAAAANSUhEUgAAAgAAAAIACAYAAAD0eNT6AAAABHNCSVQICAgIfAhkiAAAAAlwSFlzAAAOxAAADsQBlSsOGwAAABl0RVh0U29mdHdhcmUAd3d3Lmlua3NjYXBlLm9yZ5vuPBoAACAASURBVHic7N13nJxndf/9zz0zO9v7bNFKWmnXKra6ZFmWJRd4qMZgAw6GhGBwjIMNGEh4QvKAk5BKnkB+hOBfypNCCDg4+RFCCabYuGBbcpFkS5as3rXSarW977T7+WMkW5ZVdvc6U3bn+369/ALMzpmj1e7c577uc50LREREREREREREREREREREREREREREREREREREREREREREREREREREREREREREREREREREREREREREREREREREREREREREREREREREREREREREREREREREREREREREREREREREREREREREREREREREREREREREREREREREREREREREREREREREREREREREREREREREREREREREREREREREREREREREREREREREREREREREREREREREREREREREREREREREREREREREREREREREREREREREREREREREREREREREREREREREREREco6XxthVwAyg9PR/FxFJpyTQBwwAR4GR7KYjktusCoAwsB54I3AdsAioN4otIjJRPnAE2A48DjwGbDn970UE9wJgBXAn8AEg4p6OiEja7Ae+DfwLqeJAJK9NtgBYB9wH3GiYi4hIJsSAbwF/TqooEMlLEy0AGoG/BH59Eq8VEcklMeDvgC8Ag1nORSTjJnIRfw/wz0B1mnIREcmGPcD7gReznYhIJgXG8TVB4KvAf6GLv4hMPwuAjaT6mUTyRvAS/38YeIDUL4aW/EVkugoBNwPFwCNZzkUkIy5WAISBHwK3ZCgXEZFsu5bU7JKHs52ISLpdqAAIkNouo4u/iOSb9cAQsCHbiYik04UKgD8EPpHJREREcshbgE3A3mwnIpIu53uu/wZSz8Au1R8gIjKd9QArgcPZTkQkHc4tAEqAHcDczKciIpJzfg68LdtJiKTDudsA/xBd/EVEzngr8N5sJyGSDmevADSTet4VzlIuIiK56ACwEIhnOxERS2evAPwOuviLiJyrFfjVbCchYu3MCkANcIzUEAwREXmt7cDSbCchYil0+j9vIw0Xfw+oDxdQFy6gwNMgQRGZCJ+xaIKk74/rq6O+T2ciQX8ymY5klgBXApvTEVwkG84UAB+yDNpSXMin5zTyrrpqGsIFlqFFJI8MDo9xqK13Qq85HIvxi+FhvjMwwIBtMfDrqACQacQjdcDPKQz2/XvAZ+fO4PMtMwkHdMcvIu72H+1mZDQ24dcNJJP8aVcXT4yMWKWyG7jcKphItgWAGzAa+vPVhXP44mWzdPEXETPVFZN7OlkeCPClujpuLiuzSmUhMNMqmEi2BYC1FoE+OrOej86qtwglIvKKyrJCvEn2EAWA36muZnHYbIOTyeelSC4IYLCkVRkK8geXqTAWEXvBYICiwtClv/ACCjyPz9bUWJ1nvtAmjEj2BYD5rkHe31hLTcHkf0FFRC6m2KEAAFgUDnOFzSrAAosgIrkgANS6BnlbpMogFRGR8wuH3W8w1heb7HSOWAQRyQUBoNw1yLziQoNURETOL2jQWDwrZLJK6fx5KZIrAhgMANLyv4ikk0UBUB002exUahFEJBcEeP2RwBOmIX8ikuv0MSXyWuceBywiIiJ5QAWAiIhIHlIBICIikodUAIiIiOQhFQAiIiJ5SAWAiIhIHpoaG/hDBVBVlfrPdItFobcHEon0v9eFFBZBVbX2V0r+GBtL/d75yWxnIpI3crcAKK/Ae+d74ZrrYW5rZt/b92H/XvynH4eH/hvszhO/sOa5qT/vmnVQo2mjkocSCfyd2/Geegz/5z+GeCzbGYlMax7guwY5dsNKqmzGbKa84S14H/s0lJqd4z15/b34f/OX8NyG9MQPBuEjd+O961YI6ImMCAAnT+B/5U9g98sA9A+OcuREn1PI50dHubejwzWzzcBq1yAiuSD3rjjv/QDeb38hNy7+ABVVeF/4U3jrTfaxg0G8L/wZ3i3v08Vf5GwNM/D+7K9h1ZpsZyIybeXWVWfNOrwP/2a2s3g9L4B392/hXbHUNu5H7obVa21jikwX4TDe5/4Qr2lWtjMRmZZypwAIFcCdnwAvd1J6jVAI7v6MXX4zm1PP/EXkwkpK8XPxpkBkGsiZq6139Xq8GTOzncbFtVwGS5aZhPJu+ZXU838RuShv7XUEGmdkOw2RaSdnCgDWrMt2BuNjledVU+TPK5JtnkfBNddmOwuRaSd3CoAp8pzPm9nsHqO4BGq11U9kvLxZs7Odgsi0kzsFQK50/V+Cb5CnX1JikIlI/giUV2Q7BZFpJ2cKAL+3J9spjItnkWdfX2rYkIiMi9/Tne0URKadnCkAOLQ/2xmMi2+RZzwGbUfd44jkifj+vdlOQWTayZ0CYOMvs53B+DzzpE2cqfLnFcm2eIz4M2maxCmSx3KnAHjpRfyXX8p2Fhf37NNw0Galwv/BdzNzxoDIFOf/+Pv4/W5jgEXk9XKnAAD4+6/ijwxnO4vzG+jH/6f77eL19+L/y9/axROZhvzjx+A/vpntNESmpdwqAA4dgC//MYzm2J3x4CD8+X1w8oRt3J/9CP7z27YxRaaLzg74k8+nfv9ExFxuFQAAm57B/917Yd/ubGcCgL99K/zOPfg7tqUn/rf/Cf7qT6CnKy3xRaakjU/i//bHoO1ItjMRmbYMz/A1dHAf/mfvhiuvxlt3PVy2EKprUucFpFssCt2dsHcX/lOPw7Yt7uclX4L/xC/g2Q1w3Rvx1qyDmc1QVU3qtGaRPBAdhc5TqT6gJx+FvbuynZHItJebBQCk9slvegZ/0zPZziQzRkfg4YfwH34o25mIiEgeyL1HACIiIpJ2KgBERETykAoAERGRPKQCQEREJA+pABAREclDKgBERETykAoAERGRPJS7cwBERHLPTOAvsp2EvCIOdJ/1z0FgB5DMZlJThQoAEZHxawR+N9tJyEX1AxtP//N/gJezm07u0iMAERGZTiqAtwFfJLUa8DTwG0BpFnPKSSoARERkOlsH/DNwGPg0EMxuOrlDBYCIiOSDWuCvgc3A9VnOJSeoABARkXyyHHicVDNnXl8D8/oPLyIieckj1cz5Q6A6y7lkjQoAERHJVzcBT5B6PJB3VACIiEg+Wwo8Qh6uBKgAEBGRfLcC+BFQnO1EMkkFgIiICKwHvpztJDJJBYCIiEjKx4F3ZjuJTFEBICIikuIB/wTUZTuRTFABICIi8qoG4L5sJ5EJKgBERERe6zdJnfw4rakAEBERea0i4HPZTiLdVACIiIi83m8C9dlOIp1C2U5ARGSqaGho4IMf/KBTjGQySd/QiFOMsbEx/v3f/tUpBoB3y287xzA30AfDQ+P72mQChnvx2/dA52HrTIpIHSP8F9aBc4UH+K5Bjt2wkqqQagkRSY/+wVGOnOhzivH86Cj3dnQ4xVi5ciVPPfWUU4xYPM7BE6ecYvT393HDmiudYgAE/mPQOYa5WAxvx4upi/sE+KcO4W/4Fv6uX2JwWTvjIDAPSFoFzCV6BCAiIrmjoAAiE9+F59XNJXDL7xN49+9DQaFVNi3AjVbBco0KABERySl+3QxSC9QT5y28nsB7/ggCQat07rEKlGtUAIiISG4pLITyikm/3GtZjXf1B6yyuRGYaxUsl6gAEBGRnOPXNTi9PrD2A1BcaZFKgNSOgGlHBYCIiOSeyurUSsBkhYvxlr/DKpu7ALPGglyhAkBERHKP5+HXuI3kD6x8F3gml7kIcKtFoFyiAkBERHJTpAG8yTUDAlBRj9e6xiqbadcMqAJARERyU0FB6lGAA2/lu4yS4VpgmVWwXKACQEREcpZf1+j0eq91DVS6xTjL3VaBcoEKABERyV3lFfhFxZN/vecRWPFOq2w+BEx+f2KOUQEgIiK5LeK2JdBbfiOEwhaZlAFuh0HkEBUAIiKS22rr3Cb7FVfiLbjOKptPWgXKNhUAIiKS24JBqIk4hTBsBlxEqiFwylMBICIiuc9xMqA3awlewzyjZKbHlkAVACIikvP84hL80nKnGN7ym4yy4VeAeqtg2aICQEREpoY6t2uut/jNUFhikUkY+A2LQNmkAkBERKaGqloIFUz+9eFivEVvtsrmHsDszOFsUAEgIiJTQyAAtW7NgIFVtwAO44Vf1Qy83SJQtqgAEBGRKcOPNOJ0AY/MwZu12CqdKd0MqAJARESmjsJCqKh0CuGtvNkoGW4EWqyCZZoKABERmVJ812bAhddDqdshQ6cFgLssAmWDCgAREZlaKqpTKwGTFQzhLTV7fH8X4JBM9qgAEBGRqcXz8GvrnEIEVr4LPJNLYAS41SJQpqkAEBGRqae2we0CXlGP13qVVTZTshlQBYCIiEw9BQVQ5fYc37AZ8FpgqVWwTFEBICIiU5PrMcGta6Cy0SgZ7rYKlCkqAEREZEryyyvwixxG+3oegRXvtErndqDCKlgmqAAQEZGpy3UVYPmNEApbZFIGfNAiUKaoABARkamrtg6CDpey4kq8BddaZfNJq0CZoAJARESmrmAAqt22BBo2Ay4i1RA4JagAEBGRqa3O8THArCV4DfOMkpk6WwJVAIiIyJTmF5fgl5Y7xfCW32SUDb8CuM0qzhAVACIiMvW5NgMufjMUOuwoeFUY+A2LQOmmAkBERKa+6prUcKDJChfjLXqTVTb3AEGrYOmiAkBERKa+QABqHM8HWPVuwLPIphkwO20oXVQAiIjItOBH6nG6gEfm4M1abJVOzjcDqgAQEZHpobAIKiqdQhhuCbwRaLEKlg4qAEREZNrwXZsBF14PpW6HDJ0WAO6yCJQuKgBERGT6qKqCcOHkXx8M4S19m1U2dwEOyaSXCgAREZlGPPxat234gZU3g2dyeYwAt1oESgcVACIiMr3U1ad2BUxWRT1e61VW2eRsM6AKABERmV5CBVDp9hzfsBnwWmCpVTBLKgBERGT6qWt0ernXugYq3WKc5W6rQJZUAIiIyLTjl5XjFzuM9vU8AiveaZXO7UCFVTArKgBERGR6ct0SuPxGCIUtMikDPmgRyJIKABERmZ5q6iDgMJK/uBJvwbVW2XzSKpAVFQAiIjI9BQNQE3EKYdgMuAhYbxXMggoAERGZvuocHwPMWoLXMM8omdzaEqgCQEREpi2/uAS/tMwphrf8JqNseB/gNqXIkAoAERGZ3ly3BC5+MxQ67Ch4VRj4DYtAFlQAiIjI9FZVAwUFk399uBhv0ZussrkHcOhMtKMCQEREprdAILUjwCXEqncDnkU2zcDbLQK5UgEgIiLTnh9pAM/hAh6ZgzdrsVU6OdEMqAJARESmv8JCKK90CmG4JfBGoMUq2GSpABARkbzgu24JXHg9lLodMnRaALjLIpBrEiIiItNfZRWECyf/+mAIb+nbrLK5C3BIxp0KABERyRMefsRtG35g5c3gmVw6I8CtFoEmSwWAiIjkj0h9alfAZFXU47VeZZVNVpsBVQCIiEj+CBVApdtzfMNmwGuBpVbBJkoFgIiI5BfXyYCta6DSLcZZ7rYKNFEqAEREJK/4ZeX4xQ6jfT2PwIp3WqVzO1BhFWwiVACIiEj+iThuCVx+I4TCFpmUAR+0CDRRKgBERCT/1NRBwGEkf3El3oJrrbL5pFWgiVABICIi+ScYgJqIUwjDZsBFwHqrYOOlAkBERPKTazPgrCV4da1GyWR+S6AKABERyUt+cTF+aZlTDG/lu4yy4X2A25SiCVIBICIi+ct1FWDxm6HQYUfBq8LAb1gEGi8VACIikr+qa6CgYPKvDxfjLXqTVTb3AA6diROjAkBERPKXF4Bax/MBVr3bKBmaAbPThi5FBYCIiOQ1P1IPnjf5AJE5eLOWWKWTsWZAFQAiIpLfwoVQUeUUwnBL4DuAFqtgF6MCQERE8p7rMcHewuuh1O2QodMCwF0WgcbzRiIiIvmtsgoKiyb/+mAIb6nZ4/u7gEKrYBeiAkBERAQPv7bOKUJg5c2ppkJ3EeC9FoEuRgWAiIgIpA4ICjhcFivq8Vqvssom7c2AKgBEREQAQiGoqnEKYdgMeB2w1CrY+agAEBEROcP1mODWNVDpNl3wLHdbBTofFQAiIiKn+WXl+MUOo309j8CKd1qlcztQYRXsXCoAREREzua6CrD8Rgg6jBd+VRnwQYtA56MCQERE5Gy1dRBwGMlfXIm38DqrbD5pFehcKgBERETOFghAbcQphGEz4CJgvVWws6kAEBEROYdf1wgOxwN4s5bg1bVapZOWLYEqAERERM5VVIxfWu4Uwlv5LqNkeB/gNqv4PFQAiIiInI9rM+DiN0Ohw46CV4WB37AIdDYVACIiIudTXQMhh27+cDHeojdZZXMP4NCZ+HoqAERERM7HC4DjKYGBVe82SoZmwOy0IVABICIickF+pB48h27AyBy8WUus0jFtBlQBICIiciHhQqiocgphuCXwHUCLVTAVACIiIhfh1zk2Ay68HkrciojTAsBdFoHOBBMREZELqaiEwqLJvz4Ywlv2dqts7gIKLQKpABAREbkoL9UL4CCw8uZUU6G7CPBei0AqAERERC6ltt7tAl5Rj9d6lVU2Js2AKgBEREQuJRRKzQVwYNgMeB2w1DWICgAREZHxcG0GbF0DlY1GyXC3awAVACIiIuPgl5bjF5dOPoDnEVhxk1U6twMVLgFUAIiIiIxXnVszoLf8HRB0GC/8qjLg11wCqAAQEREZr5o6CDiM5C+uxFt4nVU2n3R5sQoAERGR8QoEoDbiFMKwGXAxsH6yL1YBICIiMgF+XSM4HA/gzVqCV2c20XfSWwJVAIiIiExEUTF+ablTCG/lu4yS4X3ApBoTVACIiIhMVJ3bdj5v8VugsMQikzBwx2ReqAJARERkoqqqIeTQzR8uxlv0Jqts7gEm3JmoAkBERGSivAC4ng+w6t1GyTAHeNuE39/q3UVERPKJH6kHz6EbMDIHb9Ziq3Qm3AyoAkBERGQywoVQUeUUwnBL4DuACW0tUAEgIiIySb7r+QALb4AStyLitABw10RfICIiIpNRXgVFRZN/fTCEt+ztVtncBRSO94tVAIiIiEyWB36tYzPgyptTTYXuIsB7x/2+Fu8oIiKSt2rr3S7gFfV4rVdZZTPuZkAVACIiIi5CIaiucQph2Ax4HbB0PF+oAkBERMSVazNg6xqodJsueJa7x/NFKgBEREQc+aXl+CWlkw/geQRW3GSVzu1AxaW+SAWAiIiIBcfJgN7yd0DQYbzwq8qAX7vUF6kAEBERsVBTB8EJj+R/VXEl3sLrrLL55KW+QAWAiIiIhUAAaiNOIQybARcD6y/2BSoAREREjPiRRnA4HsCbtQSvbkITfS/molsCVQCIiIhYKSrGLy13CuGtfJdRMrwPuGBjggoAERERS3Vu2/m8xW+BwhKLTMLAHRf6P1UAiIiIWKqqgYLw5F8fLsZb9CarbO4BztuZqAJARETEkudBpM4pRGDVu42SYQ7wtvO+h9U7iIiISIofqU8VApMVmYM3a7FVOudtBlQBICIiYq2gECqrnEIYbgl8B/C6rQUqAERERNLAjzieD7DweiiptEglANx5vn8pIiIi1sqroKho8q8PFuAtu9Eqm1/nnAkFKgBERETSwQO/1u18gMDKm8EzuVTPAda9JrZFVBERETmP2vrUiODJqqjHa73KKpsPnv0/VACIiEwxnsus2bMlEzZx5MJCIahwbQY0mwx4G/DKcYMqAEREMijgcjd4WnGJyZQ46DtlE0cuyq9xPCCodQ1Uuk0XPK0WePuZ/6ECQEQkgwKe+/17KBQiXFjonIt/fI9zDBmHyqrUSsBkeQECK26yyuaVQCoAREQyyPM8CgocLgan1dTUuiez6cfuMeTSvABU1riFWPwWt8FCr3rDmf+iAkBEJMMKDQqAOS3uR8b6j31TjwEyxK+qdgtQHsGbtdQilYVAE6gAEBHJuFKXveGntbRe5p7IyCD+A/e5x5FLK6t0voP3rnijUTJcDyoAREQyrqykiIDjxWDFqitNcvGfeAD/v79sEksuIhjALylzCuHNW2uUTOoxgAoAEZEMC3geZSVuqwCrr74az+aZMP6Df4T/d/fAUK9JPDk/r7zCLUB5HdTOtkjlOlABICKSFTXlZU4X8NraCIuXLjPLx3/8WyQ/tRT/O1+EfZtgbNgstqT4rgUA4DWvNMiE+YBBJ4qIiExYuCBEVVkpPQODk45x0y3vZvu2rXZJDfbgf/8r+N//Sup/F5dBQJcJUwnH4UvxqEUWBUCL/mZFRLKktqKUoZFRovH4pF7/9ne8k7/+8v/L2OiocWanjUy+OJGcN1+PAEREsiQQCNBUV00gMLlHAVXV1bzn1vcZZyV5QgWAiEg2hUMhZkZqJt0P8OGP3kU4HDbOSvLAAhUAIiJZVlwYZnZ9LaHgxD+SG2c08eE770pDVjLNzVUBICKSA4rCBcxpqKO0aOIz/u/82D3Mmm2yPUzyR4UKABGRHBEMBphZV8OM2ioKQsFxv66wqIgv/dVfU1BQcOkvFkkpVwEgIpJjykuKaZlRT1OkmrLionE1CS5ZtpxP/tZnM5CdTBNl2gYoIpKjyoqLKCsuwvd9RqMxovE4sXiCZNLHx3/d19/7qU/RfaqDb37jX7KQrUwx5SoARERynOd5FBeGKS68dLf/17/21wz09fK9730vA5nJFFamRwAiItNIMBjkX//1X7njjjuynYrktmIVACIi00wwGOTrX/86f/zHf0wopIVeOT8VACIi05DneXz2s5/lJz/5Cc3NzdlOR3KQCgARkWls3bp1bN68mc9//vMUFk58xoBMXyoARESmuZKSEr7whS+wefNm7rjjDo0OFkAFgIhI3mhpaeH+++9n586d/Nmf/RmLFi3KdkqSReoOERHJM42NjXzmM5/hM5/5DIcPH+aJJ55gw4YN7Nq1i71799Lb25vtFCUDVACIiOSxOXPmcPvtt3P77be/8u+i0SiDg4P09fVlMbPpKZ5IcLSj2ynG4MAAv/rem51zUQEgIiKvEQ6HqampoaamJtupTDuxeBy/sNQpRn+/TWGmHgAREZE8pAJAREQkD6kAEBERyUMqAERERPKQCgAREZE8pAJAREQkD6kAEBERyUMqAERERPKQCgAREZE8pAJAREQkD6kAEBERyUMqAERERPKQCgAREZE8pAJAREQkD6kAEBERyUOhbCcgIiKSzxKJBN/6xj/zk//5ER0n2xkdHb34C3zf5H1VAIiIiGTJfzzwLb76l3/B2NhYxt9bBYCIiEgWfOF3PstDP/pB1t5fPQAiIiIZ9vX/9ZWsXvxBBYCIiEhGnWw/wTf+8R+ynYYKABERkUz6o/s+j2/UyOdCBYCIiEgGbdn0fLZTAFQAiIiIZMxAfz9jl9rmlyEqAERERDJk3/792U7hFSoAREREMqSmpibbKbxCBYCIiEiGNDc343lettMAVACIiIhkjOd5zGiame00ABUAIiIiGXXHXb+Z7RQAFQAiIiIZ9Ssf+LWcWAVQASAiIpJh3/rP/6KoqCirOagAEBERybDaSIQf/OwRInX1WctBBYCIiEgW1Dc08vCTG7j73k9TWVWV8fcPAXEcjwUeS2Z/prGIiMhU9LFP3MvHPnEvnadOsWXTc7QfP07yImcFjI2O8vf3/43z+4aAAaDaJUj7WIyGcIFzMiIiIvkqUlfHW2+86ZJf19/fZ1IABIA+1yCb+4ecExEREZHMCQDHXIN8v6PbIBURERHJlACwwzXIo939bOwdNEhHREREMiEAbLcI9IldB+mPJyxCiYiISJoFgCcsAu0ZGuW2bXvpicUtwomIiEgaBYCXgKMWwZ7qGeD651/mp529FuFEREQkTc7s//8f4B6LgAdHxviVrXtZVl7COyNVLCsvpT4coiCQG8cfisjUMzQcpT0adYpxNO6+Ojk8PMwLL7zgHCdTysvLKSkpoaSkhMrKypw5hlZyw5mfhpXAlmwmIiIi6VVUVERjYyMtLS1cdtlltLa20tLSwuWXX878+fNVIGRALB7n4IlTTjH6+/u4Yc2Vzrmc/bf9LLDGOaKIiEw55eXlrF69mmuuuYZ169ZxzTXXZP2wmukoVwuA9wDfc44oIiJTXklJCW9961t597vfzY033khZWVm2U5oWcrUAANgAXOMcVUREpo3i4mLe/OY38973vpdbbrmFwsLCbKc0ZeVyAXAN8BQ6JVBERM6jvr6ej370o3z0ox+loaEh2+lMOblUAJx7od8I/JVzVBERmZY6Ojr48z//cy6//HLuvPNOtm7dmu2UZJLOd6f/+8C2TCciIiJTRzQa5cEHH2T9+vV8+MMfZv/+/dlOSSbofAXAGHAL0J7hXEREZIrxfZ/vfve7XHnlldx7772cPHky2ynJOF1s0+dq4HGgNDOpiIjIVFdWVsZ9993Hxz/+cYLBYLbTyTkX6gF4/tlnePDb/8bhQ4cYHBgA/AvGSCZ9TnW4F1qXmvqwjtSUwGrndxIRkbyxdu1a/u7v/o4FCxZkO5Wccm4B8OyGDdz3ud+ms7Mz47lcqtt/A3ADoLN+RURk3J555hmuueYavvrVr5JI6KTY8/mH//117rnzw1m5+MP4tvtdD2gChIiITMjo6Cj33Xcfb3vb22hvV1vZ2f7rPx/k77/+NXz/wkv96XapRwA3AT8A9CBHREQmrbGxkQceeIC1a9dmO5WsisXjvLTnAG9YexWJhPsBVS4udmGfA/wMKMlQLiIiMk0NDg7y4IMPUltby5VXug+xmaqSyST3fuLj7NuzO9upXHAFIAQ8CeR3qSYiIubuuOMOvva1r+XlLoFYPM7MppkMDWW/te5CPQCfQRd/ERFJg2984xt85CMfIRqNZjuVjBsZGcmJiz+k7vTP1QL8UaYS8LwA4cIwoVCBSbzhocGsNlVclOcRCoUIBEPg+yQScRLx7D4DuphwYSGlZeXZTkMkrfzTv4vJRHJcX5+IxxkdHUlzVpMXCAYJNYFhWgAAIABJREFUBIMEgwUk4jGSiTjJ5Pj+bJn0ve99j6GhIR544AGKi4uznU7G7Nu7N9spvOJ8BcCXSONz/7LyCmY2zyFSV091JEJRkd1f/O4d23nphU1m8SYjFA5TXllDUVkZRSVlFJem/jMYChG4wHJXIh4nHosyOjTIyNAgo8ODjAwOMNjXQzKL22d83+c9v3Y7s1tas5aDSDr1dndy/MgR/HFeIGOxKL98+GdZLwCKyyoorahMfb6c/owJFxUTDIXwvNc/2fV9n0Q8RnR0JPUZc/qzZri/l5Es3o3+7Gc/4z3veQ/f/e538+a44Vwqds79SbkSeP48/97ZjFmzWXDFYuoaGq1DA3Bgz262PLcxLbEvJhAMUllbR0VNHRU1EUrKK8xiJ5NJBnu76e/upK/rFIO93Waxx6uwqJiPfOLTNM6clfH3FkkXP5nkxLGj9HSO/1S2RDzOk48+TKfBBLaJKiwuoTJST0VNhIqaCAVhu+N4Y2Oj9HV3pj5nTp0kOjZqFnu8rr/+en7wgx8QDocz/t6ZNhaNUltTkxMr1ede6L8HvMfyDSoqK1mx+mrqZzRZhn2NIwf38/yGpzL6DS2vrqWuaTY1jU0EjR5fXMrYyDCdx4/Sefwoo8NDGXlPgJKyMu74xGeIpKl4E8mk6OgIRw8cmNBdfDKR4OnHf8HJE8fTmNlrBUMF1DQ2Udc0m/Lq2oy8p+/79HefovP4UbpPnsjoCuRtt93Gv/zLv5x3BWM6icXjzJ83j1On3I4EtnD2mvQ84H4M7/6b57ay7o1vpryy0irk67S3HeOZJ3+ZkYt/IBikfvZc5i9fzYy58yitqCIQyFwXa6iggIqaCI1zWqmsrSMWHctIIRCLRtm9YxtLVl5JYWFR2t9PJF2GBvo5tHcvsdjEms+effqXnDh2NE1ZvVZRSSnNCxZz2dJV1DQ0UVicuZ3YnudRVFJKTUMTjXNaCRcWMzzYn5FepR07djA8PMyb3vSmtL9XNiWTSdpOdrD5ueeyncprCoAvkJr9b2Lx8pWsuOpqAoHxDBucnMGBfp589OG0D1MIhkI0zrmM+ctXU9s4k1BB9pepCotLiMyYRXX9DOKxKCPD6X2ONzY6ytGDB1i+ek1a/05F0qWvu5sjB/fj+xNriNu5fRv7d+9MU1avKimvYM7lS5m7aDmllVV4Wf49CwQClFVW09jcQmFJKSODA8RjsbS+5zPPPENNTQ1XXXVVWt8nm5LJJPMWLeU73/omY2NjWc3lzN1+CDgKmKzxXr5kGUtWrLIIdUHxWIxHf/Zj+nt70/o+kabZNC9cbPrMLR2G+ns5uGMrQ/3p/X6sWrued932q2l9DxFr3ac6OHH0yIRf1952jKcf/0VaVxhD4TDNCxZTN7M5be9hwfd9Th45wLF9u9K6IhAKhXjooYdYv3592t4jm84cBrRvz24+8J6bs3pOwpkC4K2kpv45m9k8h2uuf6NFqIva+MvHaDtyOG3xi8sqaFm0LGPP3kz4PiePHeLY3p1prdTf+b4PcOU116YtvoilU+0n6DjeNuHXDQ7084uf/A+xdO1V9zzqZzYze8GinFhVHK/o2ChHdu+g68SxtL3HzJkz2bhxI7W1U+jzd5zOPg1wx0tbuev2X2dkJDu7Ss48AvgUcLVrsOKSEq5941sIhs63u9DO3l0vs3fny+kJ7nk0tc5n/vLVFBaXpuc90sXzKKuspm5mM8MD/YyNpKc/YP/unSxYvJSyCrsdDyLp0NN5ivZJPLtPJpP88hc/ZzhNW+TCRUUsXLWWhubWC24PzlXBUIiahibKKqvp6+pIS6PgwMAAO3fu5Lbbbpt2TYHJZJLewWEA6hsa+fU77uTwoYMcOXQo4/MaznxndwPOhzZffd0NzJ7T4hrmogb6+3jkxz9My7JJQbiQy5auojJSbx4743yftoN7adu3Ky3Llw1NM7nrtz6Xl6M8ZWro7+3l6MH9MImf/x0vbmHn9m1pyAqqIg1ctnQVoWmw5S06OsK+bZsZ6OlKS/wvfelLfOpTn0pL7Gw5ewXgXE8+/hhbNj3PqVMdF/3cjsdi/PwnDznn4gH1gPPG1oqqKt5y0y1prdZ83+exnz1E9wT27o5XeVUN81ZcRXiadbkP9HSx98XniUXtm02uf+uNvPHtN5nHFXE1NDDA4X17JlX89nR18uhPH5pws+AleR6z511BU+t827hZ5vs+R/fu5MRB+wl34XCYjRs3cvnll5vHzpaLFQDj1d/fxw1r3A9UCgAm7ZYLFy1N+1LNnpe3p+XiX13fyOWr1027iz+k5hUsuvq6tDzOeOqRn3Hi2MQbq0TSKR6NcvTg/kld/JOJxOmZIrYXf88LMG/pqml38YfU1sHmBYuYe8UyML4GRKNRPv3pT+fE0JzpKAAsdw0SDAZpmp3eDtbBgQF2bHvRPG7dzGbmr1gz5Z7DTURRSSmLr76WknLbeQzJZJIf/se/j3uMqki6+T4cPXhg0l3qu7Zvo7/PdidNIBhk4aqrqZ0xvadpNjS3MG/ZlebbhJ966in+/d//3TSmpARIDQBy0jCjiYKC9E7D2/7CZvNmk8bmVlqXrJx2TSbnU1BYxKI16ymtrDKN2952jBeff9Y0pshknTx+bNKNeyPDw+zeucM0n2AwxBWr102PvqJxqG2cyYKVV5vPMPj85z9PT0+PaUxJFQDOJ73U1qX3h7vrVAfHjhwyjRmZMYs5ly8xjZnrgqECLl91DUWltoduPPqT/yGa5YEWIgN9fXQ5zOnf/uIW0/3tXiDA/JVXUVZVYxZzKqiM1HPZ0lWmjwM6Ozv54he/aBZPUgJAxDVIRVW1QSoXtm2L7Ql/lbV1tCxZaf68aioIhcNcsXodYcNTGAf7+3j6sUfM4olMVDKZ4PiRQ5Pq+Afo7UlNCbTUungFlbX5ced/rtrGmbRcscw05je/+U0OHTpkGjPfBQDnB8OlaTzG8diRQ3Sd6jCLV1JeyYKV6R1RnOvCRcUsXLXWtO9h4+O/YLC/zyyeyEScPN7mNPzqpS2bTBvNmhcsJtI02yzeVFQ/ey4zWpyfML8iFovx5S9/2SyepAoA59b3dO4F3739JbNYwVCI+ctXZ73hLxGPZ/SUrfMpKa9Ide0aiUWjPPvkE2bxRMZrbGSEHoebhJ6uTtNT/qrrGk0vfJPh+36qIMpy9/zs+YtMp6k+8MADHD6cvgmw+SYEOLdwp+vQio72E/R02w2YaFm03Pz594X4ySSDfT30d3cyPNDP6PAgYyPDr33G6HkUFIQpLC6hqLSM0soqKmvqKC4rz0iOdTOb6e/upPO4zSlnmzY8xXVvfuu03E4puavtyGGn69yel+0a/8JFxbQuXWkW71Ji0TH6uzoZ6O1idGiQkaFB4tGx10yUCwSDFIQLKSoto7i0nPLqGipqIhkZP+x5HvOWXclLGx4nPsETGM8nFovxla98ha9//evuyQkhwLnrJTo6RkmJ/T7zPS9vN4tVN7M57dtwfN+nryt1lnZPxzjO0vZ9YtExYtExBvt6XrkQh4uKqG2cRaRpNiXl6R2327JoOYN9PYwajDwdHRlmy7MbWZuBsyBEAPp7ehhx+NkdGhwwazD2PI95y1en/cIaj0bpbD9G5/GjDI1jy2IykWBsZJixkWH6OjtoP7wfPI/yqhoiTbOobZxJMJS+XVzhomIuW7qS3Vtsdgt9+9vf5gtf+AKNjSZn1+W1IHAHqWmAk9bQNJOKSts95n09PWzb8rxJrIJwIQuvXEsgkJ6lf99P0nXiGPu2beLk4QOMDPY7PU9MxOMM9nbTcfQQ/V2nCBUWUpymlQsvEKCkrMJsFaDz5EnWXHdDXmytlOzyfZ+2QweJxyf/7H/H1hfo7uw0yaehuYWG2XNNYp1PdHSEY/t2sf+lLfR2tBMbG3WO13vqJO1HDhCPjlFSVpm2c1yKSstSKxSDA86xEokEkUiEdevMTq/PqLPPApissbEx/vUf/z/nXAKAc4ed9eAMgIP79pjFal64OG0Vbn93Jy89/Rj7X9pichd9roHebvZseZadzz/tdKdzMRU1EbPVkb6ebvbtStNBTSJnGezvY3Rk8h+kiUSCIwdsOv8LCguZPf8Kk1jnSiYSHNu3i61PPkL74QPm/UPJRIL2wwfY+tQjHNu3K20H0jRfvsSswPi3f/s3TQc0EACcZ7l2GDbQQOqO+ujhgyaxyqtr09KNm4jH2bdtc1ovzGfr7+5k+4bHOHFoX1riz7l8iVmRtG3TcyZxRC6ms73d6fXHjx4hZnRsdvOC9NxkDPR2s+3pR2nbvzvtJ8UlEwna9u9m+4bHGR6w39ETLixi1jybmf779u3jqaeeMomVzwLALtcgXac6iBk0eJzR3tbG2Kjb8tYZcy5fahLnbEP9fWzf+Hhaz8M+n2QyyZHdO9i95VmnLU/nUxAupKnFZk757h0vMTaanfOtJT8MDfQ7H9V75OABk1xKK6vScpNx/OBedj73FGMOqxyTMTI0wI5nfknH0UPmsRuaWyky6hf75je/aRInnwUA5/XaZDLJof12d6aHjQZyVNU1UFph25vQ393JzuefYnR4yDTuRPSeaufl554kanyRbWhuIWQw0jkei/HyVvtzG0TO6Oly2x00NjrKyRNtJrnMbF1oEucM3/c5uGMrR/e8nLVl7mQyycGXt3J410umWwk9z2OG0Y3G97//fYaGsvc5PB0EgI2A89/wvl02P6zxeIwTx2wa0ppaF5jEOaOno51dmzeajgudrJHBAXY8+6Tp3UEwFKKh2XkyNADbX7Cd3ihyRjKRZKDPbS78sSOHTJbUi8sqqK6360b3fZ99WzfRceyQWUwX7YcPcPDlraYx65pmm0wiHRkZ4YknNHvERQDoBJw77oYGB9m/2/lpAqdOniRh0ORSUROh3HAGd393J/u2Pp9TJ99FR0fYtWkDsajdHP7GOa0Eg+6NOocP7CcWtXssJHJGf28PyYTb72H7cau7f9vjfQ+9vJXuk7Y9Va46jh3myB67WQleIGA2KOnnP/+5SZxMslhQScRNGkGTZyb4/NQi2vatWxhxXBq3WpZrmN1iEgdgdHiIPS88l/YmnMlI5fas2fnloYIwNTNmOsdJxOMcNnwsJHJGr+NwMN9P0nnSrYEQUn0zNY1NznHOaDuwh45juTnl7sTBfaY9AXUzm00msv70pyaXrozy3Rfc6ew8ZZAJg2cKgB9YRIvHYjz71C+dtqlY7CgIhgqoMlqWSyaT7Nv6PAmHvcbpNtjbw9E9O83i1Rk1NO3fbZeTCKQeEQ4N9DvF6Dp1yqT7v3bGTDzPZgrqQE8XbfvcV1DT6fCulxgyOu8jGAxRXT/DOc7Ro0fZtSu3v2/nSjiuXgHs32uyTX7gzE/vk4B7SQx0dpxk08anJ/XakeEh+vvcf8BqG2eaHfZzbN8usx/6dDpxaB/93TYDTcqrayksLnGOs3/P1PrFlNw31O8+SMZq7r9V538ikdpSnOv72pPJJPtf2mz2GNTq+/fwww+bxMmUsZh7D9ljj5j8mdvPXCXjgNmeiiOHDrBp49MTXpY+5XCW99kiTTZDbUYGB2g/ZHtEaDod3PGi2WOKiMFgoFPtJ5y3aomcbchgklynwedMcVk5pRVVznEA2vbtNt/Rky4jgwOcOGzzmVhZW0dBYaFznC1bthhkkzljjqtPhw4e4NGHTXofdp99m/xPGBwMdMah/Xt58tFHGJ3AD3ZfT7fz+4YKwmbNf4d3vWT2bD0TRoeHOHnEZoBSVZ3NI5STRs1WIgCD/W7L/wC9Bp8zVXUNzjEg9TvbbnRBzZS2/btNGo89z6Mq4v59fPHFqbPl2AeGRif/vUskEvz5F/+AuM1OtJ1nFwD7gP+yiHpGx4njPPI/P+TwOMdt9va4be2B1PI1BnPoB/t66OsyabTIqBOH9pqMCi2trDIZ29neltlhSTJ9xaNR5wvP0OCgye6UipqIcwyA4wf25PzS/7mSiYTZyqjF93Hfvn0MDk6NlcaR0bFJ9wAkEgn+9A/v4/lnn7FK56lzH5R/CYOZAGcbHR3h+Q1P8vCPf8iRQwcuusXPYgWgotbqF3OvSZxMi42NmRzs43meyTneKgDEypDB4ySLzxjPC5j8bkRHR+nM8DRRKyePHjRpjK6oqXOOkUwm2b7d7uTYdJrsIUBtx47xybvu5Pvf/T9WqYwAG8+9xXsBeBD4Vat3OaOvp5vnnvolBQVhGmfOpK6+kcrqGkrLyygoCBOLRRkdcX8OVmlQUcaiY/SesulHyIZTbUeoNziVrKKmzvn7YLXfWiRqMB68t9d9lbGssspkVkbniaM5NVdkIhLxOF3tx6mfNccpTrio6JWTAl1s3bqVtWvXOsVIt7FYjMGR8f0Mx+Nxujo72fXyDh575GEe+tEPzM6tOO3nwNj51spnkTofwGZgcwYFAgFWv/mdzkfRth8+kBqBaWjp0qVcffXVzJs3j6qqqtRfcFcXO3bs4Omnn6atzfZCuezaNzkfIZwaezy5HR0i01VDcwtzr1jmHGfb04+aHI97RklJCevXr2flypXMmDGD0tJSBgcHaWtrY8uWLWzYsIGxMbuhYeXVtSxac61znH1bN9HVrhuFDLsV+N75ythjwB8Bf5nZfNwVlZaZnEPf03HCIJuU+vp67rzzTubPf+3EsHA4TElJCbNnz+atb30rTz75JN/5zneIGk3P6+1op9hx2pZrASEyHRWXljvHGB0eMr34r1+/nve///2Ulb32d7aqqoqqqioWL17MzTffzLe//W02b95s8p4Dvd3EY1FCBWGnOMVl7t9PmZAO4MeQGgV8Pn9FajbAlFJU4n7BSiaTDDrOGT9j7ty53Hfffa+7+J8rEAhwww038Hu/93sUF7vPyAbo73ZvYCwoLDI7v1tkuigyKIytZnYA3Hrrrdx5552vu/ifq7Kyko9//OO8/e1vt3lj32fAcSojYHY6oIzb/wLG4MIFQBL4MODeMZNBFnesQ/29Jl30lZWVfOpTn7rkL+XZ5s6dy8c+9jGTVYyBXpu/OosPO5HpxOKCNdDjfuEEuOGGG7jpppvG/fWe5/G+972PVatWmbx/v8Gfo8hgRUXGrRP42zP/42Lj8g4CH8RwNkC6mZwwZbQsd+utt1JVNfFBIcuWLWP16tXO75+Ix02GixQWuU8EFJlOCi0+Z4bcP2fKysq47bbbJvw6z/P40Ic+RKHBEB7X5j2w+X7KuH0eeOWH71Lzcn8KfDqt6RiyWK4eHXb/ga6srGTdunWTfv1EKvqLGTH45dQjAJFXBYMhkzkjowbn2L/hDW+Y9CND18+oM/QZM6VsBP757H8xnoH59wN/kpZ0jAUMfpBiBl2yK1ascDqLoLm5mdpa933GsTH3bVP65RR5lcVnTDKZNNlD77qMv3LlSuccYlH3zxgvEDA7u0UuqA/4EOes6I/3u/4HpHYG5DSLvbkJgxGLM2e6H6drEcOil8HieyoyXVgUxFYnizY1uR1FbPUZYzHJ0KKwkgvygY8CrxvfOJGy64vAbwHuV5U0sThfOpl0/+NNpPHvQsrL3RtjEgn3YsbieyoyXQQCBp8xBoV5OBwmHHbbfmfxGQO60ZgCfg/47vn+j4muu/w1cDOp5YScY/GDaLEUZTGXemDAvUnIpCAy+J6KTBcWNwgWv5fRaNR5ZojV/Hx9zuS0L3ORmT6Tudo9BFwFPD/ZjNIlaXDHa7HEd+KE+yAhixgmj0QMvqci00XS4BGh1d1ue3u70+uPHz/unEMgGDTZtmz1WERe4QP/D/C5i33RZG939wLrgT/m9ECBXGDx/L4gXOQcY+vWrU7Pxdra2jh1ymKQj/s2H4vvqch0YfVYzeJGw/UYXItjdAvC7p8xfjJJcoqeiZCjBkid5/MXl/pCl/XuGPCHwDLgJw5xzFj8chaVug/56O7u5rnnnpv063/yE5tvp8XIUhUAIq9KJBJg0PRmMbX00UcfZXSSByQNDAzw9NPu53xYDArTZ4ypTcCVwH+M54st9l7sAd4BXA88bhBv0ixOC7O4aAJ897vfndQztl27drFx40bn9w8Eg4QL3VczLIYJiUwbvk/UYHttsUGjcH9/P//93/89qdc++OCDjBicvmoxfXVMnzEWeoFPAmtJrdCPi+XmyyeBN5KqPr4BTO7gYwcWU6lKK6pMGgG7urq4//77J1ShHz9+nL/927812VZTXlVjMrDEYtCHyHRi8TlTXuU+5wPg4Ycf5rHHHpvQa370ox+Z3GSAzZ/D4vuZx3pIbdG/DPjfTHCXXjr2eJ0AfgB8DXiJVDNCA5D2mbKeF6Bh9ly3GIEA/d2djI241y9dXV28+OKLzJ8/n8rKygt+ne/7PPfcc9x///0MD9vUTfWz5lJe7fbLGRsb4/iBPSb5iEwXZZXVlFVWO8UIhkKcPHLQJJ9t27YxNDTEggULCF2kt2BoaIhvfetb/PznPzd5X4C5i5Y5NzX2dJwwPRwpD8SBX5C68P8m8DAwqWWUdG6+HAIePP1PAFhKavfAcuByYBbQjGFhMDo8mHo+53jnWxVpMPuBbGtr44tf/CJr1qzhqquuYsGCBZSVlZFMJunp6WH79u08+eSTHDhwwOT9zqiqa3COYTGvXGS6sRgXXlRaRlFJKaPD7iOBAR555BGee+453vjGN7JixQpmzJhBOBwmGo1y7NgxtmzZwhNPPMGQwQjiM8qqakyaALXKeFGDpG6q9wAvA788/U+/RXD3NWIbZaQKgp2ugZZd+ybn51LRsVFefOLnJkvx51NQUEAikUhb52tJeSVL173BOU774f0c3rXdNcxOUjtGRHLB50gNRpm08upaFq251jmRtv27ObZvl3OcCyksLGTMYLT5hcy9YhkNzS3OcbY99QuLIuB3gX90Tia39JJaQU+bXBm/NAjsAk6Selwwaf3dp5wLgHBhEZWRenpPnXSKcyGxWHr3vNbNbDaJ09dlsgqymdRzKpFc8KxrgMG+HpKJhPMAnEjTbNr2707bjUY6L/6BYJDaGe6jhKNjo1YrABvQ58yE5doJDM4bU62W7pta5pvEybRQQZi6We4FgO/7DPSYfC9fsAgiYsT559FPJhno7XZOpLC4hNpG94toNtTPmkuowG0UMUB/l/u8E1J3ydssAuWbXCsAnH85+7s6TfbpllfXOjfRZcOMufNMJo0N9fVa7c9VASC55DDgfPXu7za5cNHUusBkkl4mBQIBZsydZxLL6IZtL0bPxPNNrhUAzisA8ViUwf5ei1yYc/nSKfXLWVhcQuOcVpNYvZ0mjz98DP5ORYxtdQ1g9XiwuKycesedS5k2o2U+4SL3GSO+79Pb2WGQkT5jJivXCoBNFkE6jx+1CENpRSUNs92bXDJl7hXLzE7vM/oe7kfP5ST3OH/ODA/0Mzxgc9M5e/4VJmO7M6GopJSm1gUmsfq7ThEzGKqE0XUjH+VaAbAf2OcapOtEm1mH/ewFiygpv/Ae/lzRMLvFZOsfwEBPl8kcBOBnFkFEjJlshLe60QiGCpi3bHXOrzZ6XoDWpatMBqWB3fcPfc5MWq4VAAA/dQ0Qj0Xps1nCJhAMMm/ZlWZ31ulQWlFJ8+VLzOIZ/mLmxBkRIuf4JakDU5x0Hj9q1sFfURNhRo43HjcvXJSaMGogmUjQ0+F2muFpJ0gNnJNJyMUC4CGLICePHrIIA6Se0y1YeTWeUeVrKVxUzIKVV5tV5fFYjK72NotQo2T5bAiRC4gCj7oGiUXH6OlwP7b7jNnzryDSNNssnqX62XNpnHOZWbxTbUesjhr/MWneKz+d5d4VLXXRcF5/7uvsYKjPphkQoLK2jtYlK3Nqma4gXMjlq68hXFRsFrP98H6r7v8nSE2DFMlFJqtTbfttR2W3Ll5BZaTeNKar2saZzL1imVk8309y4pDzk94ztMroIBcLgBFgYqdbXECb8Rz7yIxZzF+xJiceBxQWl7BozbVmpxdC6lhOq/nkGK3kiKTJQxjcOQ4P9FntmAFSZ5EsXHl1zswHqJvZzGXLrjS98ek8fsyqxygKPGIRKF/lYgEA8C2LID0dJxgZtN0eWl3fyOWr15lsg5msipoIi9deb3IW99lOHj1IPBa1CBVjnOdRi2TJUYweUR03XgXwAgHmLbsy1W2fpRVHz/NoXrDYfNXT933LA8Z+gPb/O8n+rez57QXuweCgoNHhIfPnaoVFxdQ1NTMyNGhyMMh4eZ7HzMsW0rpkJcGLnPo1GbHoGPu2bsK32T3xfVJHQovksjjwXtcg0dERSsorKC6zW43D86israO8spq+7lMkExM65dVJYXEJC1atNRn1e66TRw7SdeKYVbjfJrVzTCYpVwuABDATWOsaaGxkmJIy419OUrsDIjNmUVpZxUBPt9Vz8wsqr65lwcqrqZ0xMy19CIde3mrZM/F/Y7CdUyTN9gKfAJybaAZ7e6ifPcesGfeMopJS6mfNIZlMMGQ04OxCPC9A45wW5q+4iqKSUvP4segYe1983uom4yjwadQA6CRXCwCAY8DHLQIN9HZTP2sOgYD9H7e4tIyG2XMpCIcZGei36mx9RWllFS2LltO8YFHahoUM9HRZnPp3xjHgXvSLKbkvDswG1rgGSsTj+L5PZa19A18gEKQq0kBNYxOJeJyRQdtjur1AgPqZc5i/YjW1M2aZFzFnHNyx1bKI+SpGvWL5LHda2s9vIwarAAANzS2mnaznk0wm6ek4QefxY/R1npz0HuFgqIDaxplEmmal/TyCZCLB9o1PMDJk9qHyR8AXrYKJpNlyjEbJel6AxWuvo7SiyiLcBUVHRzjVdpTOE0cZdThJr6S8gkjTbCIzZlFQmN6ept7ODnZv3mgVLg5cBhyxCpivcr0AuIXU82QT81esoaZhhlW4i0rE4wz0dNLf3cnwQD8jQ4NER0de93VeIEBRcQlFpeWUVlRRURuhrLI6Y9vVP5RKAAAKbElEQVQND2x/gVNtZr9HQ0ALYHNSikhmPATcaBGoqKSUJdfcQDBUYBHukkaHh+jvOsVAbzcjQwOMDg2RiL/+uPFQQQFFpWUUl5ZTXl1LRU2EwmLnFqtxiUXHeGnDY8Tsjif+N+DDVsHyWa4XAB7wHLDaIlgwVMDSdW/I2A/++cRjMZKJOJ7nEQiGzJv5JqLrRBv7tpmO0f5L4HctA4pkwNXAM1bBahqbmL/8KqtwE5ZMJknG4yQSMYKhAoLBUPaGmPk+OzdvtDr2F1L9YYuB3VYB81ku9wCc0Qm83yKQn0wy2NtDpGl21gb6BILB1C9lKJS2Z23jMTI4wJ4XnsX3bc5MIHX3/wE0/EemnjZSjxpNzrgdGRygIFxIWWW1RbgJS91cBAkVhAkEg1kdXnZ03y7L0eIA3wH+0TJgPpsKBcBu4N1Ao0Ww6NgoI4P91DSmp5t+KoiOjrJr0wZiUbMlOYC/wfBxjUiG7Qc+ahWsr6uD4jTsPppKOo4d5uieHZYhE6RuMjotg+azqVAAABwHftUq2OjQILGxMarrTWqKKSUei7Jz09OMDpveqPeT+vvR3b9MVcdI7QYwO5Gn91Q7FdW1WX3kmC09HSc48NIW67APoLt/U1OlANgNXAXYHEQNqe0ovk9FbZ1VyJyXSMTZs/kZhvr7rEN/DoPDVUSy7DngNwGTxhzf9+k+eYKquvq0d9nnkv7uTva+8JzZSYmn9ZJaCc7c5LU8MFUKAICngbuAsFXAgZ4u4rEoVZH6rI3czJR4LMruzc8w2NttHXobqb8Xs2YCkSzpJnXxf4NVQD+ZpOtEG+XVNXmxEtBzqp29Lz5H0mbYz9k+i/b9m5tKBUAfqbML/i/LoEN9vYwM9lNdP2Pa9gSMjQyz8/mnGR4wv/NPAu9B+3Fl+ngGeB8QsQqYKgKOUVxWPq17AjqPH2X/ts1Wk/7Othm4Gw0XMzeVCgCAZzH+5QQYGRpkqK+HqrqGnDjpz9Jgbw+7Nm8kanP61rn+4fQ/ItNFAtgDfMgyqO/79Jw8QaggnLXdAeni+z5t+3dbThM9W4LU0n9bOoLnu6l2tUuQqtA/gnHuYyPDdJ1oo6yyatos1bUfPsC+lzafdzCIgX2kijHTrQQiOWA/0ECq78hUb+dJhgf7qaytnxY3G7HoGHu3Pm85TOxcfwr8e7qC57up+BN4HBgG3mYdOBGP03n8KF4gQHlVzZTtC4jHouzduomTRw6AbSPOGWPA24HD6QgukgN+AbwLo+3HZxsdGqTn5HHKq2sIT+HmwL6uU+zatIHhgbSdyPsEcCda+k+bqXmFS+X936RGBadFaUUlcxctn3LLdZ3Hj3Jk9w7rPf7nuhe4P51vIJID5pF6/lyRjuCe59HQ3MKseVdkdSLoRMVjUdr276b9yMF03WBAqiFzJeovSqupWgAAVAMvAHPS9g6eR2TGLOZcvoRQgdnmg7QYHujn0MtbGbDv8j/X/wA3o6pc8sP7gQfT+QYFhUU0L1hEpGl2Ot/GROfxoxzevZ14NJrOt/FJPff/YTrfRKZ2AQCpwR2PAWl9aB8Kh2lsvozGOS0ZO+RjvEYGBzh+YA9d7W3W+27PZztwLakdGSL54mvAp9L9JuVVNTS1LqCqriHdbzUhvu/T3d5G24G9jAymbbn/bH8A/Ekm3ijfTfUCAOCdpB4HpH0NLRgqoLG5hYY5rRSEC9P9dhc11N/L8QN76e44kc5luLMdA9YBpoO9RaaAAPCfwK2ZeLPSikqaWhdkfWty8vT2xeMH9lhPDr2YfyQ1jEkyYDoUAJCa4Z2xEZGe51FREyHSNJuahqaMdfPGxkbpaj9O5/Ej6ZjmdzH9wPXA1ky+qUgOKQIeJrUClhGhgjA1DU1EmmZRXl2bqbdlqL+XzuNH6TxxLN1L/ef6Maml/3gm3zSfTZcCAFJLRvdl+k2DoQKq6xqoqK0zP2Pb932G+nvp7+6kr+sUA92dmVjmP9cYqbPSNYVL8l0N8BRwRabfuLisgqq6/7+9uwmNq4riAP5P0yST+YiJ1SIoRW2LBQV1IS5a1yKKO10K4sKFYJcuxZ0gKF3q0q0rcSMqgtpS0C4URQqtdSNYtKUfadO0iR0XdyoW7Vc6kzsz+f3gMFll3lzeeTPvvnvP2Zq5O+/O3MKWvt50rK6sZPHUiZw9eSKn/jyei4OpGXIj36YUedNPZB2N0w+AiSTvpJSMrGZmtpXO/EIa7U5mW+00mu00Wu0btv5dXbmUC+fPZbkXS+cWs3jq5KD28N+s5SQvJvmk5kHAELkvZSZgV60DmJjYlPb8Qpqducy2Omm02mk0Wze8+eh2u7m0vPTPdaYUQDudpcUzNW4s/u1QyrbikzUPgvHwZsoq0qGKiU2bupunprszs61us3NHd7bd6U43Zrubp6aqH9s1YjF9LrsMY2Jryg6k2jn6n5ic3Nydmml0G81WtzU33200W92p6ZnupsnJ6sd2jfg6A9pmycb1WkrVwNon96jGqZQFf8D/m095HFA7V0c5vkzSvtWBh5vxSpJLqX+Sj1r8nuSxNYw3bDStJJ+mfs6OYnyUpO5WKsbenpQvtNon+6jEd0m2rWmkYWOaTPJ2SmfM2vk7CnG5N17XXxQFfXJvkoOpf+IPe7yfZLjLHcLwej6lQFbtPB7mOJMBlm+Ha5lJ8kHqJ8AwxoUkL699aIGeR5IcSf2cHsb4PsmDax9auH3PplS0q50MwxIHU2FPM4yxZsoUt0XIJVZ64+F5P0NhPmW6u3Zi1IylJG9kNNtBwyjYneRw6ud6zfgxyRO3O5AwCM+ltJqsnSTrHV8l2dmH8QOur5nkvZS74Np5v56xnOStWFPEkJtOsjel93TtpBl0HE7yQsar+iOMgodSmgmN+06By73P6Vk/I2Uh5TnVUuonUb/jt5TuWgPvlghc15X25bWvCYOIz5M83r+hgvW3Lcm7SU6nfkLdbhxJmd3oX3cioB+eSfJZRn9G4K8kH6d0CoWx0U65a/4p9ZPsVmN/ylS/BX4w3HYm2ZfkXOpfN24lzqYspK7WEAnWw0SSp5N8mFIfv3biXSuOpXRCfHgwwwAM0EKS15N8k+HdPria5IskrybpDGYYYHhNppQW3pfkeOon5K+9Y9kTC/tgXNyV5KWUFty1e5mspswo7k1yzyA/NHX44libyZTpr90pX8BPJbl/wO95LMmBlIQ8kOTnlCQFxlMnyZMp15jdvZgd4PudT6nYd+Uasz9l5pMx5QdA/zyQ5NEkO5Js78WOlIWFN/s8fjnJL0mO9l6v/H0oZasisHFNp6y035WrrzHbk2y5hf/zR66+vhxN2Sb8Q8pdPxuEHwDro5WyGr/Ti2ZKcZALKVsPT/deL9Y6QGCkTaRUOW2lzBLMpZTfvZjShGcp5Xrjjh4AAAAAAAAAAAAAAAAAAAAAAAAAAAAAAAAAAAAAAAAAAAAAAAAAAAAAAAAAAAAAAAAAAAAAAAAAAAAAAAAAAAAAAAAAAAAAAAAAAAAAAAAAAAAAAAAAAAAAAAAAAAAAAAAAAAAAAAAAAAAAAAAAAAAAAAAAAIBh9jeoWvvwa1srBwAAAABJRU5ErkJggg==;" vertex="1" parent="1">
          <mxGeometry x="414" y="37.5" width="35" height="35" as="geometry" />
        </mxCell>
        <mxCell id="8dMVnXHlY2LH4FyuQO4U-20" value="" style="shape=image;imageAspect=0;aspect=fixed;verticalLabelPosition=bottom;verticalAlign=top;fontFamily=Garamond;fontSize=15;fontColor=#B5739D;image=data:image/png,iVBORw0KGgoAAAANSUhEUgAAAgAAAAIACAYAAAD0eNT6AAAABHNCSVQICAgIfAhkiAAAAAlwSFlzAAAOxAAADsQBlSsOGwAAABl0RVh0U29mdHdhcmUAd3d3Lmlua3NjYXBlLm9yZ5vuPBoAABDESURBVHic7dxbrGUHXcfx/1p7n9vMmWszTNvpDdvaC5ialEsVSYgl9YEyxmgJhliDvii+8kAwSn2xMdGQkPigJsbIGyZAMSEBIki0ISFWUYmJ1AwU6AxlCp1OO/Rc9l7LhzamwiTMMOestef8Pp+nmcne6//P2efs/d1r7TNNsVCe/cSDb+ra9uGq/meqafaPvc9ump+ZHto8Nbl+yJkrd28/NTnS/WDImVeim3VLs7Mbt13OfZq22WymzZPNpP+j6x7+3Kd3azfg6taMvQAv67/wtumz5w98pK/6nQp5XGanp7X51eVBZ66+YaMmR7tBZ16Jft7X9pmfsFeaqsnK5B+u++3PvX1ntwL2gnbsBXjZ2fPrH+6rfrdCXvwZQF8135jff/qvH/jk2KsAi0cALIBn/v7Be6qa3xt7D/ambmP2y9/52wdeP/YewGIRAAug7dr3lHf+7Ja+at71Hxx7DWCxCIAF0Fd/19g7sLc18+busXcAFosAWAB91b6xd2Bv66tfG3sHYLEIAAAIJAAAIJAAAIBAAgAAAgkAAAgkAAAgkAAAgEACAAACCQAACCQAACCQAACAQAIAAAIJAAAIJAAAIJAAAIBAAgAAAgkAAAgkAAAgkAAAgEACAAACCQAACCQAACCQAACAQAIAAAIJAAAIJAAAIJAAAIBAAgAAAgkAAAgkAAAgkAAAgEACAAACCQCyNGMvALAYBACjaZb74WeuDD4SYCEJAEYzOdJVMx1uXru/r3ZfN9xAgAUmABjPpK+lO7aGmdVULd850CyAq8CA77/gRy2dmFVTVVtPLlW/tTsX6Ju1rlbu2q7JNfNdOT7A1UgAMLrpiVlNr5tVd76tbrOtqp35bEBTVbXW1+RA58N/AD9EALAY2qr2cFdtuUYPMASfAQCAQAIAAAIJAAAIJAAAIJAAAIBAAgAAAgkAAAgkAAAgkAAAgEACAAACCQAACCQAACCQAACAQAIAAAIJAAAIJAAAIJAAAIBAAgAAAgkAAAgkAAAgkAAAgEACAAACCQAACCQAACCQAACAQAIAAAIJAAAIJAAAIJAAAIBAAgAAAgkAAAgkAAAgkAAAgEACAAACCQAACCQAACCQAACAQAIAAAIJAAAIJAAAIJAAAIBAAgAAAgkAAAgkAAAgkAAAgEACAAACCQAACCQAACCQAACAQAIAAAIJAAAIJAAAIJAAAIBAAgAAAgkAAAgkAAAgkAAAgEACAAACCQAACCQAACCQAACAQAIAAAIJAAAIJAAAIJAAAIBAAgAAAgkAAAgkAAAgkAAAgEACAAACCQAACCQAACCQAACAQAIAAAIJAAAIJAAAINB07AVgYbWTatrlqnYy3g7zvtr9V/5j2qxOV8898ei9O7DRIM68sL382Ffq1iFn3nasP/v2O5efHXLmXtfMq93ePnfHZd2pmz95zZn1f2ve9cjWLq3FKwQAvEozXavJ+rXVrh59+cV/Aawc35HD3FRd/y87cqQBtPNJffxfNwad+ZtvnlbT9YPO3Pv6qs0XL/te3zu20T/3xfc/UdP+14685c+e2oXFKJcA4BVNTQ7eXMvH7qnJvmsX5sUfIvV9M5+/9IZ+NvvauX/6wFVz5upqIwCgmlo6ekdN16+vapqxlwFe0c1ny/Nu4/N9/4jXql3gi0q86aFbql09MvYawEX08+2Dzz3+0gfG3mMvEgBEa5bWa7J/Zy6yA7ujn88eGnuHvUgAEG1y4ERVOe0Pi607NvYGe5EAIFczqXbl8NhbAD9G39eIv4u7dwkAYjXT1WoaPwJAJs9+xPKrfkAyAUCu1rc/kMszIAAEEgAAEEgAAEAgAQAAgQQAAAQSAAAQSAAAQCABAACBBAAABBIAABBIAABAIAEAAIEEAAAEEgAAEEgAAEAgAQAAgQQAAAQSAAAQSAAAQCABAACBBAAABBIAABBIAABAIAEAAIEEAAAEEgAAEEgAAEAgAQAAgQQAAAQSAMDCmU6Gn7k0wkwYkwAAFs6Rtab2LzeDzrzxiKdDsviOBxbOpK164K7h3pIfW2/q3ps8HZLFdzywkH7rvqW689rdf4paW2rqg7+0VCvTYc84wNimYy8AcDGry1V/+ivL9Yl/n9U/fm1ez7y4s8fft1T1sze09Z43LNX1h734k0cAAAtrZdrUu+9dqnffuzT2KrDnuAQAAIEEAAAEEgAAEEgAAEAgAQAAgQQAAAQSAAAQSAAAQCABAACBBAAABBIAABBIAABAIAEAAIEEAAAEEgAAEEgAAEAgAQAAgQQAAAQSAAAQSAAAQCABAACBBAAABBIAABBIAABAIAEAAIEEAAAEmo69wOXov/DI9PlrVg6MvcdO2/rWlzerq3NVVdU31c+qGXJ+M62+mn7IkVeuaa/4a9Q37bSq9u/ANgBXnYUPgP7Jj6ycP/fC+/pq3nu+6nXNZr/nzlqsvOaN//fnrW8+Xxc+/41B56/f/9pavvHgoDOvSN/X9ounr/gwzWTl+yUAgFALHQDn/uPRI+efu/Dpapr7Bn1LDAB73EK/m24266PV9PeNvQcA7DULGwDnn/jjt1b17xh7DwDYixY2ALq+To69AwDsVQsbAG1fN4+9AwDsVQsbAF3V0tg7AMBetbABAADsHgEAAIEEAAAEEgAAEEgAAEAgAQAAgQQAAAQSAAAQSAAAQCABAACBBAAABBIAABBIAABAIAEAAIEEAAAEEgAAEEgAAEAgAQAAgQQAAAQSAAAQSAAAQCABAACBBAAABBIAABBIAABAIAEAAIEEAAAEEgAAEEgAAEAgAQAAgQQAAAQSAAAQSAAsmqYZfmQ7/EwAxiUAFky7vjz8zAPDzwRgXAJgwUyPrNbk6Npw847tq8nBlcHmAbAYBMACWn/rjdUsT3Z9TrM8qf2/cOOuzwFg8QiABTQ5slYHH7y9lm85XM1kFx6iaVvLrz1ch07+dE0Ore788QFYeNOxF+DiJgdXav1tN1dVVb8537kDNzXI2QUAFpsAuAo0K16wAdhZLgEAQCABAACBBAAABBIAABBIAABAIAEAAIEEAAAEEgAAEEgAAEAgAQAAgQQAAAQSAAAQSAAAQCABAACBBAAABBIAABBIAABAIAEAAIEEAAAEEgAAEEgAAEAgAQAAgQQAAAQSAAAQSAAAQCABAACBBAAABBIAABBIAABAIAEAAIEEAAAEEgAAEEgAAEAgAQAAgQQAAAQSAAAQSAAAQCABAACBBAAABBIAABBIAABAIAEAAIEEAAAEEgAAEEgAAEAgAQAAgQQAAAQSAAAQSAAAQCABAACBBAAABBIAABBIAABAIAEAAIEEAAAEEgAAEEgAAEAgAQAAgQQAAAQSAAAQSAAAQCABAACBBAAABBIAABBIAABAIAEAAIEEAAAEEgAAEEgAAEAgAQAAgQQAAAQSAAAQSAAAQCABAACBBAAABBIAABBIAABAIAEAAIEEAAAEEgAAEEgAAECg6av/8sxjJ483Ve/oq7+l6Wt5rKWqqubnv9k307UvjrnDXvSV76yeuLA9GeyxXV/uNu85/tLpnTxm31fbtJMTV36grdns/DeP7sBKe8Ls3PNVW9uXfofJpCbrh2py9IZqJ9Mff3tgoUyrqvqPPTQ5u7L5SFX//qpabaqqmjHXqpq/+PS4C+xRf/H4HfX1c8M9Wd9+ZKs+/Iv/c/tgA/mJzZ/bqG5zfln32T57tppvnaqlE7fUyvGf2qXNgN0wrao6u7rxV9XXe8deBrj69LOutp46VTXbrJUTd429DnCJ2rOPnTzpxR+4UttPn675i98few3gErV91fvGXgK4+vXV1+bpJ8deA7hEbVX/prGXAPaG7sIPxl4BuERtVR0Zewlgb+hn3dgrAJfI/wMA7JimH3sD4FIJAAAIJAAAIJAAAIBAAgAAAgkAAAgkAAAgkAAAgEACAAACCQAACCQAACCQAACAQAIAAAIJAAAIJAAAIJAAAIBAAgAAAgkAAAgkAAAgkAAAgEACAAACCQAACCQAACCQAACAQAIAAAIJAAAIJAAAIJAAAIBAAgAAAgkAAAgkAAAgkAAAgEACAAACCYAwa9Nu0Hn7luaDzgPg0kzHXoBh3X3NhfqvZ/cPOo8s8wtnvjT2Dlzc9tNbh7qtbrDn/Wa56ZaOd8eu9Dj9fPPMdx87+dBO7LQXzF/YvqufzQ9f6u3bqgtbk3ript/47Cdf/e8CIMzJ287WZ04drRe2d/+hP7QyqwdvPbvrc1gss+e/8XNj78DFbfznanUvDHfid3Kwq3Z9YycOdU1VfWwnDrQXdBuz6jcv/exqVy+f7v/2X759a7I0+ZPr3vuZP6xyCSDO0dXt+tBbvl5HV7d3dc6xte360FtO1aGV2a7OAeASbXfL8x9s/8GZv3ng76qqmu8+9s5+7J0Y3sasrcefPlynnl+rzdnOdeDqpKtbD79UP3/DuVqZDPt5A67M7OxGdZfxruJimmpq6YZ9O7QRO+2lLw1/BmD1vh05A8CrbJ/duKwzABczPTD9dZcAQq1Ou7r/5u/X/WMvAsDguu161CUAAAjTb3U3CQAACNN3XSsAACCQAACAQAIAAAIJAAAIJAAAIJAAAIBAAgAAAgkAAAgkAAAgkAAAgEACAAACCQAACCQAACCQAACAQAIAAAIJAAAIJAAAIJAAAIBAAgAAAgkAAAgkAAAgkAAAgEACAAACCQAACCQAACCQAACAQAIAAAIJAAAIJAAAIJAAAIBAAgAAAgkAAAgkAAAgkAAASDH0M37bDzyQyyEAAEJMDnSDzmsPCoBFJgAAQkxvnFU1w8xqmlfmsbAEAECI9kBXK3dvVbPLEdA0Vcuv36p2/7BnHLg807EXAGA40xOzmhzqauvb0+pfaKuf79yxm7av9mBf0xtnXvyvAgIAIEyz3tXKnVtjr8HIXAIAgEACAAACCQAACCQAACCQAACAQAIAAAIJAAAIJAAAIJAAAIBAAgAAAgkAAAgkAAAgkAAAgEACAAACCQAACCQAACCQAACAQAIAAAIJAAAIJAAAIJAAAIBAAgAAAgkAAAgkAAAgkAAAgEACAAACCQAACCQAACCQAACAQAIAAAIJAAAIJAAAIJAAAIBAAgAAAgkAAAgkAAAgkAAAgEACAAACCQAACCQAACCQAACAQAIAAAIJAAAIJAAAIJAAAIBAAgAAAgkAAAgkAAAgkAAAgEACAAACCQAACCQAACCQAACAQAIAAAIJAAAIJAAAIJAAAIBAAgAAAgkAAAgkAAAgkAAAgEACAAACCQAACCQAACCQAACAQAIAAAIJAAAIJAAAIJAAAIBAAgAAAgkAAAgkAAAgkAAAgEACAAACCQAACCQAACCQAACAQAIAAAIJAAAIJAAAIJAAAIBAAgAAAgkAAAgkAAAgkAAAgEACAAACCQAACCQAACCQAACAQAIAAAIJAAAIJAAAIJAAAIBAAgAAAgkAAAjUVtV87CUAgAE1LwfAM2PvAQAMp2mbedv09eWxFwEABjRpv9N2TfPRsfcAAIbTLDcfbV9z8lOfqKp/HnsZAGD3Ncvtuese/uzvt01TfTNbeldVnRp7KQBg97TTZnuy0r61aaprq6qO/erHz8zaenNT9djYywEAO69ZmZyeL6+97tqHP/vVqqrmh2/w7Kfe+ca+bx7qm/51Vc3x4VcExjB7dvPmbnu+70qOMWmrmxzf9987tRPwo2bf27yp25rvv5TbNpPmQtPWqZq2f379w5/5f5/5+1+evifuGvH95QAAAABJRU5ErkJggg==;" vertex="1" parent="1">
          <mxGeometry x="320" y="120" width="60" height="60" as="geometry" />
        </mxCell>
        <mxCell id="8dMVnXHlY2LH4FyuQO4U-21" value="" style="shape=image;imageAspect=0;aspect=fixed;verticalLabelPosition=bottom;verticalAlign=top;fontFamily=Times New Roman;fontSize=14;fontColor=#B5739D;image=data:image/png,iVBORw0KGgoAAAANSUhEUgAAAgAAAAIACAYAAAD0eNT6AAAABHNCSVQICAgIfAhkiAAAAAlwSFlzAAAN1wAADdcBQiibeAAAABl0RVh0U29mdHdhcmUAd3d3Lmlua3NjYXBlLm9yZ5vuPBoAACAASURBVHic7d15nFx1ne//d1Vv6U46S0PCvkQEpNMsosIw6ogrgVZxVBoVXFC03Ze5zoyoM44/Z9RRmfHOnd/NLQfNzFVQAo6iNLYIsoggqIFApYNA0gnZ00lv1Uut59w/qhqakO50V51zvt9zzuv5ePSDx2TMOZ90Vff3XZ9zzuebcF1XAAAgXpKmCwAAAMEjAAAAEEMEAAAAYogAAABADBEAAACIIQIAAAAxRAAAACCGCAAAAMQQAQAAgBgiAAAAEEMEAAAAYogAAABADBEAAACIIQIAAAAxRAAAACCG6k0XgNl19WVcL4+3rN5VW4Pj5SFP/9rKpU94eUAAgP/oAMTMonpPF39JepPXBwQA+I8AECONSVeNCc8PSwAAgBAiAMRIa52nVxOmvPya/uFlfhwYAOAfAkCMLPInANRLWu3HgQEA/iEAxMSCpKt679v/U7gMAAAhQwCIiRZ/Pv1PWX1N/zBPlABAiBAAYqLZ31d6maRX+HoGAICnCAAxkJDUlPS1AyBJb/T7BAAA7xAAYmBB0pV/l/+fwX0AABAiBIAYWBDMq3zaNf3DpwVyJgBAzQgAMdDs7w2A09EFAICQIADEQGOCAAAAeC4CQMQlE1JdADcAVDAVEABCggAQcQ3BffqXmAoIAKFBAIi4huA+/U/hMgAAhEDCdQP9hIh56urL1PQCLat31dbg+RbAsxmStOJrK5cWgzxpVHX1ZbZLOt7HU6xe1976Sx+PD8BSdAAirsH/AUAHYyqgtx7w+fjf7OrL8HsAiCF+8COuzsxpmQroHb8DwJmSrvL5HAAsRACIuGTw9wBI3AfgJb8DgCR9pasvszCA8wCwCAEg4gy9wEwF9M7DknI+n+MYSX/t8zkAWIYAEHHJYB8DnI4ugAfWtbfmVA4BfvtsV1/mmADOA8ASBICIM3MFQBIBwEtBXAZYKOkrAZwHgCUIABFn6B4AiamAXgoiAEjSVV19mTMDOhcAwwgA8AtTAb0TVABISvpmQOcCYBgBIOJKZuc8cRnAA+vaW3dI2hHQ6S7q6stcFNC5ABhEAIg4xzV4F4C0+pr+4XqTBURIUF0AieFAQCzwQx5xJbOnZyqgd4IMAAwHAmKAABBxjvmtHpgK6I0gA4DEcCAg8ggAERfoNkCHxn0A3ghiINB0DAcCIo4AEHGGbwKUmAroiQAHAk3HcCAgwggAEWf4JsApdAG8EfRlAIYDARFGAIi4ovkOgEQA8ErQAUBiOBAQWQSAiMvZEQCYCugNEwGA4UBARBEAIi7vJGy4EZCpgB4IeCDQdAwHAiKIABADOYf7ACLERBdAYjgQEDn8QMdAzoIWgJgK6BVTAYDhQEDEEABiIGtHB4CpgN4wFQAkhgMBkUIAiAFLLgFITAX0QtADgaZjOBAQIQSAGCi6VgwEkrgPoGaGBgJNx3AgICIIADFhyWUApgJ6w+RlAIYDARFBAIiJ8ZIVAUCiC+AFkwFAYjgQEAkEgJgYLyVkx1UAAoAHTAcAhgMBEUAAiAlH1nQBmApYI4MDgaZjOBAQcgSAGBmzIwAwFdAbprsAEsOBgFDjhzdGJkoJOXZcB+AyQO1sCAAMBwJCjAAQI66s6QIwFbB2NgQAieFAQGgRAGLGkgDAVMDamRwINB3DgYCQIgDEzKSTUNGOywBMBayBBQOBpmM4EBBCBIAYGi5a8bJzH0DtbLkMwHAgIISsWAkQrNGiFV0ApgLWzpYAIDEcCAgdAkAMuaILEBE2BQCGAwEhY8UqgOBZ0gUgANTAkoFA0zEcCAgRAkBMuZKGzHcBmApYO5u6ABLDgYDQ4Ac1xjLmuwBMBaydbQGA4UBASBAAYsySLgCXAWpjWwCQGA4EhILx3/4wK1NMKG+2C8BUwNrYMhBoOoYDASFAAIg5V9K+fNLkVsFMBayBZQOBpmM4EGA5AgCUcxIaLhodEcxUwNrYeBmA4UCA5QgAkCQNFZLKOcZCAPcB1MbGACAxHAiwGgEAkiqXAgoJU5cCmApYG1sDAMOBAIsRAPCMvJPQUMHYW4IuQJUsHAg0HcOBAEsRAPAcQ8WEsmYuBRAAamNrF0BiOBBgJX4o8Tz78kk5wV8LYCpgbWwOAAwHAixEAMDzFFxpT/CPBjIVsDY2BwCJ4UCAdQgAOKRJJ6F9+cDfHlwGqJ6NA4GmYzgQYBkCAGY0VkroQLA3BTIVsEoWDwSajuFAgEUIAJjVcDGhkeCGBDEVsDa2XwZgOBBgEQIADmt/IanxUmAhgKmA1bM9AEgMBwKsQQDAnOzNJ4N6PJD7AKoXhgDAcCDAEgQAzIkraVcukE4AUwGrZPlAoOkYDgRYgACAOXNVfjwwgHsC6AJULwxdAInhQIBx/ABi3vYXktrv79MBBIDqhSUAMBwIMIwAgKqMFBN+DgtiKmD1whIAJIYDAUYRAFC18VJCO3NJlbxPAUwFrJ7tA4GmYzgQYBABADXJOQntyNVp0vsnBLgMUIWQDASajuFAgCEEANSs6JafEBgoJOV4d1imAlYvTJcBGA4EGEIAgGdGiwltz9ZpwptHBZkKWL0wBQCJ4UCAEQQAeKroSrvzSe3Ne3JvAFMBqxO2AMBwIMAAAgB8MVZKaHuuTmO1dQO4D6AKIRoINB3DgYCAJVw34F3fMS8P/+LWu4fPv/hVpusAYJDrKJmbdJO5SSeZmywl89liopDLJwu5XKKQzyaK+YlkPjtcN57pq5sc+10yN3Fn+/s/0W+6bNiNABAChAAA81WfGXIaDuzO1I/s31M/NvxkcjKzvm4885NVV33sEdO1wQ4EgJAgBADwQuO+7fkFuzY/1TC455d1maHvrLrq44+brglmEABChBAAwFOuq6a927JNu7b8qWFob299Zug/2t//ic2my0IwCAAhQwgA4JeEU1Lz5sf2L9jxxI0Nw/v+of0Dn9pvuib4hwAQQoQAAH5L5ibchU88vKVp95b/qMsMXdv+wc8UTdcEbxEAQurhX9x6z/D5F/+F6ToARF/9yH5n4ZOPrG/ct+1bHVd+6EbT9cAbBIAQIwQACFrztk2jLU8+/G/1I/u/1P7Bz3g4/RtBIwCEHCEAgAlNe7bmFj7++/9qGNzzqfarP501XQ/mjwAQAYQAAKY0DO0tLtr4u583Dmz/cPsHPrXPdD2YOwJARBACAJhUNzbitm68/96mXVuuaP/AJ3eargeHRwCIEEIAANPqRwedxevvvK7hwO6PcI+A3QgAEbP+Fz33jpy/+pWm6wAQb83bNo0uSt9/dce7P3ST6VpwaASACCIEALBBwimpdcO9jzZv2/Tm9vd/YpvpevBcBICIIgQAsEV9ZshZvP7O/2rYv+tqLgvYgwAQYYQAADZp3rZptHXDvRevet9H7zddCwgAkUcIAGCTuomMu/SBW7911mVX/o3pWuKOABADhAAAtln88F3p5v6Nr2y/+lPDpmuJKwJATKzv7fnNyHmrX2G6DgCY0rR7S3bJH+9826r3fPg207XEEQEgRggBAGyTzE1q6QM93z37rZdfbbqWuCEAxAwhAICNWh/77eaWJ9ef0371p8dM1xIXBIAYIgQAsFHLlseGWjfcu6r9A5/cbbqWOCAAxBQhAICNFuzcPLn4D7eft+qqj6dN1xJ1BIAYIwQAsFHj/l2FpQ/cetGq937kLtO1RBkBIObW9/bcN3Le6pebrsOU9T9YU9PfP/fKj3B+zm/s/FHW0LRAp9YXv3jxBz78T6Zriaqk6QJg1rmrO1+x5KHe35quAwCmK+Sy+lMu8Y+3fu8//sN0LVFFAAAhAICVSsWCnpgoXP2ztdfdYrqWKCIAQBIhAICdXMfRU2P5N/9s7XcJAR4jAOAZhAAANnJdR0+N5d78s7Xf/anpWqKEAIDnIAQAsJHrOnpqPHfpz//zuz8xXUtUEADwPOUQ8Eu26wRgFddx9ORY7i2EAG8QAHBI566+5OWEAAC2mRYC/tt0LWFHAMCMCAEAbOQ6jp5W018+etMPvmG6ljAjAGBWhAAAthq8sOuvCQHVIwDgsAgBAGzk1tVp8MLLCAFVIgBgTggBAGzk1tVPhYCvm64lbAgAmLNzV1/y8iW//+UDpusAgOkqIeBvCQHzQwDAvJx70SV/TggAYBtCwPwRADBvhAAANnomBKz7/tdM1xIGBABUhRAAwEZuXb0GX931OULA4SVc1zVdA0Js/S9vu3/kZRddYLoOAJguUSqq7a51Xz+r693XmK7FVnQAUBM6AQBsRCfg8AgAqBkhAICNpoWAr5quxUYEAHiiHAJu/53pOgBgukoIuIYQ8HwEAHjm3IsuvoAQAMA2hIBDIwDAU4QAADaaFgL+0XQttiAAwHOEAAA2qoSALxACyggA8AUhAICNKsOCCAFiDgB8NvDWs76ZLOQ/e/Cfu4nEof/CTH8+mxn/zqH/fP7nrqLWGf5/M/60Ga1ppmPN7zjV1DTja1HNv28+//vZaprvuT36N7iz/tNM1eThz6PvP6czH+tQf5woFQvN/Rvf3tbb/7NZDhhpBAD4bnD1yq9J+pzpOgDgIHlJl8U1BHAJAL5r6+2/RtIXTNcBAAdplHTT4OqVbzZdiAl0ABCYwdUr3y/pO5LqTNcCANPkJb26rbf/ftOFBIkAgEANrl75Jkk3Smo2XQsATPO0pHPaevuHTBcSFC4BIFBtvf0/l/Q6SYOmawGAaU6UdJ3pIoJEAEDgKm22V0rabroWAJjmrYOrV37EdBFB4RIAjBlcvfJ4Sb+U1G66FgComJR0bFtv/7DpQvxGBwDGtPX275D0Ckm/MV0LAFQ0S3qr6SKCQACAUZUbbl4j6Z81y5wcAAjQO00XEAQuAcAag6tXvkHS9yWtMF0LgFgrSTq+rbd/j+lC/EQHANZo6+2/XdLZku4wXQuAWKuTdJnpIvxGAIBVKon7IpUnBxYNlwMgvjpMF+A3AgCs09bb77T19n9V0oUqD+cAgKAtNl2A3wgAsFZbb/9vJZ0j6WbTtQCInSWmC/AbAQBWa+vtH2rr7b9M0sWSnjBdD4DYiHwHgKcAEBqDq1c2SvorSV+UtNBwOdZ75MzX6P9c9W3TZVRt9Z3X6S09/2a6DMTXY229/WeZLsJPdAAQGm29/fm23v6vS3qRyhsKYRZ3vOo9pkuo2ok7NulNvf/bdBmItydNF+A3AgBCp623f0dbb/87VB4gtNF0PTbadsIqPfWCc02XUZWGQk7vv/4a1ZV4CARG3Wu6AL8RABBabb39d6l8k+BnJEV+bvd83Pmqd5suoWpvvfVfdfTeLabLAAgAgM3aevuLbb3931Z5K8+/lRTpyV1zMbT0KP3hnItMl1GV9sfv14X3/dB0GcCIpA2mi/AbAQCR0Nbbn2nr7f+GpJWSPiqp33BJxtz1infJSdaZLmPeFo4P670/+jsluDEZ5v26rbffMV2E3wgAiJS23v5sW2//GkmnSXq3YnaPQK6xWfdd8HbTZVTlypv+Py0ZHTBdBlCQ9HnTRQSBAIBIqlwa+IGkMyW9RdKDhksKxAPnvUUTza2my5i3C37/M734UbaAgBWubevtf9x0EUGoN10A4Ke23n5X0i2SbhlcvfICSVdK6pJ0pNHCfOAmkrrzL64wXca8HTG4S5f/5OumywCk8ujxr5guIih0ABAbbb39D7T19n9M0rGS3iTpR5ImzVblnUdXvUoDR55ouox5SbiOrrrh81qQHTNdCiBJn2zr7Z8wXURQ6AAgdtp6+wuSbpV06+Dqla2S3irpCpXnCoTv7rmKMA7+uejXa/XCLetNlwEUJH2wrbf/FtOFBIlRwEDF4OqVx0i6XNIbJL1S0iKzFc3d08e366t/9SPTZczLCTsf1+e+/S4G/sC0MUlvb+vt/6XpQoJGAAAOYXD1ynpJL5X0apW3JX6FpBaTNc3me1d8TQ+9pNN0GXPWUMzp89e+Q8fs3Wy6FMTbXkmXtPX2x7INRQAA5mBw9coGSeepHAheLekCSc1Gi6oYXrJCX/hir0p14bmi1/WTf9ZrfnO96TIQX2OS1qh8x/9e08WYEp7fGIBBlfsGflv5+sfB1SvrJJ0s6XSVNyea+u+LJK0Isra7XvmuUC3+7X+6X6++7wbTZSCeBiX9L0n/1tbbP2i6GNPoAAAeG1y9cqmeDQUvUHlf8UWSWqd9Hfx/V3V5IdfYrGu+9CtNNIdj6/KFEyP6+2+8lYE/CMKIpE0Hfd3d1tvPIycVBAAgxLr6Mh+T9O+m65iHy9a1t95suggABAAgtLr6MklJf5L0QtO1zNH/Xdfe+l7TRQAoYxAQEF5vVHgW/22SPmG6CADPIgAA4fVXpguYI0fSe9a1t46aLgTAswgAQAh19WXOlfQq03XM0TfXtbfea7oIAM9FAADC6TOmC5ijRyT9vekiADwfNwECIdPVlzlW0lZJDYZLOZyspJesa2/tM10IgOejAwCEzydk/+IvSZ9j8QfsRQAAQqSrL9Mi6UOm65iDX0n6N9NFAJgZAQAIl/dJajNdxGEMSrpqXXsr1xcBixEAgJDo6sskJH3adB1z8OF17a07TRcBYHYEACA83ijpVNNFHMb317W33mS6CACHRwAAwsP2wT/bJH3cdBEA5oYAAIRAV1/mxZIuNF3HLJj2B4QMAQAIB9sH/3yLaX9AuBAAAMtVBv+8w3Qds3hE0t+ZLgLA/BAAAPt9XPYO/slKunJde2vedCEA5ocAAFisMvin23Qds7hmXXvrRtNFAJg/AgBgt/fK3sE/d0j6n6aLAFAdNgMCLFUZ/PO4pNNM13IIQ5LOZOAPEF50AAB7dcrOxV9i2h8QegQAwF62Dv75wbr21nWmiwBQGwIAYKGuvsw5kl5tuo5DeFpM+wMigQAA2MnGwT9T0/5GTBcCoHYEAMAyXX2ZY2Tn4J9r17W33mO6CADeIAAA9vm4pEbTRRxkg6Qvmi4CgHd4DBCwSFdfplnSdklHmK5lmpykl65rb02bLgSAd+gAAHZ5r+xa/KXytD8WfyBiCACAJSqDfz5tuo6D3Cnp26aLAOA9AgBgj0sknW66iGmGJL1vXXsr1wmBCCIAAPawbfDPR9a1t+4wXQQAf3ATIGCBrr7M2ZIeMV3HNNeva2+90nQRAPxDBwCwg02Df56W9DHTRQDwFx0AwLCuvszRkrbJjmf/HUmvXdfeerfpQgD4iw4AYJ5Ng3/+hcUfiAcCAGBQZfDPh03XUfGopC+YLgJAMAgAgFnvkR2Df3KSrljX3po3XQiAYBAAAEMsG/zzeab9AfFCAADMuVjSi0wXIenXkv7VdBEAgkUAAMyxYfDPsKT3Mu0PiB8CAGBAV1/mLEmvNV2HmPYHxBYBADDDhsE/N6xrb/2R6SIAmEEAAAJWGfzzLsNlbBfT/oBYIwAAwfuYzA7+cVW+7j9ssAYAhhEAgABZMvjnX9a1t95luAYAhhEAgGC9W9KRBs//mJj2B0BsBgQEpjL4Z6OkMwyVkJP0snXtrY8ZOj8Ai9ABAIKzWuYWf0n6Aos/gCkEACA4Jgf/3CXpXwyeH4BluAQABKCrL3OmyrvtmTAs6ax17a3bDZ0fgIXoAADBMDn456Ms/gAORgcA8FlXX+YoSdskNRk4/Q/XtbeaHjoEwEJ0AAD/fUxmFv8dkj5q4LwAQoAOAOCjrr7MApXH7gb97L8r6XXr2lt/HfB5AYQEHQDAX6YG//wriz+A2RAAAJ9UBv+YuPnvMUmfN3BeACFCAAB8sq691VV517+vSnoyoNPmJF25rr01F9D5AIQU9wAAAenqy5wj6TJJXZJe6NNp/npde+u3fDo2gAghAAAGVMJAl8qBwKswcLek11Q6DwAwKwIAYFhXX+bFKgeBWsLAiKQzGfgDYK4IAIBFaggDV6xrb73Bn6oARBEBALBUJQxMXSY4ZZb/6Y/Wtbe+M5iqAEQFAQAIga6+zLl6tjMwPQzsUHmjnyEjhQEILQIAEDLTwsDbJX14XXvrnYZLAhBCBAAAAGKIQUAAAMQQAQAAgBgiAAAAEEMEAAAAYogAAABADBEAAACIIQIAAAAxVG+6AMxucPVKo4Ma2nr7EybPDwDwBx0AAABiiAAAAEAMEQAAAIghAgAAADFEAAAAIIYIAAAAxBABAACAGCIAAAAQQwQAAABiiAAAAEAMEQAAAIghAgAAADFEAAAAIIYIAAAAxBABAACAGCIAAAAQQwQAAABiiAAAAEAMEQAAAIghAgAAADFEAAAAIIYIAAAAxBABAACAGCIAAAAQQwQAAABiiAAAAEAMEQAAAIghAgAAADFEAAAAIIYIAAAAxBABAACAGEq4rmu6BmPW7i90PFFwHzNdh59eu6BOrdGOeUefv6Rur+kiACBsor00HEbRVafpGvxWnzBdge/OMl0AAIRRrANAXnqF6Rr8Vme6AP+dbboAAAijWAeAnKt20zX4jQ4AAOBQYh0AJl33WNM1oGZ0AACgCrENAP+1v9Ay4WiB6Tr8Voz+PZ5nPDhSajBdBACETWwDQFG6xDFdRACKpgvwX4OkM0wXAQBhE9sAUHD1OtM1BKEYj8c8uQwAAPMU2wCQd3Wu6RqCEIMOgMSNgAAwb7ENAFlXLzBdQxBicA+ARAcAAOYttgFgwnWXma4hCHQAAACHEssAsHZ/oSPnxuPfPhmPDsBRD46UjjJdBACESSwWwYPFYQTwlDEnHglAdAEAYF5iGQDiMAJ4ylhs1n/uAwCA+YhlAIjDCOApdAAAAIcSywAQpxHAk65UMl1EMOgAAMA8xC4AxGUE8HQx6QIwEhgA5iF2ASAuI4Cni8l9AIwEBoB5iF0AiMsI4OkGS/FIAOIyAADMWewCQFxGAE+3Pz4tD24EBIA5il0AiMsI4OlGHVeFeDQB6AAAwBzFLgDEZQTwdK6kA/G4EZAOAADMUawCQJxGAB9sfzwCACOBAWCOYrUYxmkE8MEOxGQYgOgCAMCc1JsuIEgmRgAfedN3gj7ljDYfe6ySyWAz38rXvinQ86l8H8Cvgj4pAIRNrDoAcRoBfCiTk5OmSwgCHQAAmINYBYA4jQA+lMnxcdMlBIEnAQBgDmITAOI4AvhguXxexVLRdBl+YyQwAMxBbAJAHEcAH8rkROQvAzASGADmIDYBII4jgA9lgssAAADFKADEcQTwoRSLReXzBdNl+I0bAQHgMGITAOI4Angmk5MTpkvwGx0AADiM2ASAOI4AnsnE+LgcN9KTAekAAMBhxCIAxHkE8KE4jqPx8THTZfiJkcAAcBixWBTjPAJ4JmOZjFy6AAAQW7EIACZGANvOKTkaG4t0F4D7AABgFrEIAHEfATyTsUxGjhPZ6Qh0AABgFrEIAHEfATyTiN8LQAcAAGYR+QDACODZjWXGovpEACOBAWAWkQ8AjACeneM4Gs9kTJfhB0YCA8As6k0X4DfTI4D3X/Yhk6efk0FJr22u08KE6Uo8d7akR00XYbPl/36L0fbPqUct0YrFLSZLgEE/vei86P3WCZHIdwAYAXx4jqR0PpJ9Em4EtFxdMvK/ggBrRf6njxHAc7O75GqgFLl7AbgR0HJ1ST4AAqZEPgAwAnjuHi04Kpkuwlt0ACxHAADMiXQAYATw/GScyF0KYCSw5eoS/HgCpkT6p48RwPPXX3S1O1qXAugCWIwOAGBOpAMAI4Cr83DeUTY6GYD7ACxGAADMiXQAYARwdfKu9MfoXAqgA2AxAgBgTqQDACOAqzdQcvVkIRJtADoAViMAAKZENgAwArh2fQVHe8N/PwAjgS1WciPTaQJCJ7IBgBHAtXMlPZRzNOyEOgQwEthiTrjfW0CoRTYAmB4BHBUlSQ/kHI2H+/c0lwEsVYrmRlRAKEQ2ADAC2Ds5V3ogW1I+vL+ruRHQUnQAAHMiGwAYAeytMVf6XS60kwLpAFiqRAAAjIlsAGAEsPcGHTesIYAOgKUcLgEAxkQyADAC2D8DJVf3ZZ2wXQ5gJLCl6AAA5kRykWQEsL+GHFf35UI3LZAugIXoAADmRDIAMALYf6OOq99kS2F6OoD7ACxEBwAwJ5IBgBHAwRh3pd9kSxoNxy9xOgAWogMAmBPJAMAI4OBkXemerKMd9k8MpANgoUKJcV2AKZELAIwADl5J0h9yjjbkHVn865yRwBbKFUL4TAkQEZELAIwANqe/6Oo3WUcTdjYDGAlsoSwBADAmcgGAEcBmDTmu7s6WtMfOSwJcBrBMrlA0XQIQW5ELAIwANi9fmRr4cN66eQHcCGiZfMnhRkDAkHrTBXiNEcCStj6p+o3r1Tw6KEmaXLxMxVUvkU4+NdAythVd7S6V1NGQ1In1Vuz7TgfAQrlCSc2NkftVBFgvcj91sR0BXFn0W0YH1VhfV/6zyn+bJkal39+l/AN3aCLgMJB3pfV5R08XEzq7MalWsz0nOgAWyhIAACMi9VMXtxHAxYE9WvDQPWrJDKqx7rmL/qE01tepcSoM/O4OTbQuU/a8C1W//Gjfa93vuLorW9ILGxI6rT4pQw2Box4cKR11/pK6vUbOjkPKFrkREDAhUgEgDiOAiwN7lN34iLIbH1ZxYI86Vq2S6mZe9GfSWFcOA+n//2uqX360Fqw6RwtWvdjXMOBIeqLgamuxpFPqkzqlPmEiCJwl6VeBnxUz4kZAwIxIBYCojgA+eNH34/hjd/dq7O7eQMJA3pU2FRxtLspEEDhbBACr8CggYEakAkCURgD7vejPdt6gwsDBQWBlfUKN/gcB7gOwDMOAADMiFQDCPgLY1KI/Wz1BhIGpIPCngnRMXUIn1Se0vC4hn7IATwJYZpJLAIARkQkAYR0BbNuiP5MgwoAjaWfJ1c6Sq5aEdGJ9UifVJ9TsbRI448GRUsP5S+oKnh4VVSs5ribyRbXwJAAQqMj8xIVpBHBYFv2ZBBEGJlzp8UpX4Ii6hI5OJnRUndSarDkNTI0EfrT2KuGVsWyeABBD1+w2OyrsLS3zv4F6PrYU3c+884j6b/t6D6U20AAAHWtJREFUkhpE5ifO9hHAYV/0Z+J3GHAl7S+52l9ylS5IzQlpRV1CR9UltDyZUEN1eeBsEQCskskWtGKx6SoAb7Ul9SVJBAC/2TgCOKqL/kyC6AxMuuUJg9uKrhKSliQTWpys/DchLU4m1HT4UMCNgJYZy3JFBtGzNJlY+sMDxU/b2gWITACwZQRw3Bb9mQQRBlxJw46rYWfq/yprSpQDQXNCakxITSo/XTD11aDEn3lWBDwxni/IcV0lE1aMjAY8Y3MXIDIBwOQIYBb92QU9ZyDnSvuesxvhcy8zNiT056+Tv9f+MD+uK43nCmpd0Gi6FMBTNncBIhEATIwAZtGvTtBh4FAKrpLXDRTOuXp5wyOBnRSHNZYlACCabO0CRCIABDUCmEXfWybDQEm6RBIBwCKZbEHHmC4C8IGtXYBIBAA/RwCz6Acj6DBQcPVyXw6MqnEjIKLMxi5AJAKA1yOAWfTNCiIM5MuzAGCRyUJRRcdRfTI2G3oiRmzsAkQiAHgxAphF305+hYFJx6XbbKGRibyOWBS6gZ7AnNjWBQh9AKhlBDCLfrh4GQbGXS347kBh4QeWN4z7UCqqNDSeIwAgsmzrAoQ+AMx3BDCLfjTUGgbc8tclkm7ytVDMy9B4VtIS02UAvrGpCxD6ADCXEcAs+tFWbRgoSq8TAcAq+ZKjsVxBi5oaTJcC+MKmLkDoA8BMI4BZ9ONpPmHAxvHRKF8GIAAgymzpAoQ+AEwfAcyij+kOFwayrlYaLhGHMDie1Qlti0yXAfjGli5A6APAyL7dy8bSLPqY3aHCQLLjxct01ImmS8NBxrIFFUqOGup4HBDRZUMXIJQB4Kruj7RLukxSlxTsCGCE37QwkLxK2qjyfQDr1qbW9JmuDWVD4zmtWNxsugzANzZ0AUITAA5a9D0d/INYa5f0JUlfuqr7I30iDFhhaDxLAEDkme4CWB0AWPQRMMKAJYYmcnJdid2BEWWmuwDWBQAWfViCMGBQyXE1OpnXkhZ2B0S0mewCWBEAWPRhOcKAAfsyEwQARJ7JLoCxAMCij5AiDATkwFhWL1juqi7JdQBEm6kuQKABgEUfEUMY8FHJcXVgjJsBEX2mugC+BwAWfcQEYcAH+0YnCACIBRNdgCCeof+RpH8Qiz/iYyoM/Mh0IWE3MplXtlAyXQbgu6kuQJDnDCIA/CCAcwA24r3vgX2jE6ZLAAJR6QIEJogA8EOVd18F4sRV+b2PGu0bnTRdAhCIoLsAvgeAtak12yXd6/d5AMvcW3nvo0a5YkkjE3nTZQCBCLILENQcfVqhiBve8x7iMgDiIsguQFAB4GZJuYDOBZiWU/k9D4/sH8uq5HAlEfEQVBcgkACwNrVmWFJPEOcCLNBTec/DI47rai9dAMREUF2AILfSvT7AcwEm8V73wa6hcbk0ARATQXQBggwAPZL4VISoo9vlk1yxpIEMTwQgHoLoAgQWANam1nBdFHFwc+W9Dh/sGBozXQIQGL+7AEF2ACRao4g+3uM+mswXNTieNV0GEAi/uwBBB4B7JPFsNKJqh8rvcfhoxyBdAMSHn12AQAPA2tQapqMhym6ovMfho0y2oJFJBgMhHvzsAgTdAZAYkILoov0fELoAiBO/ugCBB4C1qTWPSXos6PMCPntsbWrNo6aLiIvhiZzGcwXTZQCB8KsLYKIDINEFQPTw6T9gO4bGTZcABMaPLoCpAMAOgYgSV9INpouIm/2ZSboAiA0/ugBGAgA7BCJi2PnPkK37M6ZLAALjdRfAVAdA4jIAooP2vyHDEzkNjTN3CfHgdRfAZABgh0BEQU7STaaLiLP+/aPsEYDY8LILYCwAsEMgIuI2dv4zazJf1B52CkRMeNkFMNkBkGidIvx4D1tg+4GMSg5tAMSDV10A0wGAHQIRZiOSbjVdBKRCydF2hgMhJrzqAhgNAOwQiJBj5z+L7B4eV65QMl0GEAgvugD1XhRSo+slXW26CKAKPMliEcd1tfVARqcfvdR0KQiJn06EOjAuvajGA5i+BCCxQyDCaYeYZWGd/ZlJZbJsFATMhfEAwA6BCKkfrk2tcUwXged7au+IXJ4LBA7LeACooJWKsOE9a6mJfFFPc0MgcFhWBAB2CETIpNn5z247h8Y0xj4BwKysCAAVPE+NsODTv+Vcd+pSgOlKAHvZFABuEDsEwn7csxIS47mCdgxxKQCYiTUBgB0CERK/WZta87TpIjA32wczbBkMzMCaAFBBaxW24z0aIlwKAGZmWwBgh0DYLC8mV4bOWK6gnVwKAJ7HqgDADoGwXM/a1Joh00Vg/rYPjmkiXzRdBmAVqwJABU8DwFa8N0PKcV09sWdYDtcCgGfYGADYIRA2Yue/kBvPFbR534jpMgBrWBcA2CEQlmLnvwjYNzqpvSMTpssArGBdAKig1Qrb8J6MiC0DozwaCMjeAMAOgbDJDpXfk4gAx3X1+O4hFR32ckK8WRkA2CEQlmHnv4jJFkp6cg/3AyDerAwAFQxcgS1o/0fQ4HiWUcGINWsDADsEwhLptak1G0wXAX88vT+jkcm86TIAI6wNABV88oJpvAcjzJX0p91DyhdLpksBAmd7AGCHQJjkqvweRIQVSo76dg2p5PCrBvFidQBgh0AYxs5/MTGeK+jx3UNsGoRYsToAVHAzIEyh/R8jwxM5PbmXIaSIjzAEAHYIhAl5STeZLgLBGshMauv+jOkygEBYHwDYIRCG3MbOf/G0c2hMu4fHTZcB+M76AFBBKxZB4z0XY1sGRnVgLGu6DMBXYQkA7BCIILHzH/TEnmGNMiMAERaKAMAOgQjYj9em1vDxL+Yc19WmXUOayBdNlwL4IhQBoIKWLILCkyeQJBUdRxt3DmqSEIAIClMAYIdABGGn2PkP0+SLJaV3HKATgMgJTQBgh0AEhJ3/8Dz5kqP0jgMazxVMlwJ4JjQBoILLAPAb7X8cUqHkKL1jUGNZQgCiIVQBYG1qzaNih0D4ZyM7/2E2RcdReucBZbI8HYDwC1UAqKALAL/w6R+HVXJcbdw5yDbCCL0wBgB2CIQf2PkPc1ZyXPXtHNTwBFPKEV6hCwDsEAif3MfOf5iPqTkBg+OMjEA4hS4AVNCqhdd4T2HeHNfV47uG2DsAoRTWAMAOgfASO/+haq7Kewds3jcil4uTCJFQBoDKDoG3ma4DkcHOf6jZnpEJbdx5QMUSYyQQDqEMABW0bOEVniyBJ0Ym89qwfT+jgxEK9aYLqMHUDoFLTReCUGPnv4hLOiUtPLBHLcMDqs9NqCE3qfrcpBpyk5KkQlOzik3Nlf+2aGLpco0fcbScZF1V58sWStqwfb9OP2aZlrU0eflPwSE4hbxGHt+ozFNPKD889OzXSLmp17hkmRqXPvvV+sLTtORFq5RsaDRcuXmhDQBrU2tyV3V/5GZJV5uuBaHGzn8RVFfIafG+HWod2KmFg3uULM38ibypWFDT+Ohz/sypq9d429EaXXG8MsuPU6lhfgt5yXG1aeegTl6+WMcuXVjVvwEzK46PaXDDHzW0Yb2GN6Xl5GeeyTCZ3a3Jvbuf/YNfSsnGRi09o0PLzn6J2s4+V/ULFwVQtX1CGwAqrhcBALWh/R8hyVJRR2x7XEdu7Zt10Z/LcVoHdqh1YIecunrtP7ldB056kZy6uf/KdCX1D4xqIl/UKcuXKJGouhxUOLmcdt1xm3bdfptKuepzu5PPa3DDeg1uWK+tTQt07Bsu0bGvu0TJpnh1bMIeAO6RtEPS8aYLQSjtlHS36SJQu4TraunOzVqx+VHV571t6CRLRa3Y/Kjatj+hfaecpeHjTpE7j9V878iExrMFnXb0UjU3hv1Xrhmu42jfb+/R9p//WIXREU+PXcpltf3n/60999ypE970Nq14+auUSIb59ri5C/W/srJDINPbUC12/ouA+tykVj50u47d9JDni/9zzpPP6thND2nlQ7ervnL/wFyN5Qp65On92jMy4VN10ZUfGVL6G1/Wluu/5/niP11hdERbrv+e0t/48jP3D0RdqANABS1cVIv3Tsg1jxzQKQ/2qnn0QHDnHK2cc2R+53RcV5v3jWjTriEVeFRwTsa2btZjX/17jW3dEuA5t1TOuTmwc5oS+gDADoGo0sa1qTWPmC4C1Vuye6tW/uGOeX8a90J9blIr/3CHluzeOu+/Ozie1cPbBjQ0ziyz2ex/6H5tvPaflB8ZDvzc+ZFhbbz2n7T/ofsDP3eQQh8AKvgkh/niPRNiS3Zv1fHp+5VwSsZqSDglHZ++v6oQUCg56ts1qC0Do3IYH/g8+x+6X09+b42cQsFYDU6hoCe/tybSISAqAYAdAjEf3DsSYs0jB3Rc34Omy3jGcX0PzvtywJTdw+Pa8PR+jefMLXS2Gdu6WZu/f53pMp6x+fvXRfZyQCQCADsEYp7uW5tas810EZi/+tykTtxwr9FP/gdLOCWduOHeqi9FTOSL2rD9gLYPjsW+G5AfGdKf1nzb6Cf/gzmFgv605tuRvDEwEgGggpYu5or3SgglXFcnPlL9Quun+tykTnzkXiWqXMBd19XTBzKxvjfAdZzKQhv8Nf/DyY8M609rvi3XidbNm1EKADeJHQJxeOz8F1JLd24O9G7/+WoePaClO2trFWcLJfXtGtSmXUPKFezpcgRh32/vCfRu//ka27pF+357j+kyPBWZAMAOgZijX6xNrRk0XQTmZ2oYj+1WbH60pgmEUwbHs1q/bSA2lwWcXE7bf/5j02Uc1vaf/1hOLjqfMyMTACrYIRCHQ/s/hI7Y9rivQ368Up/P6ohtj3tyLGfaZYHBiF8W2HXHbb4O+fFKYXREu+6IzufMqAWAqR0CgUMZlfRz00VgfuoKOR25tc90GXN25NY+1RW8W7CzhZI2VS4LZCN4WaA4PqZdt4dnUd11+20qjo+ZLsMTkQoAa1NrcpJuNl0HrMXOfyHUOrDTk7Z6UJKlohbv2+H5cacGCG3ZN6JcMTpBYHDD+po29glaKZfV4IY/mi7DE5EKABW0eDETLhGFkB+Lqd9aB3b6clzHdbV7ZEJ/3DqgzREJAkMhXEyHNqw3XYInohgApnYIBKZj578QSjolLRzcY7qMeVs4uEdJH2cVuK6rPSMT+uPWfXpq30hoLw04hbyGN6VNlzFvw5vScgp502XULHIBgB0CMYMfsfNf+Cw8sCdU7f8pyVJRCw/4H1xct7zd8Ppt+/Tk3hFlC+H6Xo08vlFOPnwLqZPPa+TxjabLqFnkAkAFlwFwMNr/IdQyPGC6hKoFWbvrSvtGJ7R+64Ce3DOsyXw4gkDmqSdMl1C1MNc+JZIBgB0CcZA+dv4Lp/rchOkSqmaidlfSvsyk1m8b0Madg9o/lpVr8RyB/HB4x+uGufYp9aYL8NH1kr5uughYgU//IdVg4djfuTJd+/BETsMTOTXUJbV8cbOOXtyi5ka7fuWHeRENc+1TItkBqGCHQEjs/BdqNs79nytbai+UHO0aGtf6bQN6bMcB7RudtGa6YJgX0TDXPiWyAYAdAlHxW3b+Cy/Tn6JrYWPto5N5Pbl3WA9t2avN+0Y0Zngb4jDvsBfm2qfY1Q+ah85UukHSCklHV75WSMpI2jP1taJ8GeBVxoo0oKAG5RON5S81yk1IjW5ejW5eTcqrwbVnm82A/KAzlV6oZ98nR0taLGlAz75X9vZ0d8TuGyNJAx+/NGG6htlc+KsbRiW1mq6jGsliITPw8UsXm67DZhf+72tD+/qWstnM145pDPXrG4oA0JlKN6q8kHdKulDScZKOkDTrL699535soi436tZPDiSaRrapcXSbkoXw3lR0sOKCZXq67gQdSLZpMtGifKJBzmGaOgm5anTzWuBm1eYMqdiyT/UT4b3T+mBOfbPyS05SbvFJKrYsd0tNS66V9H8O89fczlR6UNIuledI9Ei6u6e7IzzjyaJrl6TTTRdRpV2mCwgBXl+DrA0Anan0MZIuUXnRf72kRVUcpqXUtFilpsXKLT1FklQ/MaCmka1qHN2mhvG93hUcADdZp8Ki45VbcpLyS05SqXGx5rutnauEcokm5RJNGkkukV50spKFCTWObit/XzLblSiF68NwsWV5+Xuy+GQVFq7QtFyYkLRwDodIqBwoj5B0pqSPS5roTKXvVDkM3NbT3bHd+8oxBzsV3gXCn3GA0cLra5B1AaAzlT5O0pclvU9SndfHL7YsV7FlucaPeZnqJw9o0a4H1Dhi+SXiRFKTR67S+DEvk1Pf7PnhnYYWZY84Q9kjzlCiVFDLvvVq2btBCcfuIJBvPU7jx/25Ci0r/Dh8i6Q3Vb7czlT6Bkl/19Pd0e/HyTCjMH/KCnPtQQnz9yjMtUuyKAB0ptJLJX1O0icleb/KHUKx+QgNn/JGNWZ2auGuB6zsCOSWvVBjx/6ZSk1LAjmfW9eg8WPO1+SRZ2rh7ofUfGCT5No1QK/YfKTGjrtA+cUnBnXKhKQrJF3WmUqvkfSPPd0d+4M6ecyF+VNWmGsPSpi/R2GuXZIFAaAzlW5SueX6eUltJmrItx6n/OlvV9PwZi3a+TvV5czvKOzzp9vDchpalDnxQk2sOEeLdj2gpuEtRuqYrtTYqvFjz1e27TQd5vYPvzRK+pSkqzpT6W9K+tee7o5xE4XEyH2S/tZ0EVW6z3QBIcDra5DRxwA7U+mjJf1W0rdkaPGfLrf0FA2e8Y5n7hcwZfzY8zV86luMLf7TlRYs1cgLLtboSa+VEubeLvnFJ2mw/Z3Ktp0uQ4v/dIslfUXSg52pdGBtiJi6U1IY79ydULl2zI7X1yBjv9E7U+l2Sb+T9BJTNRyKm6zTyAtWa+KoFwd/7kSdRk9+vcaPfmng5z6c7BEv0vAL3yi3rjHwc08euUrDp3TKTTYEfu7DWCXpd52pdPBvlpi4+5YbJyX9ynQdVfhVpXbMgtfXLCMBoDOVfrXKn/xPMnH+uRg77s+VOeFVUiKYT5tuXZOGT31zpb1tp3zrCRo67W0qNVbzQEZ1xo67QJkTLwzsdajCMZLu7UylLzZdSITdYrqAKvzMdAEhwutrSOABoDOVfrekX0paGvS552tyeYeGX+D/J89SY6sGT3+bCouO9fU8Xig2t2no9MtUbFnu63ncRJ1GV75BE0ed6+t5PLJI0s86U+kPmi4kon4macx0EfMwpnAuaqbw+hoSaADoTKU/I+n/SrKulzuT/JKTNHzqpb61vosLlmno9LertGCZL8f3g9PQoqHT/tK3wOIm6zXywjcqu+xUX47vk3pJ3+lMpa8xXUjU3H3LjQckfdN0HfPwzUrNmANeX3MCCwCdqfRnJf1LUOfzUmHhURo69VK5dU2eHre4oE3Dp/2lnIYWT48bBDfZoOEXvlH51uM8Pm69Rk7pVL71eE+PG6CvdqbSXzRdRARdq/LYZtvtUblWzA+vrwEJv/eK7kyl6yV9SVLofynWTwxoydbbVZet/THBfOvxGl35Bl8G+wQp4RTVuu3XWjD0ZM3HKjUu0ujJrw/FpZA5+IakL8Z1jwE/XHjp5R+SlDJdx2F0333Ljd8xXUQY8foGz9cOQGcq/RJJv1cEFn+pPEXwwBnv1NhxF1R9X0CpsVUjL1it4VMvDf3iL5U/sY+ufIOGT31z1Zcx3ESdxo9+qQbbr4jK4i9JfyNpfWcqfb7pQiLkuyr/PrHV71WuEdXh9Q2YLx2AzlT6ZZKulvQB+TDO1wbJwoQWDD2hpuEtahjbPev/1k3UKb/4BOWWvkC5ZafKTRqfv+QP19GC4c1qGtqsxtGnDztKuNiyXLmlpyjbdppKjaHcEGwuHElrJV3X093xO9PFhN2Fl15+rKQ/qPz0hU12S3rp3bfcGPrxsCbx+gar5gBQGeG7svK1StK7JL2o9tLCI1mYUMPEPiUL4+WvUk5OfYtKDS1yGhapsOhoG59h91XCKalhfHf5+5EfV7I4ITfZIKdhoZzGhSo2HxnlRX8mT0j6oaRHJfVL6u/p7jA/djJkLrz08vNU3rVxgelaKrKSXnX3LTc+ZLqQKOD1DY4XAcDfmwhmNinpAUk7VJ7JvFflfaWPrXydI4vnDPhog8oLza7KV0nPfk9OUXnwktEJkAbskvRHPfs9GZG0QuXvyfGSLtDcdg30XE93h7UDDmx24aWXXyHpB6brqLjy7ltuvN50EVHC6xuMsAWAnKSbJf1EUu/h5rBX7kF4q8obuUQ5DDyk8ifLn/R0d8y6tWFl/PKlki6T9NoAajNll6TrJf23pAd7ujtmfJ92ptLNkt6g8nulSwF+8iAAVK+ySFwnc58Us5KujuriYBqvr//CFAB6JH26p7vjqfn+xcqGQ59VecOh8D1zN7Odkv5HT3fHjdX85c5U+nWS/peidckmp/JjOv/U090x7xnjnan0Skn/U+VtgH1HAKhNpV38UwV/zXi3pLdEsS1sE15ff4UhAIxIendPd8fPaz1QZyp9gsqDiC6s9VgWSEn6bE93R00TtDpT6QaVg9E/eFGUYb+X9M6e7o7NtR6oM5V+o8otSF/3YSYA1K5y49hPJb0soFP+XuXFIVI3hNmK19c/tl8LHpF0kReLvyT1dHdsl3SJpDu8OJ5B1/Z0d3y41sVfknq6Owo93R1flvRJD+oy6UFJr/di8Zeknu6OWyW9XhI36Vmu8ov6Aknd8neYzJ7KOS6Iw+JgC15f/9jcAZha/B/0+sCdqfQClRPlRV4fOwD/3NPd8Tk/DtyZSn9U0r/Lgv125+lBld8rI14fuHIfye3yabtqOgDeuvDSyxdK+h+S/lrlPRq8MKbyqNpr777lxlnvO4K/eH29ZWsA2Cnpkp7ujkd9OLakZ1rf10l6j1/n8Jgj6a97ujt8HafcmUq/Q9J/SvJ27rF/eiRdfrgbQmtR2br6F5JO9PrYBAB/XHjp5UeofLPrm1Xu5Mz33p8JlbepvUXSz6Iy+z0qeH29YWMASKu8+G/3+LiH1JlKf1nS3wdxrhpMSrqyp7vjv4M4WWcq/Rcqd0hs36FojaRP9HR3lPw+UWcqfazKIeAsL49LAPDfhZde3qzyEy+vkHScyo9/Tv1XKj8xsnPaf++TdGcU9nuPA17f6tkWAO6W9BY/Wrmz6Uyl3yfpO7Jzl8IBSW8OeopcZyr9IpUXvJODPO8cuZL+pqe741tBnrQzlV6s8iOor/HqmAQAAKbYdBPgD+XTddzD6enu+E9JF6t834FNnpB0gYkRsj3dHY9L+jOVx3LaJCupK+jFX5J6ujtGVX6f3BD0uQHAazYEgL2SPijpip7ujrypInq6O+6UdKbK178dU3VUjEn6sqSXeHVXezV6ujv2qtxW+6ykQVN1THOzpLN7ujtuNlVA5T16pcrv2b2m6gCAWpm8BJCT9G2VB7ZkairCY52p9CpJX5f0xoBPXVD5UsRXKouvNSp7PnxO5ccFg97G8G5Jf9vT3WHVUI7OVLpV0jWSPqMqp5VxCQCAKaYCwI9Vvoa7paaT+6wzlX6lpH9W+RlUP7mSbpL0hWomHQapM5U+TuXuxPvk/06Pj0q6pqe74zafz1OTzlT6ZJXfJ13z/bsEAACmBBkA9qo8l/37Pd0dD9R00oB1ptJnq9wN6JR0vry5dDIp6S6VH2PrOdwMf9t0ptLHqDxUqVPS61TeiKlWrqSHVfmeSHpothn+tulMpc9T+bHSt2qOo0sJAABM8TsA7FL50/7Nku7r6e4wfW29Zp2p9JGSVqscCF4i6WjNbSDFoMrfj3tVXtzu6unuiMRjKJ2pdKOkV6ocBl6t8iM4R+rwA4UmVJ6+tUHl78ltPd0du30sNRCdqXRS0sslvV3S21T+fhwSAQCAKV4EgBFJ2w/xtUkh+wRXrc5UeqHKQWDqa7Gk/Sovbnsk7TV5g6MJnal0vcpb7k59T1ZIGtez35M9tt374YfOVDoh6TxJZ0g64eCvnu4OX/caAICZ1BwAAABA+NjwGCAAAAgYAQAAgBgiAAAAEEMEAAAAYogAAABADBEAAACIIQIAAAAxRAAAACCGCAAAAMQQAQAAgBgiAAAAEEMEAAAAYogAAABADBEAAACIIQIAAAAx9P8AnAt2AIt/gbIAAAAASUVORK5CYII=;" vertex="1" parent="1">
          <mxGeometry x="610" y="120" width="60" height="60" as="geometry" />
        </mxCell>
      </root>
    </mxGraphModel>
  </diagram>
</mxfile>
